<?xml version="1.0" encoding="utf-8"?>
<svg xmlns="http://www.w3.org/2000/svg" xmlns:xlink="http://www.w3.org/1999/xlink" width="600" height="400" viewBox="0 0 2400 1600">
<defs>
  <clipPath id="clip6300">
    <rect x="0" y="0" width="2400" height="1600"/>
  </clipPath>
</defs>
<path clip-path="url(#clip6300)" d="
M0 1600 L2400 1600 L2400 0 L0 0  Z
  " fill="#ffffff" fill-rule="evenodd" fill-opacity="1"/>
<defs>
  <clipPath id="clip6301">
    <rect x="480" y="0" width="1681" height="1600"/>
  </clipPath>
</defs>
<path clip-path="url(#clip6300)" d="
M167.279 1487.47 L2352.76 1487.47 L2352.76 47.2441 L167.279 47.2441  Z
  " fill="#ffffff" fill-rule="evenodd" fill-opacity="1"/>
<defs>
  <clipPath id="clip6302">
    <rect x="167" y="47" width="2186" height="1441"/>
  </clipPath>
</defs>
<polyline clip-path="url(#clip6302)" style="stroke:#000000; stroke-width:2; stroke-opacity:0.1; fill:none" points="
  676.498,1487.47 676.498,47.2441 
  "/>
<polyline clip-path="url(#clip6302)" style="stroke:#000000; stroke-width:2; stroke-opacity:0.1; fill:none" points="
  1195.18,1487.47 1195.18,47.2441 
  "/>
<polyline clip-path="url(#clip6302)" style="stroke:#000000; stroke-width:2; stroke-opacity:0.1; fill:none" points="
  1713.87,1487.47 1713.87,47.2441 
  "/>
<polyline clip-path="url(#clip6302)" style="stroke:#000000; stroke-width:2; stroke-opacity:0.1; fill:none" points="
  2232.55,1487.47 2232.55,47.2441 
  "/>
<polyline clip-path="url(#clip6302)" style="stroke:#000000; stroke-width:2; stroke-opacity:0.1; fill:none" points="
  167.279,1446.71 2352.76,1446.71 
  "/>
<polyline clip-path="url(#clip6302)" style="stroke:#000000; stroke-width:2; stroke-opacity:0.1; fill:none" points="
  167.279,1094.72 2352.76,1094.72 
  "/>
<polyline clip-path="url(#clip6302)" style="stroke:#000000; stroke-width:2; stroke-opacity:0.1; fill:none" points="
  167.279,742.72 2352.76,742.72 
  "/>
<polyline clip-path="url(#clip6302)" style="stroke:#000000; stroke-width:2; stroke-opacity:0.1; fill:none" points="
  167.279,390.723 2352.76,390.723 
  "/>
<polyline clip-path="url(#clip6302)" style="stroke:#000000; stroke-width:2; stroke-opacity:0.05; fill:none" points="
  261.55,1487.47 261.55,47.2441 
  "/>
<polyline clip-path="url(#clip6302)" style="stroke:#000000; stroke-width:2; stroke-opacity:0.05; fill:none" points="
  365.287,1487.47 365.287,47.2441 
  "/>
<polyline clip-path="url(#clip6302)" style="stroke:#000000; stroke-width:2; stroke-opacity:0.05; fill:none" points="
  469.024,1487.47 469.024,47.2441 
  "/>
<polyline clip-path="url(#clip6302)" style="stroke:#000000; stroke-width:2; stroke-opacity:0.05; fill:none" points="
  572.761,1487.47 572.761,47.2441 
  "/>
<polyline clip-path="url(#clip6302)" style="stroke:#000000; stroke-width:2; stroke-opacity:0.05; fill:none" points="
  780.234,1487.47 780.234,47.2441 
  "/>
<polyline clip-path="url(#clip6302)" style="stroke:#000000; stroke-width:2; stroke-opacity:0.05; fill:none" points="
  883.971,1487.47 883.971,47.2441 
  "/>
<polyline clip-path="url(#clip6302)" style="stroke:#000000; stroke-width:2; stroke-opacity:0.05; fill:none" points="
  987.708,1487.47 987.708,47.2441 
  "/>
<polyline clip-path="url(#clip6302)" style="stroke:#000000; stroke-width:2; stroke-opacity:0.05; fill:none" points="
  1091.45,1487.47 1091.45,47.2441 
  "/>
<polyline clip-path="url(#clip6302)" style="stroke:#000000; stroke-width:2; stroke-opacity:0.05; fill:none" points="
  1298.92,1487.47 1298.92,47.2441 
  "/>
<polyline clip-path="url(#clip6302)" style="stroke:#000000; stroke-width:2; stroke-opacity:0.05; fill:none" points="
  1402.66,1487.47 1402.66,47.2441 
  "/>
<polyline clip-path="url(#clip6302)" style="stroke:#000000; stroke-width:2; stroke-opacity:0.05; fill:none" points="
  1506.39,1487.47 1506.39,47.2441 
  "/>
<polyline clip-path="url(#clip6302)" style="stroke:#000000; stroke-width:2; stroke-opacity:0.05; fill:none" points="
  1610.13,1487.47 1610.13,47.2441 
  "/>
<polyline clip-path="url(#clip6302)" style="stroke:#000000; stroke-width:2; stroke-opacity:0.05; fill:none" points="
  1817.6,1487.47 1817.6,47.2441 
  "/>
<polyline clip-path="url(#clip6302)" style="stroke:#000000; stroke-width:2; stroke-opacity:0.05; fill:none" points="
  1921.34,1487.47 1921.34,47.2441 
  "/>
<polyline clip-path="url(#clip6302)" style="stroke:#000000; stroke-width:2; stroke-opacity:0.05; fill:none" points="
  2025.08,1487.47 2025.08,47.2441 
  "/>
<polyline clip-path="url(#clip6302)" style="stroke:#000000; stroke-width:2; stroke-opacity:0.05; fill:none" points="
  2128.81,1487.47 2128.81,47.2441 
  "/>
<polyline clip-path="url(#clip6302)" style="stroke:#000000; stroke-width:2; stroke-opacity:0.05; fill:none" points="
  2336.29,1487.47 2336.29,47.2441 
  "/>
<polyline clip-path="url(#clip6302)" style="stroke:#000000; stroke-width:2; stroke-opacity:0.05; fill:none" points="
  167.279,1376.31 2352.76,1376.31 
  "/>
<polyline clip-path="url(#clip6302)" style="stroke:#000000; stroke-width:2; stroke-opacity:0.05; fill:none" points="
  167.279,1305.91 2352.76,1305.91 
  "/>
<polyline clip-path="url(#clip6302)" style="stroke:#000000; stroke-width:2; stroke-opacity:0.05; fill:none" points="
  167.279,1235.52 2352.76,1235.52 
  "/>
<polyline clip-path="url(#clip6302)" style="stroke:#000000; stroke-width:2; stroke-opacity:0.05; fill:none" points="
  167.279,1165.12 2352.76,1165.12 
  "/>
<polyline clip-path="url(#clip6302)" style="stroke:#000000; stroke-width:2; stroke-opacity:0.05; fill:none" points="
  167.279,1024.32 2352.76,1024.32 
  "/>
<polyline clip-path="url(#clip6302)" style="stroke:#000000; stroke-width:2; stroke-opacity:0.05; fill:none" points="
  167.279,953.918 2352.76,953.918 
  "/>
<polyline clip-path="url(#clip6302)" style="stroke:#000000; stroke-width:2; stroke-opacity:0.05; fill:none" points="
  167.279,883.518 2352.76,883.518 
  "/>
<polyline clip-path="url(#clip6302)" style="stroke:#000000; stroke-width:2; stroke-opacity:0.05; fill:none" points="
  167.279,813.119 2352.76,813.119 
  "/>
<polyline clip-path="url(#clip6302)" style="stroke:#000000; stroke-width:2; stroke-opacity:0.05; fill:none" points="
  167.279,672.32 2352.76,672.32 
  "/>
<polyline clip-path="url(#clip6302)" style="stroke:#000000; stroke-width:2; stroke-opacity:0.05; fill:none" points="
  167.279,601.921 2352.76,601.921 
  "/>
<polyline clip-path="url(#clip6302)" style="stroke:#000000; stroke-width:2; stroke-opacity:0.05; fill:none" points="
  167.279,531.521 2352.76,531.521 
  "/>
<polyline clip-path="url(#clip6302)" style="stroke:#000000; stroke-width:2; stroke-opacity:0.05; fill:none" points="
  167.279,461.122 2352.76,461.122 
  "/>
<polyline clip-path="url(#clip6302)" style="stroke:#000000; stroke-width:2; stroke-opacity:0.05; fill:none" points="
  167.279,320.323 2352.76,320.323 
  "/>
<polyline clip-path="url(#clip6302)" style="stroke:#000000; stroke-width:2; stroke-opacity:0.05; fill:none" points="
  167.279,249.924 2352.76,249.924 
  "/>
<polyline clip-path="url(#clip6302)" style="stroke:#000000; stroke-width:2; stroke-opacity:0.05; fill:none" points="
  167.279,179.525 2352.76,179.525 
  "/>
<polyline clip-path="url(#clip6302)" style="stroke:#000000; stroke-width:2; stroke-opacity:0.05; fill:none" points="
  167.279,109.125 2352.76,109.125 
  "/>
<polyline clip-path="url(#clip6300)" style="stroke:#000000; stroke-width:4; stroke-opacity:0; fill:none" points="
  676.498,1487.47 676.498,1470.19 
  "/>
<polyline clip-path="url(#clip6300)" style="stroke:#000000; stroke-width:4; stroke-opacity:0; fill:none" points="
  1195.18,1487.47 1195.18,1470.19 
  "/>
<polyline clip-path="url(#clip6300)" style="stroke:#000000; stroke-width:4; stroke-opacity:0; fill:none" points="
  1713.87,1487.47 1713.87,1470.19 
  "/>
<polyline clip-path="url(#clip6300)" style="stroke:#000000; stroke-width:4; stroke-opacity:0; fill:none" points="
  2232.55,1487.47 2232.55,1470.19 
  "/>
<polyline clip-path="url(#clip6300)" style="stroke:#000000; stroke-width:4; stroke-opacity:0; fill:none" points="
  261.55,1487.47 261.55,1478.83 
  "/>
<polyline clip-path="url(#clip6300)" style="stroke:#000000; stroke-width:4; stroke-opacity:0; fill:none" points="
  365.287,1487.47 365.287,1478.83 
  "/>
<polyline clip-path="url(#clip6300)" style="stroke:#000000; stroke-width:4; stroke-opacity:0; fill:none" points="
  469.024,1487.47 469.024,1478.83 
  "/>
<polyline clip-path="url(#clip6300)" style="stroke:#000000; stroke-width:4; stroke-opacity:0; fill:none" points="
  572.761,1487.47 572.761,1478.83 
  "/>
<polyline clip-path="url(#clip6300)" style="stroke:#000000; stroke-width:4; stroke-opacity:0; fill:none" points="
  780.234,1487.47 780.234,1478.83 
  "/>
<polyline clip-path="url(#clip6300)" style="stroke:#000000; stroke-width:4; stroke-opacity:0; fill:none" points="
  883.971,1487.47 883.971,1478.83 
  "/>
<polyline clip-path="url(#clip6300)" style="stroke:#000000; stroke-width:4; stroke-opacity:0; fill:none" points="
  987.708,1487.47 987.708,1478.83 
  "/>
<polyline clip-path="url(#clip6300)" style="stroke:#000000; stroke-width:4; stroke-opacity:0; fill:none" points="
  1091.45,1487.47 1091.45,1478.83 
  "/>
<polyline clip-path="url(#clip6300)" style="stroke:#000000; stroke-width:4; stroke-opacity:0; fill:none" points="
  1298.92,1487.47 1298.92,1478.83 
  "/>
<polyline clip-path="url(#clip6300)" style="stroke:#000000; stroke-width:4; stroke-opacity:0; fill:none" points="
  1402.66,1487.47 1402.66,1478.83 
  "/>
<polyline clip-path="url(#clip6300)" style="stroke:#000000; stroke-width:4; stroke-opacity:0; fill:none" points="
  1506.39,1487.47 1506.39,1478.83 
  "/>
<polyline clip-path="url(#clip6300)" style="stroke:#000000; stroke-width:4; stroke-opacity:0; fill:none" points="
  1610.13,1487.47 1610.13,1478.83 
  "/>
<polyline clip-path="url(#clip6300)" style="stroke:#000000; stroke-width:4; stroke-opacity:0; fill:none" points="
  1817.6,1487.47 1817.6,1478.83 
  "/>
<polyline clip-path="url(#clip6300)" style="stroke:#000000; stroke-width:4; stroke-opacity:0; fill:none" points="
  1921.34,1487.47 1921.34,1478.83 
  "/>
<polyline clip-path="url(#clip6300)" style="stroke:#000000; stroke-width:4; stroke-opacity:0; fill:none" points="
  2025.08,1487.47 2025.08,1478.83 
  "/>
<polyline clip-path="url(#clip6300)" style="stroke:#000000; stroke-width:4; stroke-opacity:0; fill:none" points="
  2128.81,1487.47 2128.81,1478.83 
  "/>
<polyline clip-path="url(#clip6300)" style="stroke:#000000; stroke-width:4; stroke-opacity:0; fill:none" points="
  2336.29,1487.47 2336.29,1478.83 
  "/>
<polyline clip-path="url(#clip6300)" style="stroke:#000000; stroke-width:4; stroke-opacity:0; fill:none" points="
  167.279,1446.71 193.505,1446.71 
  "/>
<polyline clip-path="url(#clip6300)" style="stroke:#000000; stroke-width:4; stroke-opacity:0; fill:none" points="
  167.279,1094.72 193.505,1094.72 
  "/>
<polyline clip-path="url(#clip6300)" style="stroke:#000000; stroke-width:4; stroke-opacity:0; fill:none" points="
  167.279,742.72 193.505,742.72 
  "/>
<polyline clip-path="url(#clip6300)" style="stroke:#000000; stroke-width:4; stroke-opacity:0; fill:none" points="
  167.279,390.723 193.505,390.723 
  "/>
<polyline clip-path="url(#clip6300)" style="stroke:#000000; stroke-width:4; stroke-opacity:0; fill:none" points="
  167.279,1376.31 180.392,1376.31 
  "/>
<polyline clip-path="url(#clip6300)" style="stroke:#000000; stroke-width:4; stroke-opacity:0; fill:none" points="
  167.279,1305.91 180.392,1305.91 
  "/>
<polyline clip-path="url(#clip6300)" style="stroke:#000000; stroke-width:4; stroke-opacity:0; fill:none" points="
  167.279,1235.52 180.392,1235.52 
  "/>
<polyline clip-path="url(#clip6300)" style="stroke:#000000; stroke-width:4; stroke-opacity:0; fill:none" points="
  167.279,1165.12 180.392,1165.12 
  "/>
<polyline clip-path="url(#clip6300)" style="stroke:#000000; stroke-width:4; stroke-opacity:0; fill:none" points="
  167.279,1024.32 180.392,1024.32 
  "/>
<polyline clip-path="url(#clip6300)" style="stroke:#000000; stroke-width:4; stroke-opacity:0; fill:none" points="
  167.279,953.918 180.392,953.918 
  "/>
<polyline clip-path="url(#clip6300)" style="stroke:#000000; stroke-width:4; stroke-opacity:0; fill:none" points="
  167.279,883.518 180.392,883.518 
  "/>
<polyline clip-path="url(#clip6300)" style="stroke:#000000; stroke-width:4; stroke-opacity:0; fill:none" points="
  167.279,813.119 180.392,813.119 
  "/>
<polyline clip-path="url(#clip6300)" style="stroke:#000000; stroke-width:4; stroke-opacity:0; fill:none" points="
  167.279,672.32 180.392,672.32 
  "/>
<polyline clip-path="url(#clip6300)" style="stroke:#000000; stroke-width:4; stroke-opacity:0; fill:none" points="
  167.279,601.921 180.392,601.921 
  "/>
<polyline clip-path="url(#clip6300)" style="stroke:#000000; stroke-width:4; stroke-opacity:0; fill:none" points="
  167.279,531.521 180.392,531.521 
  "/>
<polyline clip-path="url(#clip6300)" style="stroke:#000000; stroke-width:4; stroke-opacity:0; fill:none" points="
  167.279,461.122 180.392,461.122 
  "/>
<polyline clip-path="url(#clip6300)" style="stroke:#000000; stroke-width:4; stroke-opacity:0; fill:none" points="
  167.279,320.323 180.392,320.323 
  "/>
<polyline clip-path="url(#clip6300)" style="stroke:#000000; stroke-width:4; stroke-opacity:0; fill:none" points="
  167.279,249.924 180.392,249.924 
  "/>
<polyline clip-path="url(#clip6300)" style="stroke:#000000; stroke-width:4; stroke-opacity:0; fill:none" points="
  167.279,179.525 180.392,179.525 
  "/>
<polyline clip-path="url(#clip6300)" style="stroke:#000000; stroke-width:4; stroke-opacity:0; fill:none" points="
  167.279,109.125 180.392,109.125 
  "/>
<g clip-path="url(#clip6300)">
<text style="fill:#000000; fill-opacity:1; font-family:Arial,Helvetica Neue,Helvetica,sans-serif; font-size:48px; text-anchor:middle;" transform="rotate(0, 676.498, 1541.47)" x="676.498" y="1541.47">-2</text>
</g>
<g clip-path="url(#clip6300)">
<text style="fill:#000000; fill-opacity:1; font-family:Arial,Helvetica Neue,Helvetica,sans-serif; font-size:48px; text-anchor:middle;" transform="rotate(0, 1195.18, 1541.47)" x="1195.18" y="1541.47">0</text>
</g>
<g clip-path="url(#clip6300)">
<text style="fill:#000000; fill-opacity:1; font-family:Arial,Helvetica Neue,Helvetica,sans-serif; font-size:48px; text-anchor:middle;" transform="rotate(0, 1713.87, 1541.47)" x="1713.87" y="1541.47">2</text>
</g>
<g clip-path="url(#clip6300)">
<text style="fill:#000000; fill-opacity:1; font-family:Arial,Helvetica Neue,Helvetica,sans-serif; font-size:48px; text-anchor:middle;" transform="rotate(0, 2232.55, 1541.47)" x="2232.55" y="1541.47">4</text>
</g>
<g clip-path="url(#clip6300)">
<text style="fill:#000000; fill-opacity:1; font-family:Arial,Helvetica Neue,Helvetica,sans-serif; font-size:48px; text-anchor:end;" transform="rotate(0, 143.279, 1464.21)" x="143.279" y="1464.21">0</text>
</g>
<g clip-path="url(#clip6300)">
<text style="fill:#000000; fill-opacity:1; font-family:Arial,Helvetica Neue,Helvetica,sans-serif; font-size:48px; text-anchor:end;" transform="rotate(0, 143.279, 1112.22)" x="143.279" y="1112.22">50</text>
</g>
<g clip-path="url(#clip6300)">
<text style="fill:#000000; fill-opacity:1; font-family:Arial,Helvetica Neue,Helvetica,sans-serif; font-size:48px; text-anchor:end;" transform="rotate(0, 143.279, 760.22)" x="143.279" y="760.22">100</text>
</g>
<g clip-path="url(#clip6300)">
<text style="fill:#000000; fill-opacity:1; font-family:Arial,Helvetica Neue,Helvetica,sans-serif; font-size:48px; text-anchor:end;" transform="rotate(0, 143.279, 408.223)" x="143.279" y="408.223">150</text>
</g>
<path clip-path="url(#clip6302)" d="
M287.484 1432.63 L287.484 1446.71 L417.155 1446.71 L417.155 1432.63 L287.484 1432.63 L287.484 1432.63  Z
  " fill="#4477aa" fill-rule="evenodd" fill-opacity="1"/>
<polyline clip-path="url(#clip6302)" style="stroke:#000000; stroke-width:4.8; stroke-opacity:1; fill:none" points="
  287.484,1432.63 287.484,1446.71 417.155,1446.71 417.155,1432.63 287.484,1432.63 
  "/>
<path clip-path="url(#clip6302)" d="
M417.155 1418.55 L417.155 1446.71 L546.826 1446.71 L546.826 1418.55 L417.155 1418.55 L417.155 1418.55  Z
  " fill="#4477aa" fill-rule="evenodd" fill-opacity="1"/>
<polyline clip-path="url(#clip6302)" style="stroke:#000000; stroke-width:4.8; stroke-opacity:1; fill:none" points="
  417.155,1418.55 417.155,1446.71 546.826,1446.71 546.826,1418.55 417.155,1418.55 
  "/>
<path clip-path="url(#clip6302)" d="
M546.826 1319.99 L546.826 1446.71 L676.498 1446.71 L676.498 1319.99 L546.826 1319.99 L546.826 1319.99  Z
  " fill="#4477aa" fill-rule="evenodd" fill-opacity="1"/>
<polyline clip-path="url(#clip6302)" style="stroke:#000000; stroke-width:4.8; stroke-opacity:1; fill:none" points="
  546.826,1319.99 546.826,1446.71 676.498,1446.71 676.498,1319.99 546.826,1319.99 
  "/>
<path clip-path="url(#clip6302)" d="
M676.498 1151.04 L676.498 1446.71 L806.169 1446.71 L806.169 1151.04 L676.498 1151.04 L676.498 1151.04  Z
  " fill="#4477aa" fill-rule="evenodd" fill-opacity="1"/>
<polyline clip-path="url(#clip6302)" style="stroke:#000000; stroke-width:4.8; stroke-opacity:1; fill:none" points="
  676.498,1151.04 676.498,1446.71 806.169,1446.71 806.169,1151.04 676.498,1151.04 
  "/>
<path clip-path="url(#clip6302)" d="
M806.169 756.8 L806.169 1446.71 L935.84 1446.71 L935.84 756.8 L806.169 756.8 L806.169 756.8  Z
  " fill="#4477aa" fill-rule="evenodd" fill-opacity="1"/>
<polyline clip-path="url(#clip6302)" style="stroke:#000000; stroke-width:4.8; stroke-opacity:1; fill:none" points="
  806.169,756.8 806.169,1446.71 935.84,1446.71 935.84,756.8 806.169,756.8 
  "/>
<path clip-path="url(#clip6302)" d="
M935.84 292.164 L935.84 1446.71 L1065.51 1446.71 L1065.51 292.164 L935.84 292.164 L935.84 292.164  Z
  " fill="#4477aa" fill-rule="evenodd" fill-opacity="1"/>
<polyline clip-path="url(#clip6302)" style="stroke:#000000; stroke-width:4.8; stroke-opacity:1; fill:none" points="
  935.84,292.164 935.84,1446.71 1065.51,1446.71 1065.51,292.164 935.84,292.164 
  "/>
<path clip-path="url(#clip6302)" d="
M1065.51 165.445 L1065.51 1446.71 L1195.18 1446.71 L1195.18 165.445 L1065.51 165.445 L1065.51 165.445  Z
  " fill="#4477aa" fill-rule="evenodd" fill-opacity="1"/>
<polyline clip-path="url(#clip6302)" style="stroke:#000000; stroke-width:4.8; stroke-opacity:1; fill:none" points="
  1065.51,165.445 1065.51,1446.71 1195.18,1446.71 1195.18,165.445 1065.51,165.445 
  "/>
<path clip-path="url(#clip6302)" d="
M1195.18 88.0053 L1195.18 1446.71 L1324.85 1446.71 L1324.85 88.0053 L1195.18 88.0053 L1195.18 88.0053  Z
  " fill="#4477aa" fill-rule="evenodd" fill-opacity="1"/>
<polyline clip-path="url(#clip6302)" style="stroke:#000000; stroke-width:4.8; stroke-opacity:1; fill:none" points="
  1195.18,88.0053 1195.18,1446.71 1324.85,1446.71 1324.85,88.0053 1195.18,88.0053 
  "/>
<path clip-path="url(#clip6302)" d="
M1324.85 418.882 L1324.85 1446.71 L1454.52 1446.71 L1454.52 418.882 L1324.85 418.882 L1324.85 418.882  Z
  " fill="#4477aa" fill-rule="evenodd" fill-opacity="1"/>
<polyline clip-path="url(#clip6302)" style="stroke:#000000; stroke-width:4.8; stroke-opacity:1; fill:none" points="
  1324.85,418.882 1324.85,1446.71 1454.52,1446.71 1454.52,418.882 1324.85,418.882 
  "/>
<path clip-path="url(#clip6302)" d="
M1454.52 932.798 L1454.52 1446.71 L1584.2 1446.71 L1584.2 932.798 L1454.52 932.798 L1454.52 932.798  Z
  " fill="#4477aa" fill-rule="evenodd" fill-opacity="1"/>
<polyline clip-path="url(#clip6302)" style="stroke:#000000; stroke-width:4.8; stroke-opacity:1; fill:none" points="
  1454.52,932.798 1454.52,1446.71 1584.2,1446.71 1584.2,932.798 1454.52,932.798 
  "/>
<path clip-path="url(#clip6302)" d="
M1584.2 1066.56 L1584.2 1446.71 L1713.87 1446.71 L1713.87 1066.56 L1584.2 1066.56 L1584.2 1066.56  Z
  " fill="#4477aa" fill-rule="evenodd" fill-opacity="1"/>
<polyline clip-path="url(#clip6302)" style="stroke:#000000; stroke-width:4.8; stroke-opacity:1; fill:none" points="
  1584.2,1066.56 1584.2,1446.71 1713.87,1446.71 1713.87,1066.56 1584.2,1066.56 
  "/>
<path clip-path="url(#clip6302)" d="
M1713.87 1312.95 L1713.87 1446.71 L1843.54 1446.71 L1843.54 1312.95 L1713.87 1312.95 L1713.87 1312.95  Z
  " fill="#4477aa" fill-rule="evenodd" fill-opacity="1"/>
<polyline clip-path="url(#clip6302)" style="stroke:#000000; stroke-width:4.8; stroke-opacity:1; fill:none" points="
  1713.87,1312.95 1713.87,1446.71 1843.54,1446.71 1843.54,1312.95 1713.87,1312.95 
  "/>
<path clip-path="url(#clip6302)" d="
M1843.54 1418.55 L1843.54 1446.71 L1973.21 1446.71 L1973.21 1418.55 L1843.54 1418.55 L1843.54 1418.55  Z
  " fill="#4477aa" fill-rule="evenodd" fill-opacity="1"/>
<polyline clip-path="url(#clip6302)" style="stroke:#000000; stroke-width:4.8; stroke-opacity:1; fill:none" points="
  1843.54,1418.55 1843.54,1446.71 1973.21,1446.71 1973.21,1418.55 1843.54,1418.55 
  "/>
<path clip-path="url(#clip6302)" d="
M1973.21 1446.71 L1973.21 1446.71 L2102.88 1446.71 L2102.88 1446.71 L1973.21 1446.71 L1973.21 1446.71  Z
  " fill="#4477aa" fill-rule="evenodd" fill-opacity="1"/>
<polyline clip-path="url(#clip6302)" style="stroke:#000000; stroke-width:4.8; stroke-opacity:1; fill:none" points="
  1973.21,1446.71 1973.21,1446.71 2102.88,1446.71 1973.21,1446.71 
  "/>
<path clip-path="url(#clip6302)" d="
M2102.88 1439.67 L2102.88 1446.71 L2232.55 1446.71 L2232.55 1439.67 L2102.88 1439.67 L2102.88 1439.67  Z
  " fill="#4477aa" fill-rule="evenodd" fill-opacity="1"/>
<polyline clip-path="url(#clip6302)" style="stroke:#000000; stroke-width:4.8; stroke-opacity:1; fill:none" points="
  2102.88,1439.67 2102.88,1446.71 2232.55,1446.71 2232.55,1439.67 2102.88,1439.67 
  "/>
<path clip-path="url(#clip6300)" d="
M239.279 251.724 L530.108 251.724 L530.108 130.764 L239.279 130.764  Z
  " fill="#ffffff" fill-rule="evenodd" fill-opacity="0.9"/>
<polyline clip-path="url(#clip6300)" style="stroke:#222255; stroke-width:4; stroke-opacity:0.1; fill:none" points="
  239.279,251.724 530.108,251.724 530.108,130.764 239.279,130.764 239.279,251.724 
  "/>
<path clip-path="url(#clip6300)" d="
M263.279 215.436 L407.279 215.436 L407.279 167.052 L263.279 167.052 L263.279 215.436  Z
  " fill="#4477aa" fill-rule="evenodd" fill-opacity="1"/>
<polyline clip-path="url(#clip6300)" style="stroke:#000000; stroke-width:4.8; stroke-opacity:1; fill:none" points="
  263.279,215.436 407.279,215.436 407.279,167.052 263.279,167.052 263.279,215.436 
  "/>
<g clip-path="url(#clip6300)">
<text style="fill:#000000; fill-opacity:1; font-family:Arial,Helvetica Neue,Helvetica,sans-serif; font-size:48px; text-anchor:start;" transform="rotate(0, 431.279, 208.744)" x="431.279" y="208.744">y1</text>
</g>
</svg>
