<?xml version="1.0" encoding="utf-8"?>
<svg xmlns="http://www.w3.org/2000/svg" xmlns:xlink="http://www.w3.org/1999/xlink" width="600" height="400" viewBox="0 0 2400 1600">
<defs>
  <clipPath id="clip2300">
    <rect x="0" y="0" width="2400" height="1600"/>
  </clipPath>
</defs>
<path clip-path="url(#clip2300)" d="
M0 1600 L2400 1600 L2400 0 L0 0  Z
  " fill="#ffffff" fill-rule="evenodd" fill-opacity="1"/>
<defs>
  <clipPath id="clip2301">
    <rect x="480" y="0" width="1681" height="1600"/>
  </clipPath>
</defs>
<path clip-path="url(#clip2300)" d="
M153.898 1487.47 L2352.76 1487.47 L2352.76 47.2441 L153.898 47.2441  Z
  " fill="#ffffff" fill-rule="evenodd" fill-opacity="1"/>
<defs>
  <clipPath id="clip2302">
    <rect x="153" y="47" width="2200" height="1441"/>
  </clipPath>
</defs>
<polyline clip-path="url(#clip2302)" style="stroke:#000000; stroke-width:2; stroke-opacity:0.1; fill:none" points="
  446.618,1487.47 446.618,47.2441 
  "/>
<polyline clip-path="url(#clip2302)" style="stroke:#000000; stroke-width:2; stroke-opacity:0.1; fill:none" points="
  907.595,1487.47 907.595,47.2441 
  "/>
<polyline clip-path="url(#clip2302)" style="stroke:#000000; stroke-width:2; stroke-opacity:0.1; fill:none" points="
  1368.57,1487.47 1368.57,47.2441 
  "/>
<polyline clip-path="url(#clip2302)" style="stroke:#000000; stroke-width:2; stroke-opacity:0.1; fill:none" points="
  1829.55,1487.47 1829.55,47.2441 
  "/>
<polyline clip-path="url(#clip2302)" style="stroke:#000000; stroke-width:2; stroke-opacity:0.1; fill:none" points="
  2290.52,1487.47 2290.52,47.2441 
  "/>
<polyline clip-path="url(#clip2302)" style="stroke:#000000; stroke-width:2; stroke-opacity:0.1; fill:none" points="
  153.898,1352.32 2352.76,1352.32 
  "/>
<polyline clip-path="url(#clip2302)" style="stroke:#000000; stroke-width:2; stroke-opacity:0.1; fill:none" points="
  153.898,1088.43 2352.76,1088.43 
  "/>
<polyline clip-path="url(#clip2302)" style="stroke:#000000; stroke-width:2; stroke-opacity:0.1; fill:none" points="
  153.898,824.541 2352.76,824.541 
  "/>
<polyline clip-path="url(#clip2302)" style="stroke:#000000; stroke-width:2; stroke-opacity:0.1; fill:none" points="
  153.898,560.649 2352.76,560.649 
  "/>
<polyline clip-path="url(#clip2302)" style="stroke:#000000; stroke-width:2; stroke-opacity:0.1; fill:none" points="
  153.898,296.757 2352.76,296.757 
  "/>
<polyline clip-path="url(#clip2302)" style="stroke:#000000; stroke-width:2; stroke-opacity:0.05; fill:none" points="
  170.032,1487.47 170.032,47.2441 
  "/>
<polyline clip-path="url(#clip2302)" style="stroke:#000000; stroke-width:2; stroke-opacity:0.05; fill:none" points="
  262.227,1487.47 262.227,47.2441 
  "/>
<polyline clip-path="url(#clip2302)" style="stroke:#000000; stroke-width:2; stroke-opacity:0.05; fill:none" points="
  354.423,1487.47 354.423,47.2441 
  "/>
<polyline clip-path="url(#clip2302)" style="stroke:#000000; stroke-width:2; stroke-opacity:0.05; fill:none" points="
  538.813,1487.47 538.813,47.2441 
  "/>
<polyline clip-path="url(#clip2302)" style="stroke:#000000; stroke-width:2; stroke-opacity:0.05; fill:none" points="
  631.009,1487.47 631.009,47.2441 
  "/>
<polyline clip-path="url(#clip2302)" style="stroke:#000000; stroke-width:2; stroke-opacity:0.05; fill:none" points="
  723.204,1487.47 723.204,47.2441 
  "/>
<polyline clip-path="url(#clip2302)" style="stroke:#000000; stroke-width:2; stroke-opacity:0.05; fill:none" points="
  815.399,1487.47 815.399,47.2441 
  "/>
<polyline clip-path="url(#clip2302)" style="stroke:#000000; stroke-width:2; stroke-opacity:0.05; fill:none" points="
  999.79,1487.47 999.79,47.2441 
  "/>
<polyline clip-path="url(#clip2302)" style="stroke:#000000; stroke-width:2; stroke-opacity:0.05; fill:none" points="
  1091.99,1487.47 1091.99,47.2441 
  "/>
<polyline clip-path="url(#clip2302)" style="stroke:#000000; stroke-width:2; stroke-opacity:0.05; fill:none" points="
  1184.18,1487.47 1184.18,47.2441 
  "/>
<polyline clip-path="url(#clip2302)" style="stroke:#000000; stroke-width:2; stroke-opacity:0.05; fill:none" points="
  1276.38,1487.47 1276.38,47.2441 
  "/>
<polyline clip-path="url(#clip2302)" style="stroke:#000000; stroke-width:2; stroke-opacity:0.05; fill:none" points="
  1460.77,1487.47 1460.77,47.2441 
  "/>
<polyline clip-path="url(#clip2302)" style="stroke:#000000; stroke-width:2; stroke-opacity:0.05; fill:none" points="
  1552.96,1487.47 1552.96,47.2441 
  "/>
<polyline clip-path="url(#clip2302)" style="stroke:#000000; stroke-width:2; stroke-opacity:0.05; fill:none" points="
  1645.16,1487.47 1645.16,47.2441 
  "/>
<polyline clip-path="url(#clip2302)" style="stroke:#000000; stroke-width:2; stroke-opacity:0.05; fill:none" points="
  1737.35,1487.47 1737.35,47.2441 
  "/>
<polyline clip-path="url(#clip2302)" style="stroke:#000000; stroke-width:2; stroke-opacity:0.05; fill:none" points="
  1921.74,1487.47 1921.74,47.2441 
  "/>
<polyline clip-path="url(#clip2302)" style="stroke:#000000; stroke-width:2; stroke-opacity:0.05; fill:none" points="
  2013.94,1487.47 2013.94,47.2441 
  "/>
<polyline clip-path="url(#clip2302)" style="stroke:#000000; stroke-width:2; stroke-opacity:0.05; fill:none" points="
  2106.13,1487.47 2106.13,47.2441 
  "/>
<polyline clip-path="url(#clip2302)" style="stroke:#000000; stroke-width:2; stroke-opacity:0.05; fill:none" points="
  2198.33,1487.47 2198.33,47.2441 
  "/>
<polyline clip-path="url(#clip2302)" style="stroke:#000000; stroke-width:2; stroke-opacity:0.05; fill:none" points="
  153.898,1457.88 2352.76,1457.88 
  "/>
<polyline clip-path="url(#clip2302)" style="stroke:#000000; stroke-width:2; stroke-opacity:0.05; fill:none" points="
  153.898,1405.1 2352.76,1405.1 
  "/>
<polyline clip-path="url(#clip2302)" style="stroke:#000000; stroke-width:2; stroke-opacity:0.05; fill:none" points="
  153.898,1299.55 2352.76,1299.55 
  "/>
<polyline clip-path="url(#clip2302)" style="stroke:#000000; stroke-width:2; stroke-opacity:0.05; fill:none" points="
  153.898,1246.77 2352.76,1246.77 
  "/>
<polyline clip-path="url(#clip2302)" style="stroke:#000000; stroke-width:2; stroke-opacity:0.05; fill:none" points="
  153.898,1193.99 2352.76,1193.99 
  "/>
<polyline clip-path="url(#clip2302)" style="stroke:#000000; stroke-width:2; stroke-opacity:0.05; fill:none" points="
  153.898,1141.21 2352.76,1141.21 
  "/>
<polyline clip-path="url(#clip2302)" style="stroke:#000000; stroke-width:2; stroke-opacity:0.05; fill:none" points="
  153.898,1035.65 2352.76,1035.65 
  "/>
<polyline clip-path="url(#clip2302)" style="stroke:#000000; stroke-width:2; stroke-opacity:0.05; fill:none" points="
  153.898,982.876 2352.76,982.876 
  "/>
<polyline clip-path="url(#clip2302)" style="stroke:#000000; stroke-width:2; stroke-opacity:0.05; fill:none" points="
  153.898,930.098 2352.76,930.098 
  "/>
<polyline clip-path="url(#clip2302)" style="stroke:#000000; stroke-width:2; stroke-opacity:0.05; fill:none" points="
  153.898,877.319 2352.76,877.319 
  "/>
<polyline clip-path="url(#clip2302)" style="stroke:#000000; stroke-width:2; stroke-opacity:0.05; fill:none" points="
  153.898,771.762 2352.76,771.762 
  "/>
<polyline clip-path="url(#clip2302)" style="stroke:#000000; stroke-width:2; stroke-opacity:0.05; fill:none" points="
  153.898,718.984 2352.76,718.984 
  "/>
<polyline clip-path="url(#clip2302)" style="stroke:#000000; stroke-width:2; stroke-opacity:0.05; fill:none" points="
  153.898,666.205 2352.76,666.205 
  "/>
<polyline clip-path="url(#clip2302)" style="stroke:#000000; stroke-width:2; stroke-opacity:0.05; fill:none" points="
  153.898,613.427 2352.76,613.427 
  "/>
<polyline clip-path="url(#clip2302)" style="stroke:#000000; stroke-width:2; stroke-opacity:0.05; fill:none" points="
  153.898,507.87 2352.76,507.87 
  "/>
<polyline clip-path="url(#clip2302)" style="stroke:#000000; stroke-width:2; stroke-opacity:0.05; fill:none" points="
  153.898,455.092 2352.76,455.092 
  "/>
<polyline clip-path="url(#clip2302)" style="stroke:#000000; stroke-width:2; stroke-opacity:0.05; fill:none" points="
  153.898,402.313 2352.76,402.313 
  "/>
<polyline clip-path="url(#clip2302)" style="stroke:#000000; stroke-width:2; stroke-opacity:0.05; fill:none" points="
  153.898,349.535 2352.76,349.535 
  "/>
<polyline clip-path="url(#clip2302)" style="stroke:#000000; stroke-width:2; stroke-opacity:0.05; fill:none" points="
  153.898,243.978 2352.76,243.978 
  "/>
<polyline clip-path="url(#clip2302)" style="stroke:#000000; stroke-width:2; stroke-opacity:0.05; fill:none" points="
  153.898,191.2 2352.76,191.2 
  "/>
<polyline clip-path="url(#clip2302)" style="stroke:#000000; stroke-width:2; stroke-opacity:0.05; fill:none" points="
  153.898,138.421 2352.76,138.421 
  "/>
<polyline clip-path="url(#clip2302)" style="stroke:#000000; stroke-width:2; stroke-opacity:0.05; fill:none" points="
  153.898,85.643 2352.76,85.643 
  "/>
<polyline clip-path="url(#clip2300)" style="stroke:#000000; stroke-width:4; stroke-opacity:0; fill:none" points="
  446.618,1487.47 446.618,1470.19 
  "/>
<polyline clip-path="url(#clip2300)" style="stroke:#000000; stroke-width:4; stroke-opacity:0; fill:none" points="
  907.595,1487.47 907.595,1470.19 
  "/>
<polyline clip-path="url(#clip2300)" style="stroke:#000000; stroke-width:4; stroke-opacity:0; fill:none" points="
  1368.57,1487.47 1368.57,1470.19 
  "/>
<polyline clip-path="url(#clip2300)" style="stroke:#000000; stroke-width:4; stroke-opacity:0; fill:none" points="
  1829.55,1487.47 1829.55,1470.19 
  "/>
<polyline clip-path="url(#clip2300)" style="stroke:#000000; stroke-width:4; stroke-opacity:0; fill:none" points="
  2290.52,1487.47 2290.52,1470.19 
  "/>
<polyline clip-path="url(#clip2300)" style="stroke:#000000; stroke-width:4; stroke-opacity:0; fill:none" points="
  170.032,1487.47 170.032,1478.83 
  "/>
<polyline clip-path="url(#clip2300)" style="stroke:#000000; stroke-width:4; stroke-opacity:0; fill:none" points="
  262.227,1487.47 262.227,1478.83 
  "/>
<polyline clip-path="url(#clip2300)" style="stroke:#000000; stroke-width:4; stroke-opacity:0; fill:none" points="
  354.423,1487.47 354.423,1478.83 
  "/>
<polyline clip-path="url(#clip2300)" style="stroke:#000000; stroke-width:4; stroke-opacity:0; fill:none" points="
  538.813,1487.47 538.813,1478.83 
  "/>
<polyline clip-path="url(#clip2300)" style="stroke:#000000; stroke-width:4; stroke-opacity:0; fill:none" points="
  631.009,1487.47 631.009,1478.83 
  "/>
<polyline clip-path="url(#clip2300)" style="stroke:#000000; stroke-width:4; stroke-opacity:0; fill:none" points="
  723.204,1487.47 723.204,1478.83 
  "/>
<polyline clip-path="url(#clip2300)" style="stroke:#000000; stroke-width:4; stroke-opacity:0; fill:none" points="
  815.399,1487.47 815.399,1478.83 
  "/>
<polyline clip-path="url(#clip2300)" style="stroke:#000000; stroke-width:4; stroke-opacity:0; fill:none" points="
  999.79,1487.47 999.79,1478.83 
  "/>
<polyline clip-path="url(#clip2300)" style="stroke:#000000; stroke-width:4; stroke-opacity:0; fill:none" points="
  1091.99,1487.47 1091.99,1478.83 
  "/>
<polyline clip-path="url(#clip2300)" style="stroke:#000000; stroke-width:4; stroke-opacity:0; fill:none" points="
  1184.18,1487.47 1184.18,1478.83 
  "/>
<polyline clip-path="url(#clip2300)" style="stroke:#000000; stroke-width:4; stroke-opacity:0; fill:none" points="
  1276.38,1487.47 1276.38,1478.83 
  "/>
<polyline clip-path="url(#clip2300)" style="stroke:#000000; stroke-width:4; stroke-opacity:0; fill:none" points="
  1460.77,1487.47 1460.77,1478.83 
  "/>
<polyline clip-path="url(#clip2300)" style="stroke:#000000; stroke-width:4; stroke-opacity:0; fill:none" points="
  1552.96,1487.47 1552.96,1478.83 
  "/>
<polyline clip-path="url(#clip2300)" style="stroke:#000000; stroke-width:4; stroke-opacity:0; fill:none" points="
  1645.16,1487.47 1645.16,1478.83 
  "/>
<polyline clip-path="url(#clip2300)" style="stroke:#000000; stroke-width:4; stroke-opacity:0; fill:none" points="
  1737.35,1487.47 1737.35,1478.83 
  "/>
<polyline clip-path="url(#clip2300)" style="stroke:#000000; stroke-width:4; stroke-opacity:0; fill:none" points="
  1921.74,1487.47 1921.74,1478.83 
  "/>
<polyline clip-path="url(#clip2300)" style="stroke:#000000; stroke-width:4; stroke-opacity:0; fill:none" points="
  2013.94,1487.47 2013.94,1478.83 
  "/>
<polyline clip-path="url(#clip2300)" style="stroke:#000000; stroke-width:4; stroke-opacity:0; fill:none" points="
  2106.13,1487.47 2106.13,1478.83 
  "/>
<polyline clip-path="url(#clip2300)" style="stroke:#000000; stroke-width:4; stroke-opacity:0; fill:none" points="
  2198.33,1487.47 2198.33,1478.83 
  "/>
<polyline clip-path="url(#clip2300)" style="stroke:#000000; stroke-width:4; stroke-opacity:0; fill:none" points="
  153.898,1352.32 180.284,1352.32 
  "/>
<polyline clip-path="url(#clip2300)" style="stroke:#000000; stroke-width:4; stroke-opacity:0; fill:none" points="
  153.898,1088.43 180.284,1088.43 
  "/>
<polyline clip-path="url(#clip2300)" style="stroke:#000000; stroke-width:4; stroke-opacity:0; fill:none" points="
  153.898,824.541 180.284,824.541 
  "/>
<polyline clip-path="url(#clip2300)" style="stroke:#000000; stroke-width:4; stroke-opacity:0; fill:none" points="
  153.898,560.649 180.284,560.649 
  "/>
<polyline clip-path="url(#clip2300)" style="stroke:#000000; stroke-width:4; stroke-opacity:0; fill:none" points="
  153.898,296.757 180.284,296.757 
  "/>
<polyline clip-path="url(#clip2300)" style="stroke:#000000; stroke-width:4; stroke-opacity:0; fill:none" points="
  153.898,1457.88 167.091,1457.88 
  "/>
<polyline clip-path="url(#clip2300)" style="stroke:#000000; stroke-width:4; stroke-opacity:0; fill:none" points="
  153.898,1405.1 167.091,1405.1 
  "/>
<polyline clip-path="url(#clip2300)" style="stroke:#000000; stroke-width:4; stroke-opacity:0; fill:none" points="
  153.898,1299.55 167.091,1299.55 
  "/>
<polyline clip-path="url(#clip2300)" style="stroke:#000000; stroke-width:4; stroke-opacity:0; fill:none" points="
  153.898,1246.77 167.091,1246.77 
  "/>
<polyline clip-path="url(#clip2300)" style="stroke:#000000; stroke-width:4; stroke-opacity:0; fill:none" points="
  153.898,1193.99 167.091,1193.99 
  "/>
<polyline clip-path="url(#clip2300)" style="stroke:#000000; stroke-width:4; stroke-opacity:0; fill:none" points="
  153.898,1141.21 167.091,1141.21 
  "/>
<polyline clip-path="url(#clip2300)" style="stroke:#000000; stroke-width:4; stroke-opacity:0; fill:none" points="
  153.898,1035.65 167.091,1035.65 
  "/>
<polyline clip-path="url(#clip2300)" style="stroke:#000000; stroke-width:4; stroke-opacity:0; fill:none" points="
  153.898,982.876 167.091,982.876 
  "/>
<polyline clip-path="url(#clip2300)" style="stroke:#000000; stroke-width:4; stroke-opacity:0; fill:none" points="
  153.898,930.098 167.091,930.098 
  "/>
<polyline clip-path="url(#clip2300)" style="stroke:#000000; stroke-width:4; stroke-opacity:0; fill:none" points="
  153.898,877.319 167.091,877.319 
  "/>
<polyline clip-path="url(#clip2300)" style="stroke:#000000; stroke-width:4; stroke-opacity:0; fill:none" points="
  153.898,771.762 167.091,771.762 
  "/>
<polyline clip-path="url(#clip2300)" style="stroke:#000000; stroke-width:4; stroke-opacity:0; fill:none" points="
  153.898,718.984 167.091,718.984 
  "/>
<polyline clip-path="url(#clip2300)" style="stroke:#000000; stroke-width:4; stroke-opacity:0; fill:none" points="
  153.898,666.205 167.091,666.205 
  "/>
<polyline clip-path="url(#clip2300)" style="stroke:#000000; stroke-width:4; stroke-opacity:0; fill:none" points="
  153.898,613.427 167.091,613.427 
  "/>
<polyline clip-path="url(#clip2300)" style="stroke:#000000; stroke-width:4; stroke-opacity:0; fill:none" points="
  153.898,507.87 167.091,507.87 
  "/>
<polyline clip-path="url(#clip2300)" style="stroke:#000000; stroke-width:4; stroke-opacity:0; fill:none" points="
  153.898,455.092 167.091,455.092 
  "/>
<polyline clip-path="url(#clip2300)" style="stroke:#000000; stroke-width:4; stroke-opacity:0; fill:none" points="
  153.898,402.313 167.091,402.313 
  "/>
<polyline clip-path="url(#clip2300)" style="stroke:#000000; stroke-width:4; stroke-opacity:0; fill:none" points="
  153.898,349.535 167.091,349.535 
  "/>
<polyline clip-path="url(#clip2300)" style="stroke:#000000; stroke-width:4; stroke-opacity:0; fill:none" points="
  153.898,243.978 167.091,243.978 
  "/>
<polyline clip-path="url(#clip2300)" style="stroke:#000000; stroke-width:4; stroke-opacity:0; fill:none" points="
  153.898,191.2 167.091,191.2 
  "/>
<polyline clip-path="url(#clip2300)" style="stroke:#000000; stroke-width:4; stroke-opacity:0; fill:none" points="
  153.898,138.421 167.091,138.421 
  "/>
<polyline clip-path="url(#clip2300)" style="stroke:#000000; stroke-width:4; stroke-opacity:0; fill:none" points="
  153.898,85.643 167.091,85.643 
  "/>
<g clip-path="url(#clip2300)">
<text style="fill:#000000; fill-opacity:1; font-family:Arial,Helvetica Neue,Helvetica,sans-serif; font-size:48px; text-anchor:middle;" transform="rotate(0, 446.618, 1541.47)" x="446.618" y="1541.47">2</text>
</g>
<g clip-path="url(#clip2300)">
<text style="fill:#000000; fill-opacity:1; font-family:Arial,Helvetica Neue,Helvetica,sans-serif; font-size:48px; text-anchor:middle;" transform="rotate(0, 907.595, 1541.47)" x="907.595" y="1541.47">4</text>
</g>
<g clip-path="url(#clip2300)">
<text style="fill:#000000; fill-opacity:1; font-family:Arial,Helvetica Neue,Helvetica,sans-serif; font-size:48px; text-anchor:middle;" transform="rotate(0, 1368.57, 1541.47)" x="1368.57" y="1541.47">6</text>
</g>
<g clip-path="url(#clip2300)">
<text style="fill:#000000; fill-opacity:1; font-family:Arial,Helvetica Neue,Helvetica,sans-serif; font-size:48px; text-anchor:middle;" transform="rotate(0, 1829.55, 1541.47)" x="1829.55" y="1541.47">8</text>
</g>
<g clip-path="url(#clip2300)">
<text style="fill:#000000; fill-opacity:1; font-family:Arial,Helvetica Neue,Helvetica,sans-serif; font-size:48px; text-anchor:middle;" transform="rotate(0, 2290.52, 1541.47)" x="2290.52" y="1541.47">10</text>
</g>
<g clip-path="url(#clip2300)">
<text style="fill:#000000; fill-opacity:1; font-family:Arial,Helvetica Neue,Helvetica,sans-serif; font-size:48px; text-anchor:end;" transform="rotate(0, 129.898, 1369.82)" x="129.898" y="1369.82">1.0</text>
</g>
<g clip-path="url(#clip2300)">
<text style="fill:#000000; fill-opacity:1; font-family:Arial,Helvetica Neue,Helvetica,sans-serif; font-size:48px; text-anchor:end;" transform="rotate(0, 129.898, 1105.93)" x="129.898" y="1105.93">1.5</text>
</g>
<g clip-path="url(#clip2300)">
<text style="fill:#000000; fill-opacity:1; font-family:Arial,Helvetica Neue,Helvetica,sans-serif; font-size:48px; text-anchor:end;" transform="rotate(0, 129.898, 842.041)" x="129.898" y="842.041">2.0</text>
</g>
<g clip-path="url(#clip2300)">
<text style="fill:#000000; fill-opacity:1; font-family:Arial,Helvetica Neue,Helvetica,sans-serif; font-size:48px; text-anchor:end;" transform="rotate(0, 129.898, 578.149)" x="129.898" y="578.149">2.5</text>
</g>
<g clip-path="url(#clip2300)">
<text style="fill:#000000; fill-opacity:1; font-family:Arial,Helvetica Neue,Helvetica,sans-serif; font-size:48px; text-anchor:end;" transform="rotate(0, 129.898, 314.257)" x="129.898" y="314.257">3.0</text>
</g>
<polyline clip-path="url(#clip2302)" style="stroke:#4477aa; stroke-width:4.8; stroke-opacity:1; fill:none" points="
  216.13,1446.71 446.618,1428.68 677.106,1378.79 907.595,1212.57 1138.08,1145.12 1368.57,947.626 1599.06,456.199 1829.55,224.534 2060.04,94.2435 2290.52,88.0053 
  
  "/>
<path clip-path="url(#clip2300)" d="
M225.898 251.724 L516.727 251.724 L516.727 130.764 L225.898 130.764  Z
  " fill="#ffffff" fill-rule="evenodd" fill-opacity="0.9"/>
<polyline clip-path="url(#clip2300)" style="stroke:#222255; stroke-width:4; stroke-opacity:0.1; fill:none" points="
  225.898,251.724 516.727,251.724 516.727,130.764 225.898,130.764 225.898,251.724 
  "/>
<polyline clip-path="url(#clip2300)" style="stroke:#4477aa; stroke-width:4.8; stroke-opacity:1; fill:none" points="
  249.898,191.244 393.898,191.244 
  "/>
<g clip-path="url(#clip2300)">
<text style="fill:#000000; fill-opacity:1; font-family:Arial,Helvetica Neue,Helvetica,sans-serif; font-size:48px; text-anchor:start;" transform="rotate(0, 417.898, 208.744)" x="417.898" y="208.744">y1</text>
</g>
</svg>
