<?xml version="1.0" encoding="utf-8"?>
<svg xmlns="http://www.w3.org/2000/svg" xmlns:xlink="http://www.w3.org/1999/xlink" width="600" height="400" viewBox="0 0 2400 1600">
<defs>
  <clipPath id="clip1500">
    <rect x="0" y="0" width="2400" height="1600"/>
  </clipPath>
</defs>
<path clip-path="url(#clip1500)" d="
M0 1600 L2400 1600 L2400 0 L0 0  Z
  " fill="#ffffff" fill-rule="evenodd" fill-opacity="1"/>
<defs>
  <clipPath id="clip1501">
    <rect x="480" y="0" width="1681" height="1600"/>
  </clipPath>
</defs>
<path clip-path="url(#clip1500)" d="
M182.008 1487.47 L2352.76 1487.47 L2352.76 47.2441 L182.008 47.2441  Z
  " fill="#ffffff" fill-rule="evenodd" fill-opacity="1"/>
<defs>
  <clipPath id="clip1502">
    <rect x="182" y="47" width="2172" height="1441"/>
  </clipPath>
</defs>
<path clip-path="url(#clip1502)" d="
M1267.34 767.384 L1946.72 767.384 L1946.34 744.707 L1945.21 722.056 L1943.32 699.456 L1940.67 676.931 L1937.28 654.507 L1933.14 632.208 L1928.26 610.061 L1922.64 588.088 
  L1916.29 566.316 L1909.21 544.767 L1901.43 523.467 L1892.93 502.439 L1883.74 481.705 L1873.86 461.29 L1863.31 441.217 L1852.09 421.506 L1840.22 402.181 L1827.71 383.264 
  L1814.57 364.774 L1800.83 346.733 L1786.49 329.16 L1771.58 312.076 L1756.1 295.5 L1740.08 279.449 L1723.53 263.942 L1706.47 248.996 L1688.92 234.628 L1670.9 220.853 
  L1652.44 207.687 L1633.54 195.146 L1614.24 183.242 L1594.55 171.989 L1574.49 161.399 L1554.09 151.485 L1533.38 142.257 L1512.36 133.725 L1491.07 125.9 L1469.54 118.79 
  L1447.78 112.403 L1425.81 106.745 L1403.68 101.824 L1381.38 97.6441 L1358.97 94.2108 L1336.45 91.5278 L1313.85 89.5979 L1291.2 88.4233 L1268.52 88.0053 L1245.85 88.3445 
  L1223.19 89.4404 L1267.34 767.384  Z
  " fill="#4477aa" fill-rule="evenodd" fill-opacity="1"/>
<polyline clip-path="url(#clip1502)" style="stroke:#000000; stroke-width:4.8; stroke-opacity:1; fill:none" points="
  1267.34,767.384 1946.72,767.384 1946.34,744.707 1945.21,722.056 1943.32,699.456 1940.67,676.931 1937.28,654.507 1933.14,632.208 1928.26,610.061 1922.64,588.088 
  1916.29,566.316 1909.21,544.767 1901.43,523.467 1892.93,502.439 1883.74,481.705 1873.86,461.29 1863.31,441.217 1852.09,421.506 1840.22,402.181 1827.71,383.264 
  1814.57,364.774 1800.83,346.733 1786.49,329.16 1771.58,312.076 1756.1,295.5 1740.08,279.449 1723.53,263.942 1706.47,248.996 1688.92,234.628 1670.9,220.853 
  1652.44,207.687 1633.54,195.146 1614.24,183.242 1594.55,171.989 1574.49,161.399 1554.09,151.485 1533.38,142.257 1512.36,133.725 1491.07,125.9 1469.54,118.79 
  1447.78,112.403 1425.81,106.745 1403.68,101.824 1381.38,97.6441 1358.97,94.2108 1336.45,91.5278 1313.85,89.5979 1291.2,88.4233 1268.52,88.0053 1245.85,88.3445 
  1223.19,89.4404 1267.34,767.384 
  "/>
<path clip-path="url(#clip1502)" d="
M1267.34 767.384 L1223.19 89.4404 L1200.25 91.3251 L1177.39 93.9858 L1154.63 97.4195 L1132 101.622 L1109.52 106.589 L1087.23 112.315 L1065.14 118.792 L1043.29 126.014 
  L1021.69 133.972 L1000.37 142.657 L979.364 152.06 L958.684 162.168 L938.36 172.972 L918.412 184.457 L898.866 196.612 L879.742 209.422 L861.063 222.873 L842.851 236.948 
  L825.126 251.632 L807.908 266.909 L791.218 282.76 L775.075 299.167 L759.496 316.111 L744.5 333.574 L730.105 351.535 L716.326 369.972 L703.18 388.867 L690.681 408.195 
  L678.845 427.936 L667.683 448.067 L657.211 468.564 L647.438 489.404 L638.377 510.563 L630.038 532.017 L622.431 553.741 L615.564 575.71 L609.445 597.9 L604.081 620.284 
  L599.479 642.836 L595.643 665.532 L592.578 688.345 L590.288 711.248 L588.775 734.216 L588.041 757.222 L588.086 780.24 L588.912 803.242 L590.516 826.204 L592.897 849.098 
  L596.052 871.898 L1267.34 767.384  Z
  " fill="#ee6677" fill-rule="evenodd" fill-opacity="1"/>
<polyline clip-path="url(#clip1502)" style="stroke:#000000; stroke-width:4.8; stroke-opacity:1; fill:none" points="
  1267.34,767.384 1223.19,89.4404 1200.25,91.3251 1177.39,93.9858 1154.63,97.4195 1132,101.622 1109.52,106.589 1087.23,112.315 1065.14,118.792 1043.29,126.014 
  1021.69,133.972 1000.37,142.657 979.364,152.06 958.684,162.168 938.36,172.972 918.412,184.457 898.866,196.612 879.742,209.422 861.063,222.873 842.851,236.948 
  825.126,251.632 807.908,266.909 791.218,282.76 775.075,299.167 759.496,316.111 744.5,333.574 730.105,351.535 716.326,369.972 703.18,388.867 690.681,408.195 
  678.845,427.936 667.683,448.067 657.211,468.564 647.438,489.404 638.377,510.563 630.038,532.017 622.431,553.741 615.564,575.71 609.445,597.9 604.081,620.284 
  599.479,642.836 595.643,665.532 592.578,688.345 590.288,711.248 588.775,734.216 588.041,757.222 588.086,780.24 588.912,803.242 590.516,826.204 592.897,849.098 
  596.052,871.898 1267.34,767.384 
  "/>
<path clip-path="url(#clip1502)" d="
M1267.34 767.384 L596.052 871.898 L599.894 894.136 L604.472 916.234 L609.781 938.167 L615.816 959.912 L622.57 981.444 L630.035 1002.74 L638.203 1023.78 L647.065 1044.53 
  L656.612 1064.98 L666.833 1085.1 L677.716 1104.87 L689.25 1124.26 L701.422 1143.27 L714.218 1161.86 L727.625 1180.01 L741.627 1197.71 L756.209 1214.93 L771.355 1231.66 
  L787.048 1247.87 L803.271 1263.56 L820.006 1278.7 L837.235 1293.28 L854.938 1307.27 L873.097 1320.67 L891.69 1333.46 L910.698 1345.62 L930.099 1357.15 L949.873 1368.02 
  L969.996 1378.24 L990.448 1387.77 L1011.21 1396.63 L1032.25 1404.79 L1053.54 1412.24 L1075.08 1418.99 L1096.83 1425.02 L1118.76 1430.32 L1140.86 1434.89 L1163.1 1438.72 
  L1185.46 1441.81 L1207.9 1444.16 L1230.41 1445.76 L1252.96 1446.61 L1275.53 1446.71 L1298.08 1446.07 L1320.61 1444.67 L1343.07 1442.53 L1365.45 1439.64 L1387.73 1436.01 
  L1409.87 1431.64 L1267.34 767.384  Z
  " fill="#228833" fill-rule="evenodd" fill-opacity="1"/>
<polyline clip-path="url(#clip1502)" style="stroke:#000000; stroke-width:4.8; stroke-opacity:1; fill:none" points="
  1267.34,767.384 596.052,871.898 599.894,894.136 604.472,916.234 609.781,938.167 615.816,959.912 622.57,981.444 630.035,1002.74 638.203,1023.78 647.065,1044.53 
  656.612,1064.98 666.833,1085.1 677.716,1104.87 689.25,1124.26 701.422,1143.27 714.218,1161.86 727.625,1180.01 741.627,1197.71 756.209,1214.93 771.355,1231.66 
  787.048,1247.87 803.271,1263.56 820.006,1278.7 837.235,1293.28 854.938,1307.27 873.097,1320.67 891.69,1333.46 910.698,1345.62 930.099,1357.15 949.873,1368.02 
  969.996,1378.24 990.448,1387.77 1011.21,1396.63 1032.25,1404.79 1053.54,1412.24 1075.08,1418.99 1096.83,1425.02 1118.76,1430.32 1140.86,1434.89 1163.1,1438.72 
  1185.46,1441.81 1207.9,1444.16 1230.41,1445.76 1252.96,1446.61 1275.53,1446.71 1298.08,1446.07 1320.61,1444.67 1343.07,1442.53 1365.45,1439.64 1387.73,1436.01 
  1409.87,1431.64 1267.34,767.384 
  "/>
<path clip-path="url(#clip1502)" d="
M1267.34 767.384 L1409.87 1431.64 L1428.24 1427.44 L1446.49 1422.72 L1464.6 1417.5 L1482.56 1411.77 L1500.35 1405.56 L1517.96 1398.85 L1535.38 1391.65 L1552.6 1383.98 
  L1569.59 1375.83 L1586.35 1367.21 L1602.87 1358.13 L1619.13 1348.59 L1635.12 1338.61 L1650.82 1328.19 L1666.23 1317.34 L1681.33 1306.06 L1696.11 1294.37 L1710.57 1282.27 
  L1724.68 1269.78 L1738.44 1256.9 L1751.84 1243.64 L1764.86 1230.02 L1777.51 1216.04 L1789.76 1201.71 L1801.6 1187.05 L1813.04 1172.07 L1824.06 1156.78 L1834.64 1141.19 
  L1844.79 1125.31 L1854.5 1109.15 L1863.76 1092.73 L1872.55 1076.06 L1880.88 1059.15 L1888.74 1042.02 L1896.12 1024.68 L1903.01 1007.14 L1909.42 989.41 L1915.33 971.514 
  L1920.74 953.46 L1925.65 935.263 L1930.06 916.936 L1933.95 898.495 L1937.33 879.953 L1940.2 861.324 L1942.54 842.623 L1944.37 823.864 L1945.68 805.061 L1946.46 786.23 
  L1946.72 767.384 L1267.34 767.384  Z
  " fill="#ccbb44" fill-rule="evenodd" fill-opacity="1"/>
<polyline clip-path="url(#clip1502)" style="stroke:#000000; stroke-width:4.8; stroke-opacity:1; fill:none" points="
  1267.34,767.384 1409.87,1431.64 1428.24,1427.44 1446.49,1422.72 1464.6,1417.5 1482.56,1411.77 1500.35,1405.56 1517.96,1398.85 1535.38,1391.65 1552.6,1383.98 
  1569.59,1375.83 1586.35,1367.21 1602.87,1358.13 1619.13,1348.59 1635.12,1338.61 1650.82,1328.19 1666.23,1317.34 1681.33,1306.06 1696.11,1294.37 1710.57,1282.27 
  1724.68,1269.78 1738.44,1256.9 1751.84,1243.64 1764.86,1230.02 1777.51,1216.04 1789.76,1201.71 1801.6,1187.05 1813.04,1172.07 1824.06,1156.78 1834.64,1141.19 
  1844.79,1125.31 1854.5,1109.15 1863.76,1092.73 1872.55,1076.06 1880.88,1059.15 1888.74,1042.02 1896.12,1024.68 1903.01,1007.14 1909.42,989.41 1915.33,971.514 
  1920.74,953.46 1925.65,935.263 1930.06,916.936 1933.95,898.495 1937.33,879.953 1940.2,861.324 1942.54,842.623 1944.37,823.864 1945.68,805.061 1946.46,786.23 
  1946.72,767.384 1267.34,767.384 
  "/>
<path clip-path="url(#clip1500)" d="
M254.008 433.164 L528.761 433.164 L528.761 130.764 L254.008 130.764  Z
  " fill="#ffffff" fill-rule="evenodd" fill-opacity="0.9"/>
<polyline clip-path="url(#clip1500)" style="stroke:#222255; stroke-width:4; stroke-opacity:0.1; fill:none" points="
  254.008,433.164 528.761,433.164 528.761,130.764 254.008,130.764 254.008,433.164 
  "/>
<path clip-path="url(#clip1500)" d="
M278.008 215.436 L422.008 215.436 L422.008 167.052 L278.008 167.052 L278.008 215.436  Z
  " fill="#4477aa" fill-rule="evenodd" fill-opacity="1"/>
<polyline clip-path="url(#clip1500)" style="stroke:#000000; stroke-width:4.8; stroke-opacity:1; fill:none" points="
  278.008,215.436 422.008,215.436 422.008,167.052 278.008,167.052 278.008,215.436 
  "/>
<g clip-path="url(#clip1500)">
<text style="fill:#000000; fill-opacity:1; font-family:Arial,Helvetica Neue,Helvetica,sans-serif; font-size:48px; text-anchor:start;" transform="rotate(0, 446.008, 208.744)" x="446.008" y="208.744">A</text>
</g>
<path clip-path="url(#clip1500)" d="
M278.008 275.916 L422.008 275.916 L422.008 227.532 L278.008 227.532 L278.008 275.916  Z
  " fill="#ee6677" fill-rule="evenodd" fill-opacity="1"/>
<polyline clip-path="url(#clip1500)" style="stroke:#000000; stroke-width:4.8; stroke-opacity:1; fill:none" points="
  278.008,275.916 422.008,275.916 422.008,227.532 278.008,227.532 278.008,275.916 
  "/>
<g clip-path="url(#clip1500)">
<text style="fill:#000000; fill-opacity:1; font-family:Arial,Helvetica Neue,Helvetica,sans-serif; font-size:48px; text-anchor:start;" transform="rotate(0, 446.008, 269.224)" x="446.008" y="269.224">B</text>
</g>
<path clip-path="url(#clip1500)" d="
M278.008 336.396 L422.008 336.396 L422.008 288.012 L278.008 288.012 L278.008 336.396  Z
  " fill="#228833" fill-rule="evenodd" fill-opacity="1"/>
<polyline clip-path="url(#clip1500)" style="stroke:#000000; stroke-width:4.8; stroke-opacity:1; fill:none" points="
  278.008,336.396 422.008,336.396 422.008,288.012 278.008,288.012 278.008,336.396 
  "/>
<g clip-path="url(#clip1500)">
<text style="fill:#000000; fill-opacity:1; font-family:Arial,Helvetica Neue,Helvetica,sans-serif; font-size:48px; text-anchor:start;" transform="rotate(0, 446.008, 329.704)" x="446.008" y="329.704">C</text>
</g>
<path clip-path="url(#clip1500)" d="
M278.008 396.876 L422.008 396.876 L422.008 348.492 L278.008 348.492 L278.008 396.876  Z
  " fill="#ccbb44" fill-rule="evenodd" fill-opacity="1"/>
<polyline clip-path="url(#clip1500)" style="stroke:#000000; stroke-width:4.8; stroke-opacity:1; fill:none" points="
  278.008,396.876 422.008,396.876 422.008,348.492 278.008,348.492 278.008,396.876 
  "/>
<g clip-path="url(#clip1500)">
<text style="fill:#000000; fill-opacity:1; font-family:Arial,Helvetica Neue,Helvetica,sans-serif; font-size:48px; text-anchor:start;" transform="rotate(0, 446.008, 390.184)" x="446.008" y="390.184">D</text>
</g>
</svg>
