<?xml version="1.0" encoding="utf-8"?>
<svg xmlns="http://www.w3.org/2000/svg" xmlns:xlink="http://www.w3.org/1999/xlink" width="600" height="400" viewBox="0 0 2400 1600">
<defs>
  <clipPath id="clip5900">
    <rect x="0" y="0" width="2400" height="1600"/>
  </clipPath>
</defs>
<path clip-path="url(#clip5900)" d="
M0 1600 L2400 1600 L2400 0 L0 0  Z
  " fill="#ffffff" fill-rule="evenodd" fill-opacity="1"/>
<defs>
  <clipPath id="clip5901">
    <rect x="480" y="0" width="1681" height="1600"/>
  </clipPath>
</defs>
<path clip-path="url(#clip5900)" d="
M182.008 1487.47 L1152.76 1487.47 L1152.76 47.2441 L182.008 47.2441  Z
  " fill="#ffffff" fill-rule="evenodd" fill-opacity="1"/>
<defs>
  <clipPath id="clip5902">
    <rect x="182" y="47" width="972" height="1441"/>
  </clipPath>
</defs>
<path clip-path="url(#clip5902)" d="
M667.368 767.426 L1125.28 767.426 L1124.79 746.265 L1123.33 725.149 L1120.89 704.123 L1117.48 683.232 L1113.1 662.522 L1107.78 642.035 L1101.51 621.817 L1094.32 601.909 
  L1086.22 582.355 L1077.22 563.197 L1067.34 544.475 L1056.61 526.23 L1045.05 508.499 L1032.68 491.323 L1019.53 474.736 L1005.63 458.774 L991.002 443.472 L975.686 428.862 
  L959.71 414.976 L943.11 401.842 L925.921 389.49 L908.18 377.946 L889.923 367.233 L871.192 357.376 L852.025 348.395 L832.463 340.309 L812.548 333.136 L792.324 326.891 
  L771.832 321.587 L751.117 317.236 L730.223 313.846 L709.195 311.426 L688.077 309.98 L666.915 309.512 L645.755 310.022 L624.64 311.51 L603.617 313.971 L582.729 317.402 
  L562.023 321.794 L541.542 327.138 L521.329 333.423 L501.429 340.636 L481.883 348.76 L462.734 357.779 L444.022 367.673 L425.787 378.422 L408.068 390.002 L390.903 402.388 
  L374.329 415.554 L667.368 767.426  Z
  " fill="#4477aa" fill-rule="evenodd" fill-opacity="1"/>
<polyline clip-path="url(#clip5902)" style="stroke:#000000; stroke-width:4.8; stroke-opacity:1; fill:none" points="
  667.368,767.426 1125.28,767.426 1124.79,746.265 1123.33,725.149 1120.89,704.123 1117.48,683.232 1113.1,662.522 1107.78,642.035 1101.51,621.817 1094.32,601.909 
  1086.22,582.355 1077.22,563.197 1067.34,544.475 1056.61,526.23 1045.05,508.499 1032.68,491.323 1019.53,474.736 1005.63,458.774 991.002,443.472 975.686,428.862 
  959.71,414.976 943.11,401.842 925.921,389.49 908.18,377.946 889.923,367.233 871.192,357.376 852.025,348.395 832.463,340.309 812.548,333.136 792.324,326.891 
  771.832,321.587 751.117,317.236 730.223,313.846 709.195,311.426 688.077,309.98 666.915,309.512 645.755,310.022 624.64,311.51 603.617,313.971 582.729,317.402 
  562.023,321.794 541.542,327.138 521.329,333.423 501.429,340.636 481.883,348.76 462.734,357.779 444.022,367.673 425.787,378.422 408.068,390.002 390.903,402.388 
  374.329,415.554 667.368,767.426 
  "/>
<path clip-path="url(#clip5902)" d="
M667.368 767.426 L374.329 415.554 L371.274 418.121 L368.24 420.715 L365.229 423.336 L362.242 425.983 L359.277 428.655 L356.336 431.353 L353.418 434.077 L350.525 436.826 
  L347.655 439.601 L344.81 442.4 L341.989 445.224 L339.193 448.072 L336.422 450.945 L333.676 453.842 L330.955 456.762 L328.26 459.706 L325.591 462.674 L322.947 465.664 
  L320.33 468.678 L317.739 471.714 L315.175 474.773 L312.637 477.854 L310.127 480.957 L307.643 484.082 L305.187 487.228 L302.759 490.395 L300.358 493.584 L297.985 496.793 
  L295.64 500.023 L293.323 503.274 L291.035 506.544 L288.776 509.834 L286.545 513.144 L284.343 516.473 L282.17 519.821 L280.026 523.188 L277.912 526.574 L275.827 529.977 
  L273.773 533.399 L271.748 536.839 L269.753 540.296 L267.788 543.77 L265.854 547.262 L263.95 550.77 L262.077 554.295 L260.235 557.835 L258.423 561.392 L256.643 564.964 
  L254.894 568.552 L667.368 767.426  Z
  " fill="#ee6677" fill-rule="evenodd" fill-opacity="1"/>
<polyline clip-path="url(#clip5902)" style="stroke:#000000; stroke-width:4.8; stroke-opacity:1; fill:none" points="
  667.368,767.426 374.329,415.554 371.274,418.121 368.24,420.715 365.229,423.336 362.242,425.983 359.277,428.655 356.336,431.353 353.418,434.077 350.525,436.826 
  347.655,439.601 344.81,442.4 341.989,445.224 339.193,448.072 336.422,450.945 333.676,453.842 330.955,456.762 328.26,459.706 325.591,462.674 322.947,465.664 
  320.33,468.678 317.739,471.714 315.175,474.773 312.637,477.854 310.127,480.957 307.643,484.082 305.187,487.228 302.759,490.395 300.358,493.584 297.985,496.793 
  295.64,500.023 293.323,503.274 291.035,506.544 288.776,509.834 286.545,513.144 284.343,516.473 282.17,519.821 280.026,523.188 277.912,526.574 275.827,529.977 
  273.773,533.399 271.748,536.839 269.753,540.296 267.788,543.77 265.854,547.262 263.95,550.77 262.077,554.295 260.235,557.835 258.423,561.392 256.643,564.964 
  254.894,568.552 667.368,767.426 
  "/>
<path clip-path="url(#clip5902)" d="
M667.368 767.426 L254.894 568.552 L245.706 588.856 L237.518 609.582 L230.347 630.682 L224.212 652.106 L219.126 673.804 L215.102 695.723 L212.149 717.812 L210.274 740.018 
  L209.482 762.289 L209.774 784.573 L211.151 806.816 L213.607 828.965 L217.139 850.969 L221.736 872.775 L227.39 894.331 L234.085 915.587 L241.806 936.492 L250.536 956.997 
  L260.253 977.052 L270.934 996.611 L282.554 1015.63 L295.085 1034.06 L308.498 1051.85 L322.761 1068.98 L337.841 1085.38 L353.7 1101.04 L370.303 1115.91 L387.609 1129.95 
  L405.578 1143.13 L424.167 1155.42 L443.332 1166.79 L463.028 1177.22 L483.207 1186.68 L503.823 1195.14 L524.826 1202.59 L546.167 1209.01 L567.794 1214.38 L589.658 1218.7 
  L611.706 1221.94 L633.885 1224.11 L656.144 1225.2 L678.429 1225.21 L700.689 1224.13 L722.869 1221.96 L744.918 1218.73 L766.783 1214.42 L788.412 1209.05 L809.755 1202.64 
  L830.761 1195.2 L667.368 767.426  Z
  " fill="#228833" fill-rule="evenodd" fill-opacity="1"/>
<polyline clip-path="url(#clip5902)" style="stroke:#000000; stroke-width:4.8; stroke-opacity:1; fill:none" points="
  667.368,767.426 254.894,568.552 245.706,588.856 237.518,609.582 230.347,630.682 224.212,652.106 219.126,673.804 215.102,695.723 212.149,717.812 210.274,740.018 
  209.482,762.289 209.774,784.573 211.151,806.816 213.607,828.965 217.139,850.969 221.736,872.775 227.39,894.331 234.085,915.587 241.806,936.492 250.536,956.997 
  260.253,977.052 270.934,996.611 282.554,1015.63 295.085,1034.06 308.498,1051.85 322.761,1068.98 337.841,1085.38 353.7,1101.04 370.303,1115.91 387.609,1129.95 
  405.578,1143.13 424.167,1155.42 443.332,1166.79 463.028,1177.22 483.207,1186.68 503.823,1195.14 524.826,1202.59 546.167,1209.01 567.794,1214.38 589.658,1218.7 
  611.706,1221.94 633.885,1224.11 656.144,1225.2 678.429,1225.21 700.689,1224.13 722.869,1221.96 744.918,1218.73 766.783,1214.42 788.412,1209.05 809.755,1202.64 
  830.761,1195.2 667.368,767.426 
  "/>
<path clip-path="url(#clip5902)" d="
M667.368 767.426 L830.761 1195.2 L841.238 1191.05 L851.61 1186.64 L861.871 1181.98 L872.013 1177.07 L882.032 1171.91 L891.921 1166.5 L901.673 1160.86 L911.284 1154.97 
  L920.747 1148.85 L930.056 1142.5 L939.207 1135.92 L948.193 1129.12 L957.008 1122.1 L965.648 1114.87 L974.108 1107.42 L982.382 1099.77 L990.465 1091.92 L998.352 1083.87 
  L1006.04 1075.63 L1013.52 1067.2 L1020.79 1058.59 L1027.85 1049.8 L1034.69 1040.85 L1041.31 1031.73 L1047.7 1022.44 L1053.86 1013.01 L1059.79 1003.42 L1065.47 993.693 
  L1070.92 983.828 L1076.12 973.832 L1081.08 963.71 L1085.79 953.47 L1090.24 943.117 L1094.43 932.658 L1098.37 922.098 L1102.04 911.445 L1105.46 900.705 L1108.6 889.884 
  L1111.48 878.989 L1114.09 868.026 L1116.44 857.002 L1118.5 845.924 L1120.3 834.799 L1121.82 823.632 L1123.06 812.432 L1124.03 801.204 L1124.73 789.956 L1125.14 778.695 
  L1125.28 767.426 L667.368 767.426  Z
  " fill="#ccbb44" fill-rule="evenodd" fill-opacity="1"/>
<polyline clip-path="url(#clip5902)" style="stroke:#000000; stroke-width:4.8; stroke-opacity:1; fill:none" points="
  667.368,767.426 830.761,1195.2 841.238,1191.05 851.61,1186.64 861.871,1181.98 872.013,1177.07 882.032,1171.91 891.921,1166.5 901.673,1160.86 911.284,1154.97 
  920.747,1148.85 930.056,1142.5 939.207,1135.92 948.193,1129.12 957.008,1122.1 965.648,1114.87 974.108,1107.42 982.382,1099.77 990.465,1091.92 998.352,1083.87 
  1006.04,1075.63 1013.52,1067.2 1020.79,1058.59 1027.85,1049.8 1034.69,1040.85 1041.31,1031.73 1047.7,1022.44 1053.86,1013.01 1059.79,1003.42 1065.47,993.693 
  1070.92,983.828 1076.12,973.832 1081.08,963.71 1085.79,953.47 1090.24,943.117 1094.43,932.658 1098.37,922.098 1102.04,911.445 1105.46,900.705 1108.6,889.884 
  1111.48,878.989 1114.09,868.026 1116.44,857.002 1118.5,845.924 1120.3,834.799 1121.82,823.632 1123.06,812.432 1124.03,801.204 1124.73,789.956 1125.14,778.695 
  1125.28,767.426 667.368,767.426 
  "/>
<path clip-path="url(#clip5900)" d="
M254.008 433.164 L520.77 433.164 L520.77 130.764 L254.008 130.764  Z
  " fill="#ffffff" fill-rule="evenodd" fill-opacity="0.9"/>
<polyline clip-path="url(#clip5900)" style="stroke:#222255; stroke-width:4; stroke-opacity:0.1; fill:none" points="
  254.008,433.164 520.77,433.164 520.77,130.764 254.008,130.764 254.008,433.164 
  "/>
<path clip-path="url(#clip5900)" d="
M278.008 215.436 L422.008 215.436 L422.008 167.052 L278.008 167.052 L278.008 215.436  Z
  " fill="#4477aa" fill-rule="evenodd" fill-opacity="1"/>
<polyline clip-path="url(#clip5900)" style="stroke:#000000; stroke-width:4.8; stroke-opacity:1; fill:none" points="
  278.008,215.436 422.008,215.436 422.008,167.052 278.008,167.052 278.008,215.436 
  "/>
<g clip-path="url(#clip5900)">
<text style="fill:#000000; fill-opacity:1; font-family:Arial,Helvetica Neue,Helvetica,sans-serif; font-size:48px; text-anchor:start;" transform="rotate(0, 446.008, 208.744)" x="446.008" y="208.744">1</text>
</g>
<path clip-path="url(#clip5900)" d="
M278.008 275.916 L422.008 275.916 L422.008 227.532 L278.008 227.532 L278.008 275.916  Z
  " fill="#ee6677" fill-rule="evenodd" fill-opacity="1"/>
<polyline clip-path="url(#clip5900)" style="stroke:#000000; stroke-width:4.8; stroke-opacity:1; fill:none" points="
  278.008,275.916 422.008,275.916 422.008,227.532 278.008,227.532 278.008,275.916 
  "/>
<g clip-path="url(#clip5900)">
<text style="fill:#000000; fill-opacity:1; font-family:Arial,Helvetica Neue,Helvetica,sans-serif; font-size:48px; text-anchor:start;" transform="rotate(0, 446.008, 269.224)" x="446.008" y="269.224">2</text>
</g>
<path clip-path="url(#clip5900)" d="
M278.008 336.396 L422.008 336.396 L422.008 288.012 L278.008 288.012 L278.008 336.396  Z
  " fill="#228833" fill-rule="evenodd" fill-opacity="1"/>
<polyline clip-path="url(#clip5900)" style="stroke:#000000; stroke-width:4.8; stroke-opacity:1; fill:none" points="
  278.008,336.396 422.008,336.396 422.008,288.012 278.008,288.012 278.008,336.396 
  "/>
<g clip-path="url(#clip5900)">
<text style="fill:#000000; fill-opacity:1; font-family:Arial,Helvetica Neue,Helvetica,sans-serif; font-size:48px; text-anchor:start;" transform="rotate(0, 446.008, 329.704)" x="446.008" y="329.704">3</text>
</g>
<path clip-path="url(#clip5900)" d="
M278.008 396.876 L422.008 396.876 L422.008 348.492 L278.008 348.492 L278.008 396.876  Z
  " fill="#ccbb44" fill-rule="evenodd" fill-opacity="1"/>
<polyline clip-path="url(#clip5900)" style="stroke:#000000; stroke-width:4.8; stroke-opacity:1; fill:none" points="
  278.008,396.876 422.008,396.876 422.008,348.492 278.008,348.492 278.008,396.876 
  "/>
<g clip-path="url(#clip5900)">
<text style="fill:#000000; fill-opacity:1; font-family:Arial,Helvetica Neue,Helvetica,sans-serif; font-size:48px; text-anchor:start;" transform="rotate(0, 446.008, 390.184)" x="446.008" y="390.184">4</text>
</g>
<path clip-path="url(#clip5900)" d="
M1382.01 1487.47 L2352.76 1487.47 L2352.76 47.2441 L1382.01 47.2441  Z
  " fill="#ffffff" fill-rule="evenodd" fill-opacity="1"/>
<defs>
  <clipPath id="clip5903">
    <rect x="1382" y="47" width="972" height="1441"/>
  </clipPath>
</defs>
<path clip-path="url(#clip5903)" d="
M1867.38 767.32 L2325.28 767.32 L2325.27 763.946 L2325.23 760.572 L2325.17 757.198 L2325.08 753.825 L2324.97 750.452 L2324.83 747.081 L2324.67 743.71 L2324.49 740.341 
  L2324.28 736.973 L2324.04 733.607 L2323.78 730.243 L2323.49 726.881 L2323.18 723.521 L2322.85 720.163 L2322.49 716.808 L2322.1 713.456 L2321.69 710.106 L2321.26 706.76 
  L2320.8 703.417 L2320.32 700.077 L2319.81 696.741 L2319.28 693.409 L2318.72 690.081 L2318.14 686.757 L2317.53 683.438 L2316.9 680.123 L2316.25 676.813 L2315.57 673.508 
  L2314.87 670.207 L2314.14 666.913 L2313.39 663.623 L2312.61 660.339 L2311.81 657.061 L2310.98 653.789 L2310.14 650.523 L2309.26 647.264 L2308.37 644.011 L2307.45 640.765 
  L2306.5 637.525 L2305.53 634.293 L2304.54 631.068 L2303.52 627.85 L2302.49 624.64 L2301.42 621.437 L2300.33 618.243 L2299.22 615.056 L2298.09 611.878 L2296.93 608.708 
  L2295.75 605.547 L1867.38 767.32  Z
  " fill="#4477aa" fill-rule="evenodd" fill-opacity="1"/>
<polyline clip-path="url(#clip5903)" style="stroke:#000000; stroke-width:4.8; stroke-opacity:1; fill:none" points="
  1867.38,767.32 2325.28,767.32 2325.27,763.946 2325.23,760.572 2325.17,757.198 2325.08,753.825 2324.97,750.452 2324.83,747.081 2324.67,743.71 2324.49,740.341 
  2324.28,736.973 2324.04,733.607 2323.78,730.243 2323.49,726.881 2323.18,723.521 2322.85,720.163 2322.49,716.808 2322.1,713.456 2321.69,710.106 2321.26,706.76 
  2320.8,703.417 2320.32,700.077 2319.81,696.741 2319.28,693.409 2318.72,690.081 2318.14,686.757 2317.53,683.438 2316.9,680.123 2316.25,676.813 2315.57,673.508 
  2314.87,670.207 2314.14,666.913 2313.39,663.623 2312.61,660.339 2311.81,657.061 2310.98,653.789 2310.14,650.523 2309.26,647.264 2308.37,644.011 2307.45,640.765 
  2306.5,637.525 2305.53,634.293 2304.54,631.068 2303.52,627.85 2302.49,624.64 2301.42,621.437 2300.33,618.243 2299.22,615.056 2298.09,611.878 2296.93,608.708 
  2295.75,605.547 1867.38,767.32 
  "/>
<path clip-path="url(#clip5903)" d="
M1867.38 767.32 L2295.75 605.547 L2286.06 581.889 L2275.05 558.808 L2262.78 536.378 L2249.27 514.668 L2234.57 493.745 L2218.73 473.676 L2201.79 454.522 L2183.81 436.344 
  L2164.84 419.198 L2144.95 403.137 L2124.19 388.211 L2102.63 374.468 L2080.33 361.95 L2057.37 350.695 L2033.82 340.74 L2009.75 332.115 L1985.24 324.846 L1960.35 318.958 
  L1935.18 314.467 L1909.8 311.389 L1884.28 309.732 L1858.72 309.502 L1833.18 310.699 L1807.74 313.32 L1782.49 317.357 L1757.51 322.797 L1732.87 329.623 L1708.65 337.813 
  L1684.92 347.343 L1661.76 358.183 L1639.25 370.298 L1617.44 383.651 L1596.41 398.2 L1576.23 413.9 L1556.96 430.703 L1538.66 448.554 L1521.37 467.4 L1505.17 487.181 
  L1490.1 507.836 L1476.21 529.299 L1463.53 551.505 L1452.11 574.384 L1441.99 597.864 L1433.2 621.872 L1425.75 646.334 L1419.69 671.174 L1415.02 696.313 L1411.76 721.674 
  L1409.92 747.176 L1867.38 767.32  Z
  " fill="#ee6677" fill-rule="evenodd" fill-opacity="1"/>
<polyline clip-path="url(#clip5903)" style="stroke:#000000; stroke-width:4.8; stroke-opacity:1; fill:none" points="
  1867.38,767.32 2295.75,605.547 2286.06,581.889 2275.05,558.808 2262.78,536.378 2249.27,514.668 2234.57,493.745 2218.73,473.676 2201.79,454.522 2183.81,436.344 
  2164.84,419.198 2144.95,403.137 2124.19,388.211 2102.63,374.468 2080.33,361.95 2057.37,350.695 2033.82,340.74 2009.75,332.115 1985.24,324.846 1960.35,318.958 
  1935.18,314.467 1909.8,311.389 1884.28,309.732 1858.72,309.502 1833.18,310.699 1807.74,313.32 1782.49,317.357 1757.51,322.797 1732.87,329.623 1708.65,337.813 
  1684.92,347.343 1661.76,358.183 1639.25,370.298 1617.44,383.651 1596.41,398.2 1576.23,413.9 1556.96,430.703 1538.66,448.554 1521.37,467.4 1505.17,487.181 
  1490.1,507.836 1476.21,529.299 1463.53,551.505 1452.11,574.384 1441.99,597.864 1433.2,621.872 1425.75,646.334 1419.69,671.174 1415.02,696.313 1411.76,721.674 
  1409.92,747.176 1867.38,767.32 
  "/>
<path clip-path="url(#clip5903)" d="
M1867.38 767.32 L1409.92 747.176 L1409.48 766.584 L1409.86 785.993 L1411.06 805.368 L1413.09 824.674 L1415.93 843.878 L1419.58 862.944 L1424.03 881.838 L1429.29 900.527 
  L1435.32 918.976 L1442.14 937.152 L1449.72 955.023 L1458.05 972.557 L1467.12 989.722 L1476.91 1006.49 L1487.39 1022.82 L1498.56 1038.7 L1510.4 1054.09 L1522.87 1068.96 
  L1535.97 1083.29 L1549.66 1097.05 L1563.92 1110.22 L1578.73 1122.78 L1594.05 1134.69 L1609.87 1145.95 L1626.15 1156.52 L1642.86 1166.4 L1659.98 1175.56 L1677.47 1183.98 
  L1695.3 1191.65 L1713.44 1198.57 L1731.86 1204.7 L1750.52 1210.06 L1769.39 1214.61 L1788.43 1218.36 L1807.62 1221.3 L1826.92 1223.43 L1846.29 1224.73 L1865.69 1225.22 
  L1885.1 1224.88 L1904.48 1223.72 L1923.79 1221.73 L1943 1218.93 L1962.07 1215.32 L1980.98 1210.91 L1999.68 1205.69 L2018.14 1199.69 L2036.33 1192.91 L2054.21 1185.37 
  L2071.77 1177.08 L1867.38 767.32  Z
  " fill="#228833" fill-rule="evenodd" fill-opacity="1"/>
<polyline clip-path="url(#clip5903)" style="stroke:#000000; stroke-width:4.8; stroke-opacity:1; fill:none" points="
  1867.38,767.32 1409.92,747.176 1409.48,766.584 1409.86,785.993 1411.06,805.368 1413.09,824.674 1415.93,843.878 1419.58,862.944 1424.03,881.838 1429.29,900.527 
  1435.32,918.976 1442.14,937.152 1449.72,955.023 1458.05,972.557 1467.12,989.722 1476.91,1006.49 1487.39,1022.82 1498.56,1038.7 1510.4,1054.09 1522.87,1068.96 
  1535.97,1083.29 1549.66,1097.05 1563.92,1110.22 1578.73,1122.78 1594.05,1134.69 1609.87,1145.95 1626.15,1156.52 1642.86,1166.4 1659.98,1175.56 1677.47,1183.98 
  1695.3,1191.65 1713.44,1198.57 1731.86,1204.7 1750.52,1210.06 1769.39,1214.61 1788.43,1218.36 1807.62,1221.3 1826.92,1223.43 1846.29,1224.73 1865.69,1225.22 
  1885.1,1224.88 1904.48,1223.72 1923.79,1221.73 1943,1218.93 1962.07,1215.32 1980.98,1210.91 1999.68,1205.69 2018.14,1199.69 2036.33,1192.91 2054.21,1185.37 
  2071.77,1177.08 1867.38,767.32 
  "/>
<path clip-path="url(#clip5903)" d="
M1867.38 767.32 L2071.77 1177.08 L2080.98 1172.35 L2090.08 1167.42 L2099.07 1162.28 L2107.95 1156.94 L2116.69 1151.4 L2125.32 1145.66 L2133.8 1139.73 L2142.16 1133.61 
  L2150.37 1127.31 L2158.44 1120.81 L2166.36 1114.14 L2174.12 1107.29 L2181.73 1100.27 L2189.18 1093.08 L2196.47 1085.72 L2203.58 1078.19 L2210.52 1070.51 L2217.29 1062.68 
  L2223.88 1054.69 L2230.29 1046.55 L2236.51 1038.27 L2242.54 1029.86 L2248.38 1021.31 L2254.03 1012.63 L2259.48 1003.82 L2264.73 994.895 L2269.77 985.852 L2274.61 976.697 
  L2279.24 967.435 L2283.66 958.071 L2287.87 948.609 L2291.86 939.054 L2295.63 929.412 L2299.19 919.686 L2302.52 909.883 L2305.64 900.007 L2308.52 890.063 L2311.19 880.056 
  L2313.62 869.992 L2315.83 859.875 L2317.81 849.711 L2319.56 839.504 L2321.07 829.261 L2322.36 818.986 L2323.41 808.684 L2324.23 798.362 L2324.81 788.023 L2325.16 777.674 
  L2325.28 767.32 L1867.38 767.32  Z
  " fill="#ccbb44" fill-rule="evenodd" fill-opacity="1"/>
<polyline clip-path="url(#clip5903)" style="stroke:#000000; stroke-width:4.8; stroke-opacity:1; fill:none" points="
  1867.38,767.32 2071.77,1177.08 2080.98,1172.35 2090.08,1167.42 2099.07,1162.28 2107.95,1156.94 2116.69,1151.4 2125.32,1145.66 2133.8,1139.73 2142.16,1133.61 
  2150.37,1127.31 2158.44,1120.81 2166.36,1114.14 2174.12,1107.29 2181.73,1100.27 2189.18,1093.08 2196.47,1085.72 2203.58,1078.19 2210.52,1070.51 2217.29,1062.68 
  2223.88,1054.69 2230.29,1046.55 2236.51,1038.27 2242.54,1029.86 2248.38,1021.31 2254.03,1012.63 2259.48,1003.82 2264.73,994.895 2269.77,985.852 2274.61,976.697 
  2279.24,967.435 2283.66,958.071 2287.87,948.609 2291.86,939.054 2295.63,929.412 2299.19,919.686 2302.52,909.883 2305.64,900.007 2308.52,890.063 2311.19,880.056 
  2313.62,869.992 2315.83,859.875 2317.81,849.711 2319.56,839.504 2321.07,829.261 2322.36,818.986 2323.41,808.684 2324.23,798.362 2324.81,788.023 2325.16,777.674 
  2325.28,767.32 1867.38,767.32 
  "/>
<path clip-path="url(#clip5900)" d="
M1454.01 433.164 L1720.77 433.164 L1720.77 130.764 L1454.01 130.764  Z
  " fill="#ffffff" fill-rule="evenodd" fill-opacity="0.9"/>
<polyline clip-path="url(#clip5900)" style="stroke:#222255; stroke-width:4; stroke-opacity:0.1; fill:none" points="
  1454.01,433.164 1720.77,433.164 1720.77,130.764 1454.01,130.764 1454.01,433.164 
  "/>
<path clip-path="url(#clip5900)" d="
M1478.01 215.436 L1622.01 215.436 L1622.01 167.052 L1478.01 167.052 L1478.01 215.436  Z
  " fill="#4477aa" fill-rule="evenodd" fill-opacity="1"/>
<polyline clip-path="url(#clip5900)" style="stroke:#000000; stroke-width:4.8; stroke-opacity:1; fill:none" points="
  1478.01,215.436 1622.01,215.436 1622.01,167.052 1478.01,167.052 1478.01,215.436 
  "/>
<g clip-path="url(#clip5900)">
<text style="fill:#000000; fill-opacity:1; font-family:Arial,Helvetica Neue,Helvetica,sans-serif; font-size:48px; text-anchor:start;" transform="rotate(0, 1646.01, 208.744)" x="1646.01" y="208.744">1</text>
</g>
<path clip-path="url(#clip5900)" d="
M1478.01 275.916 L1622.01 275.916 L1622.01 227.532 L1478.01 227.532 L1478.01 275.916  Z
  " fill="#ee6677" fill-rule="evenodd" fill-opacity="1"/>
<polyline clip-path="url(#clip5900)" style="stroke:#000000; stroke-width:4.8; stroke-opacity:1; fill:none" points="
  1478.01,275.916 1622.01,275.916 1622.01,227.532 1478.01,227.532 1478.01,275.916 
  "/>
<g clip-path="url(#clip5900)">
<text style="fill:#000000; fill-opacity:1; font-family:Arial,Helvetica Neue,Helvetica,sans-serif; font-size:48px; text-anchor:start;" transform="rotate(0, 1646.01, 269.224)" x="1646.01" y="269.224">2</text>
</g>
<path clip-path="url(#clip5900)" d="
M1478.01 336.396 L1622.01 336.396 L1622.01 288.012 L1478.01 288.012 L1478.01 336.396  Z
  " fill="#228833" fill-rule="evenodd" fill-opacity="1"/>
<polyline clip-path="url(#clip5900)" style="stroke:#000000; stroke-width:4.8; stroke-opacity:1; fill:none" points="
  1478.01,336.396 1622.01,336.396 1622.01,288.012 1478.01,288.012 1478.01,336.396 
  "/>
<g clip-path="url(#clip5900)">
<text style="fill:#000000; fill-opacity:1; font-family:Arial,Helvetica Neue,Helvetica,sans-serif; font-size:48px; text-anchor:start;" transform="rotate(0, 1646.01, 329.704)" x="1646.01" y="329.704">3</text>
</g>
<path clip-path="url(#clip5900)" d="
M1478.01 396.876 L1622.01 396.876 L1622.01 348.492 L1478.01 348.492 L1478.01 396.876  Z
  " fill="#ccbb44" fill-rule="evenodd" fill-opacity="1"/>
<polyline clip-path="url(#clip5900)" style="stroke:#000000; stroke-width:4.8; stroke-opacity:1; fill:none" points="
  1478.01,396.876 1622.01,396.876 1622.01,348.492 1478.01,348.492 1478.01,396.876 
  "/>
<g clip-path="url(#clip5900)">
<text style="fill:#000000; fill-opacity:1; font-family:Arial,Helvetica Neue,Helvetica,sans-serif; font-size:48px; text-anchor:start;" transform="rotate(0, 1646.01, 390.184)" x="1646.01" y="390.184">4</text>
</g>
</svg>
