<?xml version="1.0" encoding="utf-8"?>
<svg xmlns="http://www.w3.org/2000/svg" xmlns:xlink="http://www.w3.org/1999/xlink" width="600" height="400" viewBox="0 0 2400 1600">
<defs>
  <clipPath id="clip3900">
    <rect x="0" y="0" width="2400" height="1600"/>
  </clipPath>
</defs>
<path clip-path="url(#clip3900)" d="
M0 1600 L2400 1600 L2400 0 L0 0  Z
  " fill="#ffffff" fill-rule="evenodd" fill-opacity="1"/>
<defs>
  <clipPath id="clip3901">
    <rect x="480" y="0" width="1681" height="1600"/>
  </clipPath>
</defs>
<path clip-path="url(#clip3900)" d="
M167.279 1487.47 L1121.4 1487.47 L1121.4 121.675 L167.279 121.675  Z
  " fill="#ffffff" fill-rule="evenodd" fill-opacity="1"/>
<defs>
  <clipPath id="clip3902">
    <rect x="167" y="121" width="955" height="1367"/>
  </clipPath>
</defs>
<polyline clip-path="url(#clip3902)" style="stroke:#000000; stroke-width:2; stroke-opacity:0.1; fill:none" points="
  327.383,1487.47 327.383,121.675 
  "/>
<polyline clip-path="url(#clip3902)" style="stroke:#000000; stroke-width:2; stroke-opacity:0.1; fill:none" points="
  495.44,1487.47 495.44,121.675 
  "/>
<polyline clip-path="url(#clip3902)" style="stroke:#000000; stroke-width:2; stroke-opacity:0.1; fill:none" points="
  663.496,1487.47 663.496,121.675 
  "/>
<polyline clip-path="url(#clip3902)" style="stroke:#000000; stroke-width:2; stroke-opacity:0.1; fill:none" points="
  831.553,1487.47 831.553,121.675 
  "/>
<polyline clip-path="url(#clip3902)" style="stroke:#000000; stroke-width:2; stroke-opacity:0.1; fill:none" points="
  999.61,1487.47 999.61,121.675 
  "/>
<polyline clip-path="url(#clip3902)" style="stroke:#000000; stroke-width:2; stroke-opacity:0.1; fill:none" points="
  167.279,1451.06 1121.4,1451.06 
  "/>
<polyline clip-path="url(#clip3902)" style="stroke:#000000; stroke-width:2; stroke-opacity:0.1; fill:none" points="
  167.279,1226.98 1121.4,1226.98 
  "/>
<polyline clip-path="url(#clip3902)" style="stroke:#000000; stroke-width:2; stroke-opacity:0.1; fill:none" points="
  167.279,1002.89 1121.4,1002.89 
  "/>
<polyline clip-path="url(#clip3902)" style="stroke:#000000; stroke-width:2; stroke-opacity:0.1; fill:none" points="
  167.279,778.805 1121.4,778.805 
  "/>
<polyline clip-path="url(#clip3902)" style="stroke:#000000; stroke-width:2; stroke-opacity:0.1; fill:none" points="
  167.279,554.72 1121.4,554.72 
  "/>
<polyline clip-path="url(#clip3902)" style="stroke:#000000; stroke-width:2; stroke-opacity:0.1; fill:none" points="
  167.279,330.635 1121.4,330.635 
  "/>
<polyline clip-path="url(#clip3902)" style="stroke:#000000; stroke-width:2; stroke-opacity:0.05; fill:none" points="
  192.938,1487.47 192.938,121.675 
  "/>
<polyline clip-path="url(#clip3902)" style="stroke:#000000; stroke-width:2; stroke-opacity:0.05; fill:none" points="
  226.549,1487.47 226.549,121.675 
  "/>
<polyline clip-path="url(#clip3902)" style="stroke:#000000; stroke-width:2; stroke-opacity:0.05; fill:none" points="
  260.161,1487.47 260.161,121.675 
  "/>
<polyline clip-path="url(#clip3902)" style="stroke:#000000; stroke-width:2; stroke-opacity:0.05; fill:none" points="
  293.772,1487.47 293.772,121.675 
  "/>
<polyline clip-path="url(#clip3902)" style="stroke:#000000; stroke-width:2; stroke-opacity:0.05; fill:none" points="
  360.995,1487.47 360.995,121.675 
  "/>
<polyline clip-path="url(#clip3902)" style="stroke:#000000; stroke-width:2; stroke-opacity:0.05; fill:none" points="
  394.606,1487.47 394.606,121.675 
  "/>
<polyline clip-path="url(#clip3902)" style="stroke:#000000; stroke-width:2; stroke-opacity:0.05; fill:none" points="
  428.217,1487.47 428.217,121.675 
  "/>
<polyline clip-path="url(#clip3902)" style="stroke:#000000; stroke-width:2; stroke-opacity:0.05; fill:none" points="
  461.829,1487.47 461.829,121.675 
  "/>
<polyline clip-path="url(#clip3902)" style="stroke:#000000; stroke-width:2; stroke-opacity:0.05; fill:none" points="
  529.051,1487.47 529.051,121.675 
  "/>
<polyline clip-path="url(#clip3902)" style="stroke:#000000; stroke-width:2; stroke-opacity:0.05; fill:none" points="
  562.662,1487.47 562.662,121.675 
  "/>
<polyline clip-path="url(#clip3902)" style="stroke:#000000; stroke-width:2; stroke-opacity:0.05; fill:none" points="
  596.274,1487.47 596.274,121.675 
  "/>
<polyline clip-path="url(#clip3902)" style="stroke:#000000; stroke-width:2; stroke-opacity:0.05; fill:none" points="
  629.885,1487.47 629.885,121.675 
  "/>
<polyline clip-path="url(#clip3902)" style="stroke:#000000; stroke-width:2; stroke-opacity:0.05; fill:none" points="
  697.108,1487.47 697.108,121.675 
  "/>
<polyline clip-path="url(#clip3902)" style="stroke:#000000; stroke-width:2; stroke-opacity:0.05; fill:none" points="
  730.719,1487.47 730.719,121.675 
  "/>
<polyline clip-path="url(#clip3902)" style="stroke:#000000; stroke-width:2; stroke-opacity:0.05; fill:none" points="
  764.33,1487.47 764.33,121.675 
  "/>
<polyline clip-path="url(#clip3902)" style="stroke:#000000; stroke-width:2; stroke-opacity:0.05; fill:none" points="
  797.942,1487.47 797.942,121.675 
  "/>
<polyline clip-path="url(#clip3902)" style="stroke:#000000; stroke-width:2; stroke-opacity:0.05; fill:none" points="
  865.164,1487.47 865.164,121.675 
  "/>
<polyline clip-path="url(#clip3902)" style="stroke:#000000; stroke-width:2; stroke-opacity:0.05; fill:none" points="
  898.776,1487.47 898.776,121.675 
  "/>
<polyline clip-path="url(#clip3902)" style="stroke:#000000; stroke-width:2; stroke-opacity:0.05; fill:none" points="
  932.387,1487.47 932.387,121.675 
  "/>
<polyline clip-path="url(#clip3902)" style="stroke:#000000; stroke-width:2; stroke-opacity:0.05; fill:none" points="
  965.998,1487.47 965.998,121.675 
  "/>
<polyline clip-path="url(#clip3902)" style="stroke:#000000; stroke-width:2; stroke-opacity:0.05; fill:none" points="
  1033.22,1487.47 1033.22,121.675 
  "/>
<polyline clip-path="url(#clip3902)" style="stroke:#000000; stroke-width:2; stroke-opacity:0.05; fill:none" points="
  1066.83,1487.47 1066.83,121.675 
  "/>
<polyline clip-path="url(#clip3902)" style="stroke:#000000; stroke-width:2; stroke-opacity:0.05; fill:none" points="
  1100.44,1487.47 1100.44,121.675 
  "/>
<polyline clip-path="url(#clip3902)" style="stroke:#000000; stroke-width:2; stroke-opacity:0.05; fill:none" points="
  167.279,1406.24 1121.4,1406.24 
  "/>
<polyline clip-path="url(#clip3902)" style="stroke:#000000; stroke-width:2; stroke-opacity:0.05; fill:none" points="
  167.279,1361.43 1121.4,1361.43 
  "/>
<polyline clip-path="url(#clip3902)" style="stroke:#000000; stroke-width:2; stroke-opacity:0.05; fill:none" points="
  167.279,1316.61 1121.4,1316.61 
  "/>
<polyline clip-path="url(#clip3902)" style="stroke:#000000; stroke-width:2; stroke-opacity:0.05; fill:none" points="
  167.279,1271.79 1121.4,1271.79 
  "/>
<polyline clip-path="url(#clip3902)" style="stroke:#000000; stroke-width:2; stroke-opacity:0.05; fill:none" points="
  167.279,1182.16 1121.4,1182.16 
  "/>
<polyline clip-path="url(#clip3902)" style="stroke:#000000; stroke-width:2; stroke-opacity:0.05; fill:none" points="
  167.279,1137.34 1121.4,1137.34 
  "/>
<polyline clip-path="url(#clip3902)" style="stroke:#000000; stroke-width:2; stroke-opacity:0.05; fill:none" points="
  167.279,1092.52 1121.4,1092.52 
  "/>
<polyline clip-path="url(#clip3902)" style="stroke:#000000; stroke-width:2; stroke-opacity:0.05; fill:none" points="
  167.279,1047.71 1121.4,1047.71 
  "/>
<polyline clip-path="url(#clip3902)" style="stroke:#000000; stroke-width:2; stroke-opacity:0.05; fill:none" points="
  167.279,958.073 1121.4,958.073 
  "/>
<polyline clip-path="url(#clip3902)" style="stroke:#000000; stroke-width:2; stroke-opacity:0.05; fill:none" points="
  167.279,913.256 1121.4,913.256 
  "/>
<polyline clip-path="url(#clip3902)" style="stroke:#000000; stroke-width:2; stroke-opacity:0.05; fill:none" points="
  167.279,868.439 1121.4,868.439 
  "/>
<polyline clip-path="url(#clip3902)" style="stroke:#000000; stroke-width:2; stroke-opacity:0.05; fill:none" points="
  167.279,823.622 1121.4,823.622 
  "/>
<polyline clip-path="url(#clip3902)" style="stroke:#000000; stroke-width:2; stroke-opacity:0.05; fill:none" points="
  167.279,733.988 1121.4,733.988 
  "/>
<polyline clip-path="url(#clip3902)" style="stroke:#000000; stroke-width:2; stroke-opacity:0.05; fill:none" points="
  167.279,689.171 1121.4,689.171 
  "/>
<polyline clip-path="url(#clip3902)" style="stroke:#000000; stroke-width:2; stroke-opacity:0.05; fill:none" points="
  167.279,644.354 1121.4,644.354 
  "/>
<polyline clip-path="url(#clip3902)" style="stroke:#000000; stroke-width:2; stroke-opacity:0.05; fill:none" points="
  167.279,599.537 1121.4,599.537 
  "/>
<polyline clip-path="url(#clip3902)" style="stroke:#000000; stroke-width:2; stroke-opacity:0.05; fill:none" points="
  167.279,509.903 1121.4,509.903 
  "/>
<polyline clip-path="url(#clip3902)" style="stroke:#000000; stroke-width:2; stroke-opacity:0.05; fill:none" points="
  167.279,465.086 1121.4,465.086 
  "/>
<polyline clip-path="url(#clip3902)" style="stroke:#000000; stroke-width:2; stroke-opacity:0.05; fill:none" points="
  167.279,420.269 1121.4,420.269 
  "/>
<polyline clip-path="url(#clip3902)" style="stroke:#000000; stroke-width:2; stroke-opacity:0.05; fill:none" points="
  167.279,375.452 1121.4,375.452 
  "/>
<polyline clip-path="url(#clip3902)" style="stroke:#000000; stroke-width:2; stroke-opacity:0.05; fill:none" points="
  167.279,285.818 1121.4,285.818 
  "/>
<polyline clip-path="url(#clip3902)" style="stroke:#000000; stroke-width:2; stroke-opacity:0.05; fill:none" points="
  167.279,241.001 1121.4,241.001 
  "/>
<polyline clip-path="url(#clip3902)" style="stroke:#000000; stroke-width:2; stroke-opacity:0.05; fill:none" points="
  167.279,196.183 1121.4,196.183 
  "/>
<polyline clip-path="url(#clip3902)" style="stroke:#000000; stroke-width:2; stroke-opacity:0.05; fill:none" points="
  167.279,151.366 1121.4,151.366 
  "/>
<polyline clip-path="url(#clip3900)" style="stroke:#000000; stroke-width:4; stroke-opacity:0; fill:none" points="
  327.383,1487.47 327.383,1471.09 
  "/>
<polyline clip-path="url(#clip3900)" style="stroke:#000000; stroke-width:4; stroke-opacity:0; fill:none" points="
  495.44,1487.47 495.44,1471.09 
  "/>
<polyline clip-path="url(#clip3900)" style="stroke:#000000; stroke-width:4; stroke-opacity:0; fill:none" points="
  663.496,1487.47 663.496,1471.09 
  "/>
<polyline clip-path="url(#clip3900)" style="stroke:#000000; stroke-width:4; stroke-opacity:0; fill:none" points="
  831.553,1487.47 831.553,1471.09 
  "/>
<polyline clip-path="url(#clip3900)" style="stroke:#000000; stroke-width:4; stroke-opacity:0; fill:none" points="
  999.61,1487.47 999.61,1471.09 
  "/>
<polyline clip-path="url(#clip3900)" style="stroke:#000000; stroke-width:4; stroke-opacity:0; fill:none" points="
  192.938,1487.47 192.938,1479.28 
  "/>
<polyline clip-path="url(#clip3900)" style="stroke:#000000; stroke-width:4; stroke-opacity:0; fill:none" points="
  226.549,1487.47 226.549,1479.28 
  "/>
<polyline clip-path="url(#clip3900)" style="stroke:#000000; stroke-width:4; stroke-opacity:0; fill:none" points="
  260.161,1487.47 260.161,1479.28 
  "/>
<polyline clip-path="url(#clip3900)" style="stroke:#000000; stroke-width:4; stroke-opacity:0; fill:none" points="
  293.772,1487.47 293.772,1479.28 
  "/>
<polyline clip-path="url(#clip3900)" style="stroke:#000000; stroke-width:4; stroke-opacity:0; fill:none" points="
  360.995,1487.47 360.995,1479.28 
  "/>
<polyline clip-path="url(#clip3900)" style="stroke:#000000; stroke-width:4; stroke-opacity:0; fill:none" points="
  394.606,1487.47 394.606,1479.28 
  "/>
<polyline clip-path="url(#clip3900)" style="stroke:#000000; stroke-width:4; stroke-opacity:0; fill:none" points="
  428.217,1487.47 428.217,1479.28 
  "/>
<polyline clip-path="url(#clip3900)" style="stroke:#000000; stroke-width:4; stroke-opacity:0; fill:none" points="
  461.829,1487.47 461.829,1479.28 
  "/>
<polyline clip-path="url(#clip3900)" style="stroke:#000000; stroke-width:4; stroke-opacity:0; fill:none" points="
  529.051,1487.47 529.051,1479.28 
  "/>
<polyline clip-path="url(#clip3900)" style="stroke:#000000; stroke-width:4; stroke-opacity:0; fill:none" points="
  562.662,1487.47 562.662,1479.28 
  "/>
<polyline clip-path="url(#clip3900)" style="stroke:#000000; stroke-width:4; stroke-opacity:0; fill:none" points="
  596.274,1487.47 596.274,1479.28 
  "/>
<polyline clip-path="url(#clip3900)" style="stroke:#000000; stroke-width:4; stroke-opacity:0; fill:none" points="
  629.885,1487.47 629.885,1479.28 
  "/>
<polyline clip-path="url(#clip3900)" style="stroke:#000000; stroke-width:4; stroke-opacity:0; fill:none" points="
  697.108,1487.47 697.108,1479.28 
  "/>
<polyline clip-path="url(#clip3900)" style="stroke:#000000; stroke-width:4; stroke-opacity:0; fill:none" points="
  730.719,1487.47 730.719,1479.28 
  "/>
<polyline clip-path="url(#clip3900)" style="stroke:#000000; stroke-width:4; stroke-opacity:0; fill:none" points="
  764.33,1487.47 764.33,1479.28 
  "/>
<polyline clip-path="url(#clip3900)" style="stroke:#000000; stroke-width:4; stroke-opacity:0; fill:none" points="
  797.942,1487.47 797.942,1479.28 
  "/>
<polyline clip-path="url(#clip3900)" style="stroke:#000000; stroke-width:4; stroke-opacity:0; fill:none" points="
  865.164,1487.47 865.164,1479.28 
  "/>
<polyline clip-path="url(#clip3900)" style="stroke:#000000; stroke-width:4; stroke-opacity:0; fill:none" points="
  898.776,1487.47 898.776,1479.28 
  "/>
<polyline clip-path="url(#clip3900)" style="stroke:#000000; stroke-width:4; stroke-opacity:0; fill:none" points="
  932.387,1487.47 932.387,1479.28 
  "/>
<polyline clip-path="url(#clip3900)" style="stroke:#000000; stroke-width:4; stroke-opacity:0; fill:none" points="
  965.998,1487.47 965.998,1479.28 
  "/>
<polyline clip-path="url(#clip3900)" style="stroke:#000000; stroke-width:4; stroke-opacity:0; fill:none" points="
  1033.22,1487.47 1033.22,1479.28 
  "/>
<polyline clip-path="url(#clip3900)" style="stroke:#000000; stroke-width:4; stroke-opacity:0; fill:none" points="
  1066.83,1487.47 1066.83,1479.28 
  "/>
<polyline clip-path="url(#clip3900)" style="stroke:#000000; stroke-width:4; stroke-opacity:0; fill:none" points="
  1100.44,1487.47 1100.44,1479.28 
  "/>
<polyline clip-path="url(#clip3900)" style="stroke:#000000; stroke-width:4; stroke-opacity:0; fill:none" points="
  167.279,1451.06 178.729,1451.06 
  "/>
<polyline clip-path="url(#clip3900)" style="stroke:#000000; stroke-width:4; stroke-opacity:0; fill:none" points="
  167.279,1226.98 178.729,1226.98 
  "/>
<polyline clip-path="url(#clip3900)" style="stroke:#000000; stroke-width:4; stroke-opacity:0; fill:none" points="
  167.279,1002.89 178.729,1002.89 
  "/>
<polyline clip-path="url(#clip3900)" style="stroke:#000000; stroke-width:4; stroke-opacity:0; fill:none" points="
  167.279,778.805 178.729,778.805 
  "/>
<polyline clip-path="url(#clip3900)" style="stroke:#000000; stroke-width:4; stroke-opacity:0; fill:none" points="
  167.279,554.72 178.729,554.72 
  "/>
<polyline clip-path="url(#clip3900)" style="stroke:#000000; stroke-width:4; stroke-opacity:0; fill:none" points="
  167.279,330.635 178.729,330.635 
  "/>
<polyline clip-path="url(#clip3900)" style="stroke:#000000; stroke-width:4; stroke-opacity:0; fill:none" points="
  167.279,1406.24 173.004,1406.24 
  "/>
<polyline clip-path="url(#clip3900)" style="stroke:#000000; stroke-width:4; stroke-opacity:0; fill:none" points="
  167.279,1361.43 173.004,1361.43 
  "/>
<polyline clip-path="url(#clip3900)" style="stroke:#000000; stroke-width:4; stroke-opacity:0; fill:none" points="
  167.279,1316.61 173.004,1316.61 
  "/>
<polyline clip-path="url(#clip3900)" style="stroke:#000000; stroke-width:4; stroke-opacity:0; fill:none" points="
  167.279,1271.79 173.004,1271.79 
  "/>
<polyline clip-path="url(#clip3900)" style="stroke:#000000; stroke-width:4; stroke-opacity:0; fill:none" points="
  167.279,1182.16 173.004,1182.16 
  "/>
<polyline clip-path="url(#clip3900)" style="stroke:#000000; stroke-width:4; stroke-opacity:0; fill:none" points="
  167.279,1137.34 173.004,1137.34 
  "/>
<polyline clip-path="url(#clip3900)" style="stroke:#000000; stroke-width:4; stroke-opacity:0; fill:none" points="
  167.279,1092.52 173.004,1092.52 
  "/>
<polyline clip-path="url(#clip3900)" style="stroke:#000000; stroke-width:4; stroke-opacity:0; fill:none" points="
  167.279,1047.71 173.004,1047.71 
  "/>
<polyline clip-path="url(#clip3900)" style="stroke:#000000; stroke-width:4; stroke-opacity:0; fill:none" points="
  167.279,958.073 173.004,958.073 
  "/>
<polyline clip-path="url(#clip3900)" style="stroke:#000000; stroke-width:4; stroke-opacity:0; fill:none" points="
  167.279,913.256 173.004,913.256 
  "/>
<polyline clip-path="url(#clip3900)" style="stroke:#000000; stroke-width:4; stroke-opacity:0; fill:none" points="
  167.279,868.439 173.004,868.439 
  "/>
<polyline clip-path="url(#clip3900)" style="stroke:#000000; stroke-width:4; stroke-opacity:0; fill:none" points="
  167.279,823.622 173.004,823.622 
  "/>
<polyline clip-path="url(#clip3900)" style="stroke:#000000; stroke-width:4; stroke-opacity:0; fill:none" points="
  167.279,733.988 173.004,733.988 
  "/>
<polyline clip-path="url(#clip3900)" style="stroke:#000000; stroke-width:4; stroke-opacity:0; fill:none" points="
  167.279,689.171 173.004,689.171 
  "/>
<polyline clip-path="url(#clip3900)" style="stroke:#000000; stroke-width:4; stroke-opacity:0; fill:none" points="
  167.279,644.354 173.004,644.354 
  "/>
<polyline clip-path="url(#clip3900)" style="stroke:#000000; stroke-width:4; stroke-opacity:0; fill:none" points="
  167.279,599.537 173.004,599.537 
  "/>
<polyline clip-path="url(#clip3900)" style="stroke:#000000; stroke-width:4; stroke-opacity:0; fill:none" points="
  167.279,509.903 173.004,509.903 
  "/>
<polyline clip-path="url(#clip3900)" style="stroke:#000000; stroke-width:4; stroke-opacity:0; fill:none" points="
  167.279,465.086 173.004,465.086 
  "/>
<polyline clip-path="url(#clip3900)" style="stroke:#000000; stroke-width:4; stroke-opacity:0; fill:none" points="
  167.279,420.269 173.004,420.269 
  "/>
<polyline clip-path="url(#clip3900)" style="stroke:#000000; stroke-width:4; stroke-opacity:0; fill:none" points="
  167.279,375.452 173.004,375.452 
  "/>
<polyline clip-path="url(#clip3900)" style="stroke:#000000; stroke-width:4; stroke-opacity:0; fill:none" points="
  167.279,285.818 173.004,285.818 
  "/>
<polyline clip-path="url(#clip3900)" style="stroke:#000000; stroke-width:4; stroke-opacity:0; fill:none" points="
  167.279,241.001 173.004,241.001 
  "/>
<polyline clip-path="url(#clip3900)" style="stroke:#000000; stroke-width:4; stroke-opacity:0; fill:none" points="
  167.279,196.183 173.004,196.183 
  "/>
<polyline clip-path="url(#clip3900)" style="stroke:#000000; stroke-width:4; stroke-opacity:0; fill:none" points="
  167.279,151.366 173.004,151.366 
  "/>
<g clip-path="url(#clip3900)">
<text style="fill:#000000; fill-opacity:1; font-family:Arial,Helvetica Neue,Helvetica,sans-serif; font-size:48px; text-anchor:middle;" transform="rotate(0, 327.383, 1541.47)" x="327.383" y="1541.47">04:10</text>
</g>
<g clip-path="url(#clip3900)">
<text style="fill:#000000; fill-opacity:1; font-family:Arial,Helvetica Neue,Helvetica,sans-serif; font-size:48px; text-anchor:middle;" transform="rotate(0, 495.44, 1541.47)" x="495.44" y="1541.47">08:20</text>
</g>
<g clip-path="url(#clip3900)">
<text style="fill:#000000; fill-opacity:1; font-family:Arial,Helvetica Neue,Helvetica,sans-serif; font-size:48px; text-anchor:middle;" transform="rotate(0, 663.496, 1541.47)" x="663.496" y="1541.47">12:30</text>
</g>
<g clip-path="url(#clip3900)">
<text style="fill:#000000; fill-opacity:1; font-family:Arial,Helvetica Neue,Helvetica,sans-serif; font-size:48px; text-anchor:middle;" transform="rotate(0, 831.553, 1541.47)" x="831.553" y="1541.47">16:40</text>
</g>
<g clip-path="url(#clip3900)">
<text style="fill:#000000; fill-opacity:1; font-family:Arial,Helvetica Neue,Helvetica,sans-serif; font-size:48px; text-anchor:middle;" transform="rotate(0, 999.61, 1541.47)" x="999.61" y="1541.47">20:50</text>
</g>
<g clip-path="url(#clip3900)">
<text style="fill:#000000; fill-opacity:1; font-family:Arial,Helvetica Neue,Helvetica,sans-serif; font-size:48px; text-anchor:end;" transform="rotate(0, 143.279, 1468.56)" x="143.279" y="1468.56">0</text>
</g>
<g clip-path="url(#clip3900)">
<text style="fill:#000000; fill-opacity:1; font-family:Arial,Helvetica Neue,Helvetica,sans-serif; font-size:48px; text-anchor:end;" transform="rotate(0, 143.279, 1244.48)" x="143.279" y="1244.48">100</text>
</g>
<g clip-path="url(#clip3900)">
<text style="fill:#000000; fill-opacity:1; font-family:Arial,Helvetica Neue,Helvetica,sans-serif; font-size:48px; text-anchor:end;" transform="rotate(0, 143.279, 1020.39)" x="143.279" y="1020.39">200</text>
</g>
<g clip-path="url(#clip3900)">
<text style="fill:#000000; fill-opacity:1; font-family:Arial,Helvetica Neue,Helvetica,sans-serif; font-size:48px; text-anchor:end;" transform="rotate(0, 143.279, 796.305)" x="143.279" y="796.305">300</text>
</g>
<g clip-path="url(#clip3900)">
<text style="fill:#000000; fill-opacity:1; font-family:Arial,Helvetica Neue,Helvetica,sans-serif; font-size:48px; text-anchor:end;" transform="rotate(0, 143.279, 572.22)" x="143.279" y="572.22">400</text>
</g>
<g clip-path="url(#clip3900)">
<text style="fill:#000000; fill-opacity:1; font-family:Arial,Helvetica Neue,Helvetica,sans-serif; font-size:48px; text-anchor:end;" transform="rotate(0, 143.279, 348.135)" x="143.279" y="348.135">500</text>
</g>
<g clip-path="url(#clip3900)">
<text style="fill:#000000; fill-opacity:1; font-family:Arial,Helvetica Neue,Helvetica,sans-serif; font-size:84px; text-anchor:middle;" transform="rotate(0, 644.338, 73.2)" x="644.338" y="73.2">linear scale</text>
</g>
<polyline clip-path="url(#clip3902)" style="stroke:#4477aa; stroke-width:4.8; stroke-opacity:1; fill:none" points="
  194.282,1448.82 234.616,1442.1 264.194,1430.89 315.955,1415.21 353.6,1395.04 361.667,1370.39 439.645,1341.26 447.712,1307.65 493.423,1269.55 556.612,1226.98 
  598.29,1179.92 608.374,1128.38 668.202,1072.36 692.402,1011.85 742.147,946.869 799.958,877.403 822.814,803.455 864.492,725.025 890.037,642.113 929.698,554.72 
  965.998,462.845 1016.42,366.488 1069.52,265.65 1094.39,160.33 
  "/>
<path clip-path="url(#clip3900)" d="
M239.279 326.155 L530.108 326.155 L530.108 205.195 L239.279 205.195  Z
  " fill="#ffffff" fill-rule="evenodd" fill-opacity="0.9"/>
<polyline clip-path="url(#clip3900)" style="stroke:#222255; stroke-width:4; stroke-opacity:0.1; fill:none" points="
  239.279,326.155 530.108,326.155 530.108,205.195 239.279,205.195 239.279,326.155 
  "/>
<polyline clip-path="url(#clip3900)" style="stroke:#4477aa; stroke-width:4.8; stroke-opacity:1; fill:none" points="
  263.279,265.675 407.279,265.675 
  "/>
<g clip-path="url(#clip3900)">
<text style="fill:#000000; fill-opacity:1; font-family:Arial,Helvetica Neue,Helvetica,sans-serif; font-size:48px; text-anchor:start;" transform="rotate(0, 431.279, 283.175)" x="431.279" y="283.175">y1</text>
</g>
<path clip-path="url(#clip3900)" d="
M1398.64 1487.47 L2352.76 1487.47 L2352.76 121.675 L1398.64 121.675  Z
  " fill="#ffffff" fill-rule="evenodd" fill-opacity="1"/>
<defs>
  <clipPath id="clip3903">
    <rect x="1398" y="121" width="955" height="1367"/>
  </clipPath>
</defs>
<polyline clip-path="url(#clip3903)" style="stroke:#000000; stroke-width:2; stroke-opacity:0.1; fill:none" points="
  1558.74,1487.47 1558.74,121.675 
  "/>
<polyline clip-path="url(#clip3903)" style="stroke:#000000; stroke-width:2; stroke-opacity:0.1; fill:none" points="
  1726.8,1487.47 1726.8,121.675 
  "/>
<polyline clip-path="url(#clip3903)" style="stroke:#000000; stroke-width:2; stroke-opacity:0.1; fill:none" points="
  1894.86,1487.47 1894.86,121.675 
  "/>
<polyline clip-path="url(#clip3903)" style="stroke:#000000; stroke-width:2; stroke-opacity:0.1; fill:none" points="
  2062.91,1487.47 2062.91,121.675 
  "/>
<polyline clip-path="url(#clip3903)" style="stroke:#000000; stroke-width:2; stroke-opacity:0.1; fill:none" points="
  2230.97,1487.47 2230.97,121.675 
  "/>
<polyline clip-path="url(#clip3903)" style="stroke:#000000; stroke-width:2; stroke-opacity:0.1; fill:none" points="
  1398.64,1448.82 2352.76,1448.82 
  "/>
<polyline clip-path="url(#clip3903)" style="stroke:#000000; stroke-width:2; stroke-opacity:0.1; fill:none" points="
  1398.64,1215.43 2352.76,1215.43 
  "/>
<polyline clip-path="url(#clip3903)" style="stroke:#000000; stroke-width:2; stroke-opacity:0.1; fill:none" points="
  1398.64,982.047 2352.76,982.047 
  "/>
<polyline clip-path="url(#clip3903)" style="stroke:#000000; stroke-width:2; stroke-opacity:0.1; fill:none" points="
  1398.64,748.661 2352.76,748.661 
  "/>
<polyline clip-path="url(#clip3903)" style="stroke:#000000; stroke-width:2; stroke-opacity:0.1; fill:none" points="
  1398.64,515.274 2352.76,515.274 
  "/>
<polyline clip-path="url(#clip3903)" style="stroke:#000000; stroke-width:2; stroke-opacity:0.1; fill:none" points="
  1398.64,281.888 2352.76,281.888 
  "/>
<polyline clip-path="url(#clip3903)" style="stroke:#000000; stroke-width:2; stroke-opacity:0.05; fill:none" points="
  1424.3,1487.47 1424.3,121.675 
  "/>
<polyline clip-path="url(#clip3903)" style="stroke:#000000; stroke-width:2; stroke-opacity:0.05; fill:none" points="
  1457.91,1487.47 1457.91,121.675 
  "/>
<polyline clip-path="url(#clip3903)" style="stroke:#000000; stroke-width:2; stroke-opacity:0.05; fill:none" points="
  1491.52,1487.47 1491.52,121.675 
  "/>
<polyline clip-path="url(#clip3903)" style="stroke:#000000; stroke-width:2; stroke-opacity:0.05; fill:none" points="
  1525.13,1487.47 1525.13,121.675 
  "/>
<polyline clip-path="url(#clip3903)" style="stroke:#000000; stroke-width:2; stroke-opacity:0.05; fill:none" points="
  1592.35,1487.47 1592.35,121.675 
  "/>
<polyline clip-path="url(#clip3903)" style="stroke:#000000; stroke-width:2; stroke-opacity:0.05; fill:none" points="
  1625.97,1487.47 1625.97,121.675 
  "/>
<polyline clip-path="url(#clip3903)" style="stroke:#000000; stroke-width:2; stroke-opacity:0.05; fill:none" points="
  1659.58,1487.47 1659.58,121.675 
  "/>
<polyline clip-path="url(#clip3903)" style="stroke:#000000; stroke-width:2; stroke-opacity:0.05; fill:none" points="
  1693.19,1487.47 1693.19,121.675 
  "/>
<polyline clip-path="url(#clip3903)" style="stroke:#000000; stroke-width:2; stroke-opacity:0.05; fill:none" points="
  1760.41,1487.47 1760.41,121.675 
  "/>
<polyline clip-path="url(#clip3903)" style="stroke:#000000; stroke-width:2; stroke-opacity:0.05; fill:none" points="
  1794.02,1487.47 1794.02,121.675 
  "/>
<polyline clip-path="url(#clip3903)" style="stroke:#000000; stroke-width:2; stroke-opacity:0.05; fill:none" points="
  1827.63,1487.47 1827.63,121.675 
  "/>
<polyline clip-path="url(#clip3903)" style="stroke:#000000; stroke-width:2; stroke-opacity:0.05; fill:none" points="
  1861.24,1487.47 1861.24,121.675 
  "/>
<polyline clip-path="url(#clip3903)" style="stroke:#000000; stroke-width:2; stroke-opacity:0.05; fill:none" points="
  1928.47,1487.47 1928.47,121.675 
  "/>
<polyline clip-path="url(#clip3903)" style="stroke:#000000; stroke-width:2; stroke-opacity:0.05; fill:none" points="
  1962.08,1487.47 1962.08,121.675 
  "/>
<polyline clip-path="url(#clip3903)" style="stroke:#000000; stroke-width:2; stroke-opacity:0.05; fill:none" points="
  1995.69,1487.47 1995.69,121.675 
  "/>
<polyline clip-path="url(#clip3903)" style="stroke:#000000; stroke-width:2; stroke-opacity:0.05; fill:none" points="
  2029.3,1487.47 2029.3,121.675 
  "/>
<polyline clip-path="url(#clip3903)" style="stroke:#000000; stroke-width:2; stroke-opacity:0.05; fill:none" points="
  2096.52,1487.47 2096.52,121.675 
  "/>
<polyline clip-path="url(#clip3903)" style="stroke:#000000; stroke-width:2; stroke-opacity:0.05; fill:none" points="
  2130.13,1487.47 2130.13,121.675 
  "/>
<polyline clip-path="url(#clip3903)" style="stroke:#000000; stroke-width:2; stroke-opacity:0.05; fill:none" points="
  2163.75,1487.47 2163.75,121.675 
  "/>
<polyline clip-path="url(#clip3903)" style="stroke:#000000; stroke-width:2; stroke-opacity:0.05; fill:none" points="
  2197.36,1487.47 2197.36,121.675 
  "/>
<polyline clip-path="url(#clip3903)" style="stroke:#000000; stroke-width:2; stroke-opacity:0.05; fill:none" points="
  2264.58,1487.47 2264.58,121.675 
  "/>
<polyline clip-path="url(#clip3903)" style="stroke:#000000; stroke-width:2; stroke-opacity:0.05; fill:none" points="
  2298.19,1487.47 2298.19,121.675 
  "/>
<polyline clip-path="url(#clip3903)" style="stroke:#000000; stroke-width:2; stroke-opacity:0.05; fill:none" points="
  2331.8,1487.47 2331.8,121.675 
  "/>
<polyline clip-path="url(#clip3903)" style="stroke:#000000; stroke-width:2; stroke-opacity:0.05; fill:none" points="
  1398.64,1478.63 2352.76,1478.63 
  "/>
<polyline clip-path="url(#clip3903)" style="stroke:#000000; stroke-width:2; stroke-opacity:0.05; fill:none" points="
  1398.64,1375.97 2352.76,1375.97 
  "/>
<polyline clip-path="url(#clip3903)" style="stroke:#000000; stroke-width:2; stroke-opacity:0.05; fill:none" points="
  1398.64,1322.48 2352.76,1322.48 
  "/>
<polyline clip-path="url(#clip3903)" style="stroke:#000000; stroke-width:2; stroke-opacity:0.05; fill:none" points="
  1398.64,1280.21 2352.76,1280.21 
  "/>
<polyline clip-path="url(#clip3903)" style="stroke:#000000; stroke-width:2; stroke-opacity:0.05; fill:none" points="
  1398.64,1245.24 2352.76,1245.24 
  "/>
<polyline clip-path="url(#clip3903)" style="stroke:#000000; stroke-width:2; stroke-opacity:0.05; fill:none" points="
  1398.64,1142.58 2352.76,1142.58 
  "/>
<polyline clip-path="url(#clip3903)" style="stroke:#000000; stroke-width:2; stroke-opacity:0.05; fill:none" points="
  1398.64,1089.1 2352.76,1089.1 
  "/>
<polyline clip-path="url(#clip3903)" style="stroke:#000000; stroke-width:2; stroke-opacity:0.05; fill:none" points="
  1398.64,1046.82 2352.76,1046.82 
  "/>
<polyline clip-path="url(#clip3903)" style="stroke:#000000; stroke-width:2; stroke-opacity:0.05; fill:none" points="
  1398.64,1011.86 2352.76,1011.86 
  "/>
<polyline clip-path="url(#clip3903)" style="stroke:#000000; stroke-width:2; stroke-opacity:0.05; fill:none" points="
  1398.64,909.193 2352.76,909.193 
  "/>
<polyline clip-path="url(#clip3903)" style="stroke:#000000; stroke-width:2; stroke-opacity:0.05; fill:none" points="
  1398.64,855.711 2352.76,855.711 
  "/>
<polyline clip-path="url(#clip3903)" style="stroke:#000000; stroke-width:2; stroke-opacity:0.05; fill:none" points="
  1398.64,813.435 2352.76,813.435 
  "/>
<polyline clip-path="url(#clip3903)" style="stroke:#000000; stroke-width:2; stroke-opacity:0.05; fill:none" points="
  1398.64,778.472 2352.76,778.472 
  "/>
<polyline clip-path="url(#clip3903)" style="stroke:#000000; stroke-width:2; stroke-opacity:0.05; fill:none" points="
  1398.64,675.806 2352.76,675.806 
  "/>
<polyline clip-path="url(#clip3903)" style="stroke:#000000; stroke-width:2; stroke-opacity:0.05; fill:none" points="
  1398.64,622.325 2352.76,622.325 
  "/>
<polyline clip-path="url(#clip3903)" style="stroke:#000000; stroke-width:2; stroke-opacity:0.05; fill:none" points="
  1398.64,580.048 2352.76,580.048 
  "/>
<polyline clip-path="url(#clip3903)" style="stroke:#000000; stroke-width:2; stroke-opacity:0.05; fill:none" points="
  1398.64,545.085 2352.76,545.085 
  "/>
<polyline clip-path="url(#clip3903)" style="stroke:#000000; stroke-width:2; stroke-opacity:0.05; fill:none" points="
  1398.64,442.42 2352.76,442.42 
  "/>
<polyline clip-path="url(#clip3903)" style="stroke:#000000; stroke-width:2; stroke-opacity:0.05; fill:none" points="
  1398.64,388.939 2352.76,388.939 
  "/>
<polyline clip-path="url(#clip3903)" style="stroke:#000000; stroke-width:2; stroke-opacity:0.05; fill:none" points="
  1398.64,346.662 2352.76,346.662 
  "/>
<polyline clip-path="url(#clip3903)" style="stroke:#000000; stroke-width:2; stroke-opacity:0.05; fill:none" points="
  1398.64,311.699 2352.76,311.699 
  "/>
<polyline clip-path="url(#clip3903)" style="stroke:#000000; stroke-width:2; stroke-opacity:0.05; fill:none" points="
  1398.64,209.034 2352.76,209.034 
  "/>
<polyline clip-path="url(#clip3903)" style="stroke:#000000; stroke-width:2; stroke-opacity:0.05; fill:none" points="
  1398.64,155.552 2352.76,155.552 
  "/>
<polyline clip-path="url(#clip3900)" style="stroke:#000000; stroke-width:4; stroke-opacity:0; fill:none" points="
  1558.74,1487.47 1558.74,1471.09 
  "/>
<polyline clip-path="url(#clip3900)" style="stroke:#000000; stroke-width:4; stroke-opacity:0; fill:none" points="
  1726.8,1487.47 1726.8,1471.09 
  "/>
<polyline clip-path="url(#clip3900)" style="stroke:#000000; stroke-width:4; stroke-opacity:0; fill:none" points="
  1894.86,1487.47 1894.86,1471.09 
  "/>
<polyline clip-path="url(#clip3900)" style="stroke:#000000; stroke-width:4; stroke-opacity:0; fill:none" points="
  2062.91,1487.47 2062.91,1471.09 
  "/>
<polyline clip-path="url(#clip3900)" style="stroke:#000000; stroke-width:4; stroke-opacity:0; fill:none" points="
  2230.97,1487.47 2230.97,1471.09 
  "/>
<polyline clip-path="url(#clip3900)" style="stroke:#000000; stroke-width:4; stroke-opacity:0; fill:none" points="
  1424.3,1487.47 1424.3,1479.28 
  "/>
<polyline clip-path="url(#clip3900)" style="stroke:#000000; stroke-width:4; stroke-opacity:0; fill:none" points="
  1457.91,1487.47 1457.91,1479.28 
  "/>
<polyline clip-path="url(#clip3900)" style="stroke:#000000; stroke-width:4; stroke-opacity:0; fill:none" points="
  1491.52,1487.47 1491.52,1479.28 
  "/>
<polyline clip-path="url(#clip3900)" style="stroke:#000000; stroke-width:4; stroke-opacity:0; fill:none" points="
  1525.13,1487.47 1525.13,1479.28 
  "/>
<polyline clip-path="url(#clip3900)" style="stroke:#000000; stroke-width:4; stroke-opacity:0; fill:none" points="
  1592.35,1487.47 1592.35,1479.28 
  "/>
<polyline clip-path="url(#clip3900)" style="stroke:#000000; stroke-width:4; stroke-opacity:0; fill:none" points="
  1625.97,1487.47 1625.97,1479.28 
  "/>
<polyline clip-path="url(#clip3900)" style="stroke:#000000; stroke-width:4; stroke-opacity:0; fill:none" points="
  1659.58,1487.47 1659.58,1479.28 
  "/>
<polyline clip-path="url(#clip3900)" style="stroke:#000000; stroke-width:4; stroke-opacity:0; fill:none" points="
  1693.19,1487.47 1693.19,1479.28 
  "/>
<polyline clip-path="url(#clip3900)" style="stroke:#000000; stroke-width:4; stroke-opacity:0; fill:none" points="
  1760.41,1487.47 1760.41,1479.28 
  "/>
<polyline clip-path="url(#clip3900)" style="stroke:#000000; stroke-width:4; stroke-opacity:0; fill:none" points="
  1794.02,1487.47 1794.02,1479.28 
  "/>
<polyline clip-path="url(#clip3900)" style="stroke:#000000; stroke-width:4; stroke-opacity:0; fill:none" points="
  1827.63,1487.47 1827.63,1479.28 
  "/>
<polyline clip-path="url(#clip3900)" style="stroke:#000000; stroke-width:4; stroke-opacity:0; fill:none" points="
  1861.24,1487.47 1861.24,1479.28 
  "/>
<polyline clip-path="url(#clip3900)" style="stroke:#000000; stroke-width:4; stroke-opacity:0; fill:none" points="
  1928.47,1487.47 1928.47,1479.28 
  "/>
<polyline clip-path="url(#clip3900)" style="stroke:#000000; stroke-width:4; stroke-opacity:0; fill:none" points="
  1962.08,1487.47 1962.08,1479.28 
  "/>
<polyline clip-path="url(#clip3900)" style="stroke:#000000; stroke-width:4; stroke-opacity:0; fill:none" points="
  1995.69,1487.47 1995.69,1479.28 
  "/>
<polyline clip-path="url(#clip3900)" style="stroke:#000000; stroke-width:4; stroke-opacity:0; fill:none" points="
  2029.3,1487.47 2029.3,1479.28 
  "/>
<polyline clip-path="url(#clip3900)" style="stroke:#000000; stroke-width:4; stroke-opacity:0; fill:none" points="
  2096.52,1487.47 2096.52,1479.28 
  "/>
<polyline clip-path="url(#clip3900)" style="stroke:#000000; stroke-width:4; stroke-opacity:0; fill:none" points="
  2130.13,1487.47 2130.13,1479.28 
  "/>
<polyline clip-path="url(#clip3900)" style="stroke:#000000; stroke-width:4; stroke-opacity:0; fill:none" points="
  2163.75,1487.47 2163.75,1479.28 
  "/>
<polyline clip-path="url(#clip3900)" style="stroke:#000000; stroke-width:4; stroke-opacity:0; fill:none" points="
  2197.36,1487.47 2197.36,1479.28 
  "/>
<polyline clip-path="url(#clip3900)" style="stroke:#000000; stroke-width:4; stroke-opacity:0; fill:none" points="
  2264.58,1487.47 2264.58,1479.28 
  "/>
<polyline clip-path="url(#clip3900)" style="stroke:#000000; stroke-width:4; stroke-opacity:0; fill:none" points="
  2298.19,1487.47 2298.19,1479.28 
  "/>
<polyline clip-path="url(#clip3900)" style="stroke:#000000; stroke-width:4; stroke-opacity:0; fill:none" points="
  2331.8,1487.47 2331.8,1479.28 
  "/>
<polyline clip-path="url(#clip3900)" style="stroke:#000000; stroke-width:4; stroke-opacity:0; fill:none" points="
  1398.64,1448.82 1410.09,1448.82 
  "/>
<polyline clip-path="url(#clip3900)" style="stroke:#000000; stroke-width:4; stroke-opacity:0; fill:none" points="
  1398.64,1215.43 1410.09,1215.43 
  "/>
<polyline clip-path="url(#clip3900)" style="stroke:#000000; stroke-width:4; stroke-opacity:0; fill:none" points="
  1398.64,982.047 1410.09,982.047 
  "/>
<polyline clip-path="url(#clip3900)" style="stroke:#000000; stroke-width:4; stroke-opacity:0; fill:none" points="
  1398.64,748.661 1410.09,748.661 
  "/>
<polyline clip-path="url(#clip3900)" style="stroke:#000000; stroke-width:4; stroke-opacity:0; fill:none" points="
  1398.64,515.274 1410.09,515.274 
  "/>
<polyline clip-path="url(#clip3900)" style="stroke:#000000; stroke-width:4; stroke-opacity:0; fill:none" points="
  1398.64,281.888 1410.09,281.888 
  "/>
<polyline clip-path="url(#clip3900)" style="stroke:#000000; stroke-width:4; stroke-opacity:0; fill:none" points="
  1398.64,1478.63 1404.36,1478.63 
  "/>
<polyline clip-path="url(#clip3900)" style="stroke:#000000; stroke-width:4; stroke-opacity:0; fill:none" points="
  1398.64,1375.97 1404.36,1375.97 
  "/>
<polyline clip-path="url(#clip3900)" style="stroke:#000000; stroke-width:4; stroke-opacity:0; fill:none" points="
  1398.64,1322.48 1404.36,1322.48 
  "/>
<polyline clip-path="url(#clip3900)" style="stroke:#000000; stroke-width:4; stroke-opacity:0; fill:none" points="
  1398.64,1280.21 1404.36,1280.21 
  "/>
<polyline clip-path="url(#clip3900)" style="stroke:#000000; stroke-width:4; stroke-opacity:0; fill:none" points="
  1398.64,1245.24 1404.36,1245.24 
  "/>
<polyline clip-path="url(#clip3900)" style="stroke:#000000; stroke-width:4; stroke-opacity:0; fill:none" points="
  1398.64,1142.58 1404.36,1142.58 
  "/>
<polyline clip-path="url(#clip3900)" style="stroke:#000000; stroke-width:4; stroke-opacity:0; fill:none" points="
  1398.64,1089.1 1404.36,1089.1 
  "/>
<polyline clip-path="url(#clip3900)" style="stroke:#000000; stroke-width:4; stroke-opacity:0; fill:none" points="
  1398.64,1046.82 1404.36,1046.82 
  "/>
<polyline clip-path="url(#clip3900)" style="stroke:#000000; stroke-width:4; stroke-opacity:0; fill:none" points="
  1398.64,1011.86 1404.36,1011.86 
  "/>
<polyline clip-path="url(#clip3900)" style="stroke:#000000; stroke-width:4; stroke-opacity:0; fill:none" points="
  1398.64,909.193 1404.36,909.193 
  "/>
<polyline clip-path="url(#clip3900)" style="stroke:#000000; stroke-width:4; stroke-opacity:0; fill:none" points="
  1398.64,855.711 1404.36,855.711 
  "/>
<polyline clip-path="url(#clip3900)" style="stroke:#000000; stroke-width:4; stroke-opacity:0; fill:none" points="
  1398.64,813.435 1404.36,813.435 
  "/>
<polyline clip-path="url(#clip3900)" style="stroke:#000000; stroke-width:4; stroke-opacity:0; fill:none" points="
  1398.64,778.472 1404.36,778.472 
  "/>
<polyline clip-path="url(#clip3900)" style="stroke:#000000; stroke-width:4; stroke-opacity:0; fill:none" points="
  1398.64,675.806 1404.36,675.806 
  "/>
<polyline clip-path="url(#clip3900)" style="stroke:#000000; stroke-width:4; stroke-opacity:0; fill:none" points="
  1398.64,622.325 1404.36,622.325 
  "/>
<polyline clip-path="url(#clip3900)" style="stroke:#000000; stroke-width:4; stroke-opacity:0; fill:none" points="
  1398.64,580.048 1404.36,580.048 
  "/>
<polyline clip-path="url(#clip3900)" style="stroke:#000000; stroke-width:4; stroke-opacity:0; fill:none" points="
  1398.64,545.085 1404.36,545.085 
  "/>
<polyline clip-path="url(#clip3900)" style="stroke:#000000; stroke-width:4; stroke-opacity:0; fill:none" points="
  1398.64,442.42 1404.36,442.42 
  "/>
<polyline clip-path="url(#clip3900)" style="stroke:#000000; stroke-width:4; stroke-opacity:0; fill:none" points="
  1398.64,388.939 1404.36,388.939 
  "/>
<polyline clip-path="url(#clip3900)" style="stroke:#000000; stroke-width:4; stroke-opacity:0; fill:none" points="
  1398.64,346.662 1404.36,346.662 
  "/>
<polyline clip-path="url(#clip3900)" style="stroke:#000000; stroke-width:4; stroke-opacity:0; fill:none" points="
  1398.64,311.699 1404.36,311.699 
  "/>
<polyline clip-path="url(#clip3900)" style="stroke:#000000; stroke-width:4; stroke-opacity:0; fill:none" points="
  1398.64,209.034 1404.36,209.034 
  "/>
<polyline clip-path="url(#clip3900)" style="stroke:#000000; stroke-width:4; stroke-opacity:0; fill:none" points="
  1398.64,155.552 1404.36,155.552 
  "/>
<g clip-path="url(#clip3900)">
<text style="fill:#000000; fill-opacity:1; font-family:Arial,Helvetica Neue,Helvetica,sans-serif; font-size:48px; text-anchor:middle;" transform="rotate(0, 1558.74, 1541.47)" x="1558.74" y="1541.47">04:10</text>
</g>
<g clip-path="url(#clip3900)">
<text style="fill:#000000; fill-opacity:1; font-family:Arial,Helvetica Neue,Helvetica,sans-serif; font-size:48px; text-anchor:middle;" transform="rotate(0, 1726.8, 1541.47)" x="1726.8" y="1541.47">08:20</text>
</g>
<g clip-path="url(#clip3900)">
<text style="fill:#000000; fill-opacity:1; font-family:Arial,Helvetica Neue,Helvetica,sans-serif; font-size:48px; text-anchor:middle;" transform="rotate(0, 1894.86, 1541.47)" x="1894.86" y="1541.47">12:30</text>
</g>
<g clip-path="url(#clip3900)">
<text style="fill:#000000; fill-opacity:1; font-family:Arial,Helvetica Neue,Helvetica,sans-serif; font-size:48px; text-anchor:middle;" transform="rotate(0, 2062.91, 1541.47)" x="2062.91" y="1541.47">16:40</text>
</g>
<g clip-path="url(#clip3900)">
<text style="fill:#000000; fill-opacity:1; font-family:Arial,Helvetica Neue,Helvetica,sans-serif; font-size:48px; text-anchor:middle;" transform="rotate(0, 2230.97, 1541.47)" x="2230.97" y="1541.47">20:50</text>
</g>
<g clip-path="url(#clip3900)">
<text style="fill:#000000; fill-opacity:1; font-family:Arial,Helvetica Neue,Helvetica,sans-serif; font-size:48px; text-anchor:start;" transform="rotate(0, 1266.75, 1472.55)" x="1266.75" y="1472.55">10</text>
</g>
<g clip-path="url(#clip3900)">
<text style="fill:#000000; fill-opacity:1; font-family:Arial,Helvetica Neue,Helvetica,sans-serif; font-size:38px; text-anchor:start;" transform="rotate(0, 1320.28, 1445.14)" x="1320.28" y="1445.14">0.0</text>
</g>
<g clip-path="url(#clip3900)">
<text style="fill:#000000; fill-opacity:1; font-family:Arial,Helvetica Neue,Helvetica,sans-serif; font-size:48px; text-anchor:start;" transform="rotate(0, 1266.75, 1239.16)" x="1266.75" y="1239.16">10</text>
</g>
<g clip-path="url(#clip3900)">
<text style="fill:#000000; fill-opacity:1; font-family:Arial,Helvetica Neue,Helvetica,sans-serif; font-size:38px; text-anchor:start;" transform="rotate(0, 1320.28, 1211.75)" x="1320.28" y="1211.75">0.5</text>
</g>
<g clip-path="url(#clip3900)">
<text style="fill:#000000; fill-opacity:1; font-family:Arial,Helvetica Neue,Helvetica,sans-serif; font-size:48px; text-anchor:start;" transform="rotate(0, 1266.75, 1005.77)" x="1266.75" y="1005.77">10</text>
</g>
<g clip-path="url(#clip3900)">
<text style="fill:#000000; fill-opacity:1; font-family:Arial,Helvetica Neue,Helvetica,sans-serif; font-size:38px; text-anchor:start;" transform="rotate(0, 1320.28, 978.364)" x="1320.28" y="978.364">1.0</text>
</g>
<g clip-path="url(#clip3900)">
<text style="fill:#000000; fill-opacity:1; font-family:Arial,Helvetica Neue,Helvetica,sans-serif; font-size:48px; text-anchor:start;" transform="rotate(0, 1266.75, 772.388)" x="1266.75" y="772.388">10</text>
</g>
<g clip-path="url(#clip3900)">
<text style="fill:#000000; fill-opacity:1; font-family:Arial,Helvetica Neue,Helvetica,sans-serif; font-size:38px; text-anchor:start;" transform="rotate(0, 1320.28, 744.978)" x="1320.28" y="744.978">1.5</text>
</g>
<g clip-path="url(#clip3900)">
<text style="fill:#000000; fill-opacity:1; font-family:Arial,Helvetica Neue,Helvetica,sans-serif; font-size:48px; text-anchor:start;" transform="rotate(0, 1266.75, 539.002)" x="1266.75" y="539.002">10</text>
</g>
<g clip-path="url(#clip3900)">
<text style="fill:#000000; fill-opacity:1; font-family:Arial,Helvetica Neue,Helvetica,sans-serif; font-size:38px; text-anchor:start;" transform="rotate(0, 1320.28, 511.592)" x="1320.28" y="511.592">2.0</text>
</g>
<g clip-path="url(#clip3900)">
<text style="fill:#000000; fill-opacity:1; font-family:Arial,Helvetica Neue,Helvetica,sans-serif; font-size:48px; text-anchor:start;" transform="rotate(0, 1266.75, 305.616)" x="1266.75" y="305.616">10</text>
</g>
<g clip-path="url(#clip3900)">
<text style="fill:#000000; fill-opacity:1; font-family:Arial,Helvetica Neue,Helvetica,sans-serif; font-size:38px; text-anchor:start;" transform="rotate(0, 1320.28, 278.205)" x="1320.28" y="278.205">2.5</text>
</g>
<g clip-path="url(#clip3900)">
<text style="fill:#000000; fill-opacity:1; font-family:Arial,Helvetica Neue,Helvetica,sans-serif; font-size:84px; text-anchor:middle;" transform="rotate(0, 1875.7, 73.2)" x="1875.7" y="73.2">log scale</text>
</g>
<polyline clip-path="url(#clip3903)" style="stroke:#4477aa; stroke-width:4.8; stroke-opacity:1; fill:none" points="
  1425.64,1448.82 1465.98,1167.79 1495.55,1003.41 1547.31,886.77 1584.96,796.3 1593.03,722.38 1671,659.882 1679.07,605.744 1724.78,557.991 1787.97,515.274 
  1829.65,476.632 1839.73,441.355 1899.56,408.903 1923.76,378.857 1973.51,350.885 2031.32,324.719 2054.17,300.14 2095.85,276.966 2121.4,255.045 2161.06,234.249 
  2197.36,214.468 2247.77,195.607 2300.88,177.585 2325.75,160.33 
  "/>
<path clip-path="url(#clip3900)" d="
M1470.64 326.155 L1761.47 326.155 L1761.47 205.195 L1470.64 205.195  Z
  " fill="#ffffff" fill-rule="evenodd" fill-opacity="0.9"/>
<polyline clip-path="url(#clip3900)" style="stroke:#222255; stroke-width:4; stroke-opacity:0.1; fill:none" points="
  1470.64,326.155 1761.47,326.155 1761.47,205.195 1470.64,205.195 1470.64,326.155 
  "/>
<polyline clip-path="url(#clip3900)" style="stroke:#4477aa; stroke-width:4.8; stroke-opacity:1; fill:none" points="
  1494.64,265.675 1638.64,265.675 
  "/>
<g clip-path="url(#clip3900)">
<text style="fill:#000000; fill-opacity:1; font-family:Arial,Helvetica Neue,Helvetica,sans-serif; font-size:48px; text-anchor:start;" transform="rotate(0, 1662.64, 283.175)" x="1662.64" y="283.175">y1</text>
</g>
</svg>
