<?xml version="1.0" encoding="utf-8"?>
<svg xmlns="http://www.w3.org/2000/svg" xmlns:xlink="http://www.w3.org/1999/xlink" width="600" height="400" viewBox="0 0 2400 1600">
<defs>
  <clipPath id="clip5500">
    <rect x="0" y="0" width="2400" height="1600"/>
  </clipPath>
</defs>
<path clip-path="url(#clip5500)" d="
M0 1600 L2400 1600 L2400 0 L0 0  Z
  " fill="#ffffff" fill-rule="evenodd" fill-opacity="1"/>
<defs>
  <clipPath id="clip5501">
    <rect x="480" y="0" width="1681" height="1600"/>
  </clipPath>
</defs>
<path clip-path="url(#clip5500)" d="
M182.008 1487.47 L1152.76 1487.47 L1152.76 47.2441 L182.008 47.2441  Z
  " fill="#ffffff" fill-rule="evenodd" fill-opacity="1"/>
<defs>
  <clipPath id="clip5502">
    <rect x="182" y="47" width="972" height="1441"/>
  </clipPath>
</defs>
<path clip-path="url(#clip5502)" d="
M667.381 767.381 L1125.28 767.381 L1124.91 748.992 L1123.8 730.632 L1121.96 712.332 L1119.38 694.12 L1116.08 676.027 L1112.05 658.081 L1107.3 640.311 L1101.84 622.747 
  L1095.68 605.416 L1088.83 588.346 L1081.3 571.565 L1073.1 555.1 L1064.25 538.977 L1054.76 523.223 L1044.64 507.863 L1033.91 492.922 L1022.59 478.423 L1010.7 464.391 
  L998.258 450.848 L985.28 437.815 L971.788 425.314 L957.805 413.365 L943.353 401.987 L928.456 391.199 L913.138 381.018 L897.424 371.46 L881.338 362.541 L864.907 354.275 
  L848.157 346.676 L831.116 339.755 L813.81 333.524 L796.268 327.994 L778.518 323.172 L760.589 319.067 L742.51 315.686 L724.309 313.033 L706.017 311.113 L687.662 309.93 
  L669.274 309.484 L650.883 309.778 L632.519 310.81 L614.212 312.578 L595.99 315.08 L577.883 318.312 L559.92 322.269 L542.131 326.944 L524.544 332.329 L507.188 338.416 
  L490.09 345.196 L667.381 767.381  Z
  " fill="#4477aa" fill-rule="evenodd" fill-opacity="1"/>
<polyline clip-path="url(#clip5502)" style="stroke:#000000; stroke-width:4.8; stroke-opacity:1; fill:none" points="
  667.381,767.381 1125.28,767.381 1124.91,748.992 1123.8,730.632 1121.96,712.332 1119.38,694.12 1116.08,676.027 1112.05,658.081 1107.3,640.311 1101.84,622.747 
  1095.68,605.416 1088.83,588.346 1081.3,571.565 1073.1,555.1 1064.25,538.977 1054.76,523.223 1044.64,507.863 1033.91,492.922 1022.59,478.423 1010.7,464.391 
  998.258,450.848 985.28,437.815 971.788,425.314 957.805,413.365 943.353,401.987 928.456,391.199 913.138,381.018 897.424,371.46 881.338,362.541 864.907,354.275 
  848.157,346.676 831.116,339.755 813.81,333.524 796.268,327.994 778.518,323.172 760.589,319.067 742.51,315.686 724.309,313.033 706.017,311.113 687.662,309.93 
  669.274,309.484 650.883,309.778 632.519,310.81 614.212,312.578 595.99,315.08 577.883,318.312 559.92,322.269 542.131,326.944 524.544,332.329 507.188,338.416 
  490.09,345.196 667.381,767.381 
  "/>
<path clip-path="url(#clip5502)" d="
M667.381 767.381 L490.09 345.196 L471.259 353.607 L452.826 362.858 L434.829 372.93 L417.303 383.801 L400.284 395.451 L383.808 407.855 L367.906 420.989 L352.612 434.826 
  L337.957 449.337 L323.97 464.493 L310.679 480.264 L298.113 496.617 L286.295 513.519 L275.25 530.937 L265.001 548.834 L255.568 567.174 L246.971 585.921 L239.227 605.035 
  L232.351 624.479 L226.357 644.213 L221.258 664.197 L217.065 684.39 L213.784 704.752 L211.424 725.24 L209.989 745.814 L209.482 766.432 L209.904 787.052 L211.254 807.631 
  L213.529 828.13 L216.724 848.504 L220.834 868.715 L225.85 888.72 L231.762 908.478 L238.557 927.951 L246.223 947.097 L254.742 965.879 L264.099 984.259 L274.274 1002.2 
  L285.246 1019.66 L296.993 1036.61 L309.492 1053.02 L322.717 1068.84 L336.641 1084.06 L351.236 1098.63 L366.473 1112.53 L382.32 1125.73 L398.745 1138.2 L415.715 1149.92 
  L433.196 1160.87 L667.381 767.381  Z
  " fill="#ee6677" fill-rule="evenodd" fill-opacity="1"/>
<polyline clip-path="url(#clip5502)" style="stroke:#000000; stroke-width:4.8; stroke-opacity:1; fill:none" points="
  667.381,767.381 490.09,345.196 471.259,353.607 452.826,362.858 434.829,372.93 417.303,383.801 400.284,395.451 383.808,407.855 367.906,420.989 352.612,434.826 
  337.957,449.337 323.97,464.493 310.679,480.264 298.113,496.617 286.295,513.519 275.25,530.937 265.001,548.834 255.568,567.174 246.971,585.921 239.227,605.035 
  232.351,624.479 226.357,644.213 221.258,664.197 217.065,684.39 213.784,704.752 211.424,725.24 209.989,745.814 209.482,766.432 209.904,787.052 211.254,807.631 
  213.529,828.13 216.724,848.504 220.834,868.715 225.85,888.72 231.762,908.478 238.557,927.951 246.223,947.097 254.742,965.879 264.099,984.259 274.274,1002.2 
  285.246,1019.66 296.993,1036.61 309.492,1053.02 322.717,1068.84 336.641,1084.06 351.236,1098.63 366.473,1112.53 382.32,1125.73 398.745,1138.2 415.715,1149.92 
  433.196,1160.87 667.381,767.381 
  "/>
<path clip-path="url(#clip5502)" d="
M667.381 767.381 L433.196 1160.87 L434.004 1161.35 L434.814 1161.82 L435.625 1162.3 L436.436 1162.78 L437.249 1163.25 L438.062 1163.72 L438.877 1164.19 L439.692 1164.66 
  L440.509 1165.13 L441.326 1165.59 L442.145 1166.06 L442.964 1166.52 L443.784 1166.98 L444.605 1167.44 L445.428 1167.89 L446.251 1168.35 L447.075 1168.8 L447.9 1169.25 
  L448.726 1169.7 L449.552 1170.15 L450.38 1170.6 L451.209 1171.04 L452.038 1171.49 L452.869 1171.93 L453.7 1172.37 L454.532 1172.8 L455.366 1173.24 L456.2 1173.68 
  L457.035 1174.11 L457.87 1174.54 L458.707 1174.97 L459.545 1175.4 L460.383 1175.82 L461.222 1176.25 L462.063 1176.67 L462.904 1177.09 L463.746 1177.51 L464.589 1177.93 
  L465.432 1178.34 L466.277 1178.76 L467.122 1179.17 L467.968 1179.58 L468.815 1179.99 L469.663 1180.39 L470.512 1180.8 L471.361 1181.2 L472.212 1181.61 L473.063 1182.01 
  L473.915 1182.4 L667.381 767.381  Z
  " fill="#228833" fill-rule="evenodd" fill-opacity="1"/>
<polyline clip-path="url(#clip5502)" style="stroke:#000000; stroke-width:4.8; stroke-opacity:1; fill:none" points="
  667.381,767.381 433.196,1160.87 434.004,1161.35 434.814,1161.82 435.625,1162.3 436.436,1162.78 437.249,1163.25 438.062,1163.72 438.877,1164.19 439.692,1164.66 
  440.509,1165.13 441.326,1165.59 442.145,1166.06 442.964,1166.52 443.784,1166.98 444.605,1167.44 445.428,1167.89 446.251,1168.35 447.075,1168.8 447.9,1169.25 
  448.726,1169.7 449.552,1170.15 450.38,1170.6 451.209,1171.04 452.038,1171.49 452.869,1171.93 453.7,1172.37 454.532,1172.8 455.366,1173.24 456.2,1173.68 
  457.035,1174.11 457.87,1174.54 458.707,1174.97 459.545,1175.4 460.383,1175.82 461.222,1176.25 462.063,1176.67 462.904,1177.09 463.746,1177.51 464.589,1177.93 
  465.432,1178.34 466.277,1178.76 467.122,1179.17 467.968,1179.58 468.815,1179.99 469.663,1180.39 470.512,1180.8 471.361,1181.2 472.212,1181.61 473.063,1182.01 
  473.915,1182.4 667.381,767.381 
  "/>
<path clip-path="url(#clip5502)" d="
M667.381 767.381 L473.915 1182.4 L491.072 1189.98 L508.524 1196.84 L526.243 1202.99 L544.198 1208.4 L562.36 1213.08 L580.699 1217 L599.182 1220.17 L617.78 1222.59 
  L636.462 1224.24 L655.195 1225.12 L673.949 1225.23 L692.691 1224.58 L711.391 1223.16 L730.018 1220.98 L748.539 1218.03 L766.924 1214.33 L785.142 1209.88 L803.163 1204.69 
  L820.956 1198.76 L838.491 1192.11 L855.739 1184.75 L872.671 1176.68 L889.259 1167.93 L905.475 1158.51 L921.291 1148.44 L936.682 1137.72 L951.62 1126.38 L966.082 1114.44 
  L980.043 1101.92 L993.48 1088.84 L1006.37 1075.21 L1018.69 1061.07 L1030.42 1046.44 L1041.54 1031.34 L1052.04 1015.8 L1061.89 999.841 L1071.08 983.491 L1079.59 966.78 
  L1087.41 949.734 L1094.52 932.381 L1100.92 914.753 L1106.59 896.877 L1111.52 878.783 L1115.71 860.503 L1119.15 842.067 L1121.83 823.505 L1123.75 804.85 L1124.9 786.131 
  L1125.28 767.381 L667.381 767.381  Z
  " fill="#ccbb44" fill-rule="evenodd" fill-opacity="1"/>
<polyline clip-path="url(#clip5502)" style="stroke:#000000; stroke-width:4.8; stroke-opacity:1; fill:none" points="
  667.381,767.381 473.915,1182.4 491.072,1189.98 508.524,1196.84 526.243,1202.99 544.198,1208.4 562.36,1213.08 580.699,1217 599.182,1220.17 617.78,1222.59 
  636.462,1224.24 655.195,1225.12 673.949,1225.23 692.691,1224.58 711.391,1223.16 730.018,1220.98 748.539,1218.03 766.924,1214.33 785.142,1209.88 803.163,1204.69 
  820.956,1198.76 838.491,1192.11 855.739,1184.75 872.671,1176.68 889.259,1167.93 905.475,1158.51 921.291,1148.44 936.682,1137.72 951.62,1126.38 966.082,1114.44 
  980.043,1101.92 993.48,1088.84 1006.37,1075.21 1018.69,1061.07 1030.42,1046.44 1041.54,1031.34 1052.04,1015.8 1061.89,999.841 1071.08,983.491 1079.59,966.78 
  1087.41,949.734 1094.52,932.381 1100.92,914.753 1106.59,896.877 1111.52,878.783 1115.71,860.503 1119.15,842.067 1121.83,823.505 1123.75,804.85 1124.9,786.131 
  1125.28,767.381 667.381,767.381 
  "/>
<path clip-path="url(#clip5500)" d="
M254.008 433.164 L520.77 433.164 L520.77 130.764 L254.008 130.764  Z
  " fill="#ffffff" fill-rule="evenodd" fill-opacity="0.9"/>
<polyline clip-path="url(#clip5500)" style="stroke:#222255; stroke-width:4; stroke-opacity:0.1; fill:none" points="
  254.008,433.164 520.77,433.164 520.77,130.764 254.008,130.764 254.008,433.164 
  "/>
<path clip-path="url(#clip5500)" d="
M278.008 215.436 L422.008 215.436 L422.008 167.052 L278.008 167.052 L278.008 215.436  Z
  " fill="#4477aa" fill-rule="evenodd" fill-opacity="1"/>
<polyline clip-path="url(#clip5500)" style="stroke:#000000; stroke-width:4.8; stroke-opacity:1; fill:none" points="
  278.008,215.436 422.008,215.436 422.008,167.052 278.008,167.052 278.008,215.436 
  "/>
<g clip-path="url(#clip5500)">
<text style="fill:#000000; fill-opacity:1; font-family:Arial,Helvetica Neue,Helvetica,sans-serif; font-size:48px; text-anchor:start;" transform="rotate(0, 446.008, 208.744)" x="446.008" y="208.744">1</text>
</g>
<path clip-path="url(#clip5500)" d="
M278.008 275.916 L422.008 275.916 L422.008 227.532 L278.008 227.532 L278.008 275.916  Z
  " fill="#ee6677" fill-rule="evenodd" fill-opacity="1"/>
<polyline clip-path="url(#clip5500)" style="stroke:#000000; stroke-width:4.8; stroke-opacity:1; fill:none" points="
  278.008,275.916 422.008,275.916 422.008,227.532 278.008,227.532 278.008,275.916 
  "/>
<g clip-path="url(#clip5500)">
<text style="fill:#000000; fill-opacity:1; font-family:Arial,Helvetica Neue,Helvetica,sans-serif; font-size:48px; text-anchor:start;" transform="rotate(0, 446.008, 269.224)" x="446.008" y="269.224">2</text>
</g>
<path clip-path="url(#clip5500)" d="
M278.008 336.396 L422.008 336.396 L422.008 288.012 L278.008 288.012 L278.008 336.396  Z
  " fill="#228833" fill-rule="evenodd" fill-opacity="1"/>
<polyline clip-path="url(#clip5500)" style="stroke:#000000; stroke-width:4.8; stroke-opacity:1; fill:none" points="
  278.008,336.396 422.008,336.396 422.008,288.012 278.008,288.012 278.008,336.396 
  "/>
<g clip-path="url(#clip5500)">
<text style="fill:#000000; fill-opacity:1; font-family:Arial,Helvetica Neue,Helvetica,sans-serif; font-size:48px; text-anchor:start;" transform="rotate(0, 446.008, 329.704)" x="446.008" y="329.704">3</text>
</g>
<path clip-path="url(#clip5500)" d="
M278.008 396.876 L422.008 396.876 L422.008 348.492 L278.008 348.492 L278.008 396.876  Z
  " fill="#ccbb44" fill-rule="evenodd" fill-opacity="1"/>
<polyline clip-path="url(#clip5500)" style="stroke:#000000; stroke-width:4.8; stroke-opacity:1; fill:none" points="
  278.008,396.876 422.008,396.876 422.008,348.492 278.008,348.492 278.008,396.876 
  "/>
<g clip-path="url(#clip5500)">
<text style="fill:#000000; fill-opacity:1; font-family:Arial,Helvetica Neue,Helvetica,sans-serif; font-size:48px; text-anchor:start;" transform="rotate(0, 446.008, 390.184)" x="446.008" y="390.184">4</text>
</g>
<path clip-path="url(#clip5500)" d="
M1382.01 1487.47 L2352.76 1487.47 L2352.76 47.2441 L1382.01 47.2441  Z
  " fill="#ffffff" fill-rule="evenodd" fill-opacity="1"/>
<defs>
  <clipPath id="clip5503">
    <rect x="1382" y="47" width="972" height="1441"/>
  </clipPath>
</defs>
<path clip-path="url(#clip5503)" d="
M1867.38 767.372 L2325.28 767.372 L2324.94 749.696 L2323.92 732.046 L2322.21 714.449 L2319.83 696.931 L2316.78 679.518 L2313.05 662.236 L2308.66 645.111 L2303.61 628.168 
  L2297.91 611.432 L2291.57 594.929 L2284.6 578.683 L2277 562.718 L2268.8 547.058 L2259.99 531.727 L2250.61 516.747 L2240.65 502.14 L2230.13 487.929 L2219.07 474.134 
  L2207.49 460.777 L2195.4 447.876 L2182.82 435.452 L2169.78 423.523 L2156.28 412.106 L2142.35 401.218 L2128.01 390.877 L2113.28 381.097 L2098.19 371.892 L2082.75 363.277 
  L2066.99 355.264 L2050.93 347.866 L2034.6 341.093 L2018.02 334.956 L2001.22 329.463 L1984.22 324.622 L1967.04 320.442 L1949.71 316.928 L1932.26 314.086 L1914.72 311.919 
  L1897.1 310.431 L1879.44 309.624 L1861.76 309.499 L1844.09 310.057 L1826.45 311.297 L1808.88 313.217 L1791.39 315.813 L1774.02 319.083 L1756.78 323.021 L1739.71 327.621 
  L1722.83 332.877 L1867.38 767.372  Z
  " fill="#4477aa" fill-rule="evenodd" fill-opacity="1"/>
<polyline clip-path="url(#clip5503)" style="stroke:#000000; stroke-width:4.8; stroke-opacity:1; fill:none" points="
  1867.38,767.372 2325.28,767.372 2324.94,749.696 2323.92,732.046 2322.21,714.449 2319.83,696.931 2316.78,679.518 2313.05,662.236 2308.66,645.111 2303.61,628.168 
  2297.91,611.432 2291.57,594.929 2284.6,578.683 2277,562.718 2268.8,547.058 2259.99,531.727 2250.61,516.747 2240.65,502.14 2230.13,487.929 2219.07,474.134 
  2207.49,460.777 2195.4,447.876 2182.82,435.452 2169.78,423.523 2156.28,412.106 2142.35,401.218 2128.01,390.877 2113.28,381.097 2098.19,371.892 2082.75,363.277 
  2066.99,355.264 2050.93,347.866 2034.6,341.093 2018.02,334.956 2001.22,329.463 1984.22,324.622 1967.04,320.442 1949.71,316.928 1932.26,314.086 1914.72,311.919 
  1897.1,310.431 1879.44,309.624 1861.76,309.499 1844.09,310.057 1826.45,311.297 1808.88,313.217 1791.39,315.813 1774.02,319.083 1756.78,323.021 1739.71,327.621 
  1722.83,332.877 1867.38,767.372 
  "/>
<path clip-path="url(#clip5503)" d="
M1867.38 767.372 L1722.83 332.877 L1717.49 334.691 L1712.16 336.572 L1706.87 338.518 L1701.59 340.529 L1696.34 342.605 L1691.12 344.745 L1685.92 346.95 L1680.76 349.219 
  L1675.62 351.551 L1670.5 353.946 L1665.42 356.404 L1660.37 358.925 L1655.35 361.507 L1650.37 364.152 L1645.41 366.857 L1640.49 369.624 L1635.61 372.451 L1630.76 375.337 
  L1625.94 378.284 L1621.17 381.289 L1616.43 384.354 L1611.72 387.476 L1607.06 390.656 L1602.44 393.894 L1597.85 397.188 L1593.31 400.538 L1588.81 403.944 L1584.35 407.406 
  L1579.93 410.922 L1575.56 414.492 L1571.24 418.116 L1566.95 421.792 L1562.72 425.522 L1558.52 429.303 L1554.38 433.136 L1550.29 437.019 L1546.24 440.953 L1542.24 444.936 
  L1538.29 448.969 L1534.39 453.049 L1530.54 457.178 L1526.74 461.353 L1522.99 465.575 L1519.3 469.843 L1515.66 474.156 L1512.07 478.514 L1508.54 482.916 L1505.06 487.36 
  L1501.64 491.848 L1867.38 767.372  Z
  " fill="#ee6677" fill-rule="evenodd" fill-opacity="1"/>
<polyline clip-path="url(#clip5503)" style="stroke:#000000; stroke-width:4.8; stroke-opacity:1; fill:none" points="
  1867.38,767.372 1722.83,332.877 1717.49,334.691 1712.16,336.572 1706.87,338.518 1701.59,340.529 1696.34,342.605 1691.12,344.745 1685.92,346.95 1680.76,349.219 
  1675.62,351.551 1670.5,353.946 1665.42,356.404 1660.37,358.925 1655.35,361.507 1650.37,364.152 1645.41,366.857 1640.49,369.624 1635.61,372.451 1630.76,375.337 
  1625.94,378.284 1621.17,381.289 1616.43,384.354 1611.72,387.476 1607.06,390.656 1602.44,393.894 1597.85,397.188 1593.31,400.538 1588.81,403.944 1584.35,407.406 
  1579.93,410.922 1575.56,414.492 1571.24,418.116 1566.95,421.792 1562.72,425.522 1558.52,429.303 1554.38,433.136 1550.29,437.019 1546.24,440.953 1542.24,444.936 
  1538.29,448.969 1534.39,453.049 1530.54,457.178 1526.74,461.353 1522.99,465.575 1519.3,469.843 1515.66,474.156 1512.07,478.514 1508.54,482.916 1505.06,487.36 
  1501.64,491.848 1867.38,767.372 
  "/>
<path clip-path="url(#clip5503)" d="
M1867.38 767.372 L1501.64 491.848 L1487.18 512.161 L1473.86 533.231 L1461.7 554.995 L1450.74 577.389 L1441.02 600.345 L1432.56 623.797 L1425.39 647.675 L1419.53 671.907 
  L1415 696.422 L1411.81 721.147 L1409.97 746.01 L1409.48 770.936 L1410.35 795.851 L1412.58 820.682 L1416.16 845.354 L1421.07 869.796 L1427.31 893.934 L1434.85 917.697 
  L1443.67 941.014 L1453.75 963.817 L1465.05 986.037 L1477.55 1007.61 L1491.2 1028.47 L1505.97 1048.56 L1521.81 1067.81 L1538.67 1086.17 L1556.51 1103.59 L1575.27 1120.01 
  L1594.89 1135.38 L1615.32 1149.67 L1636.5 1162.82 L1658.37 1174.8 L1680.85 1185.57 L1703.89 1195.1 L1727.41 1203.36 L1751.35 1210.33 L1775.63 1215.99 L1800.18 1220.32 
  L1824.93 1223.31 L1849.8 1224.94 L1874.73 1225.22 L1899.64 1224.14 L1924.45 1221.71 L1949.09 1217.93 L1973.49 1212.81 L1997.58 1206.38 L2021.28 1198.64 L2044.52 1189.62 
  L2067.24 1179.36 L1867.38 767.372  Z
  " fill="#228833" fill-rule="evenodd" fill-opacity="1"/>
<polyline clip-path="url(#clip5503)" style="stroke:#000000; stroke-width:4.8; stroke-opacity:1; fill:none" points="
  1867.38,767.372 1501.64,491.848 1487.18,512.161 1473.86,533.231 1461.7,554.995 1450.74,577.389 1441.02,600.345 1432.56,623.797 1425.39,647.675 1419.53,671.907 
  1415,696.422 1411.81,721.147 1409.97,746.01 1409.48,770.936 1410.35,795.851 1412.58,820.682 1416.16,845.354 1421.07,869.796 1427.31,893.934 1434.85,917.697 
  1443.67,941.014 1453.75,963.817 1465.05,986.037 1477.55,1007.61 1491.2,1028.47 1505.97,1048.56 1521.81,1067.81 1538.67,1086.17 1556.51,1103.59 1575.27,1120.01 
  1594.89,1135.38 1615.32,1149.67 1636.5,1162.82 1658.37,1174.8 1680.85,1185.57 1703.89,1195.1 1727.41,1203.36 1751.35,1210.33 1775.63,1215.99 1800.18,1220.32 
  1824.93,1223.31 1849.8,1224.94 1874.73,1225.22 1899.64,1224.14 1924.45,1221.71 1949.09,1217.93 1973.49,1212.81 1997.58,1206.38 2021.28,1198.64 2044.52,1189.62 
  2067.24,1179.36 1867.38,767.372 
  "/>
<path clip-path="url(#clip5503)" d="
M1867.38 767.372 L2067.24 1179.36 L2076.6 1174.69 L2085.85 1169.8 L2094.98 1164.71 L2103.99 1159.41 L2112.88 1153.9 L2121.65 1148.19 L2130.28 1142.29 L2138.77 1136.18 
  L2147.12 1129.89 L2155.33 1123.41 L2163.38 1116.74 L2171.29 1109.89 L2179.03 1102.86 L2186.61 1095.65 L2194.02 1088.28 L2201.27 1080.73 L2208.34 1073.03 L2215.23 1065.16 
  L2221.94 1057.14 L2228.46 1048.97 L2234.8 1040.65 L2240.94 1032.18 L2246.89 1023.58 L2252.65 1014.85 L2258.2 1005.99 L2263.54 996.999 L2268.68 987.892 L2273.62 978.67 
  L2278.34 969.337 L2282.84 959.899 L2287.13 950.361 L2291.2 940.727 L2295.05 931.003 L2298.67 921.194 L2302.07 911.304 L2305.25 901.339 L2308.19 891.305 L2310.91 881.205 
  L2313.39 871.047 L2315.64 860.834 L2317.66 850.572 L2319.44 840.268 L2320.99 829.925 L2322.3 819.549 L2323.37 809.146 L2324.21 798.722 L2324.8 788.281 L2325.16 777.829 
  L2325.28 767.372 L1867.38 767.372  Z
  " fill="#ccbb44" fill-rule="evenodd" fill-opacity="1"/>
<polyline clip-path="url(#clip5503)" style="stroke:#000000; stroke-width:4.8; stroke-opacity:1; fill:none" points="
  1867.38,767.372 2067.24,1179.36 2076.6,1174.69 2085.85,1169.8 2094.98,1164.71 2103.99,1159.41 2112.88,1153.9 2121.65,1148.19 2130.28,1142.29 2138.77,1136.18 
  2147.12,1129.89 2155.33,1123.41 2163.38,1116.74 2171.29,1109.89 2179.03,1102.86 2186.61,1095.65 2194.02,1088.28 2201.27,1080.73 2208.34,1073.03 2215.23,1065.16 
  2221.94,1057.14 2228.46,1048.97 2234.8,1040.65 2240.94,1032.18 2246.89,1023.58 2252.65,1014.85 2258.2,1005.99 2263.54,996.999 2268.68,987.892 2273.62,978.67 
  2278.34,969.337 2282.84,959.899 2287.13,950.361 2291.2,940.727 2295.05,931.003 2298.67,921.194 2302.07,911.304 2305.25,901.339 2308.19,891.305 2310.91,881.205 
  2313.39,871.047 2315.64,860.834 2317.66,850.572 2319.44,840.268 2320.99,829.925 2322.3,819.549 2323.37,809.146 2324.21,798.722 2324.8,788.281 2325.16,777.829 
  2325.28,767.372 1867.38,767.372 
  "/>
<path clip-path="url(#clip5500)" d="
M1454.01 433.164 L1720.77 433.164 L1720.77 130.764 L1454.01 130.764  Z
  " fill="#ffffff" fill-rule="evenodd" fill-opacity="0.9"/>
<polyline clip-path="url(#clip5500)" style="stroke:#222255; stroke-width:4; stroke-opacity:0.1; fill:none" points="
  1454.01,433.164 1720.77,433.164 1720.77,130.764 1454.01,130.764 1454.01,433.164 
  "/>
<path clip-path="url(#clip5500)" d="
M1478.01 215.436 L1622.01 215.436 L1622.01 167.052 L1478.01 167.052 L1478.01 215.436  Z
  " fill="#4477aa" fill-rule="evenodd" fill-opacity="1"/>
<polyline clip-path="url(#clip5500)" style="stroke:#000000; stroke-width:4.8; stroke-opacity:1; fill:none" points="
  1478.01,215.436 1622.01,215.436 1622.01,167.052 1478.01,167.052 1478.01,215.436 
  "/>
<g clip-path="url(#clip5500)">
<text style="fill:#000000; fill-opacity:1; font-family:Arial,Helvetica Neue,Helvetica,sans-serif; font-size:48px; text-anchor:start;" transform="rotate(0, 1646.01, 208.744)" x="1646.01" y="208.744">1</text>
</g>
<path clip-path="url(#clip5500)" d="
M1478.01 275.916 L1622.01 275.916 L1622.01 227.532 L1478.01 227.532 L1478.01 275.916  Z
  " fill="#ee6677" fill-rule="evenodd" fill-opacity="1"/>
<polyline clip-path="url(#clip5500)" style="stroke:#000000; stroke-width:4.8; stroke-opacity:1; fill:none" points="
  1478.01,275.916 1622.01,275.916 1622.01,227.532 1478.01,227.532 1478.01,275.916 
  "/>
<g clip-path="url(#clip5500)">
<text style="fill:#000000; fill-opacity:1; font-family:Arial,Helvetica Neue,Helvetica,sans-serif; font-size:48px; text-anchor:start;" transform="rotate(0, 1646.01, 269.224)" x="1646.01" y="269.224">2</text>
</g>
<path clip-path="url(#clip5500)" d="
M1478.01 336.396 L1622.01 336.396 L1622.01 288.012 L1478.01 288.012 L1478.01 336.396  Z
  " fill="#228833" fill-rule="evenodd" fill-opacity="1"/>
<polyline clip-path="url(#clip5500)" style="stroke:#000000; stroke-width:4.8; stroke-opacity:1; fill:none" points="
  1478.01,336.396 1622.01,336.396 1622.01,288.012 1478.01,288.012 1478.01,336.396 
  "/>
<g clip-path="url(#clip5500)">
<text style="fill:#000000; fill-opacity:1; font-family:Arial,Helvetica Neue,Helvetica,sans-serif; font-size:48px; text-anchor:start;" transform="rotate(0, 1646.01, 329.704)" x="1646.01" y="329.704">3</text>
</g>
<path clip-path="url(#clip5500)" d="
M1478.01 396.876 L1622.01 396.876 L1622.01 348.492 L1478.01 348.492 L1478.01 396.876  Z
  " fill="#ccbb44" fill-rule="evenodd" fill-opacity="1"/>
<polyline clip-path="url(#clip5500)" style="stroke:#000000; stroke-width:4.8; stroke-opacity:1; fill:none" points="
  1478.01,396.876 1622.01,396.876 1622.01,348.492 1478.01,348.492 1478.01,396.876 
  "/>
<g clip-path="url(#clip5500)">
<text style="fill:#000000; fill-opacity:1; font-family:Arial,Helvetica Neue,Helvetica,sans-serif; font-size:48px; text-anchor:start;" transform="rotate(0, 1646.01, 390.184)" x="1646.01" y="390.184">4</text>
</g>
</svg>
