<?xml version="1.0" encoding="utf-8"?>
<svg xmlns="http://www.w3.org/2000/svg" xmlns:xlink="http://www.w3.org/1999/xlink" width="600" height="400" viewBox="0 0 2400 1600">
<defs>
  <clipPath id="clip4700">
    <rect x="0" y="0" width="2400" height="1600"/>
  </clipPath>
</defs>
<path clip-path="url(#clip4700)" d="
M0 1600 L2400 1600 L2400 0 L0 0  Z
  " fill="#ffffff" fill-rule="evenodd" fill-opacity="1"/>
<defs>
  <clipPath id="clip4701">
    <rect x="480" y="0" width="1681" height="1600"/>
  </clipPath>
</defs>
<path clip-path="url(#clip4700)" d="
M182.008 1487.47 L2352.76 1487.47 L2352.76 47.2441 L182.008 47.2441  Z
  " fill="#ffffff" fill-rule="evenodd" fill-opacity="1"/>
<defs>
  <clipPath id="clip4702">
    <rect x="182" y="47" width="2172" height="1441"/>
  </clipPath>
</defs>
<path clip-path="url(#clip4702)" d="
M1267.37 767.502 L1946.91 767.502 L1946.82 756.436 L1946.55 745.373 L1946.1 734.316 L1945.47 723.268 L1944.66 712.231 L1943.67 701.21 L1942.5 690.205 L1941.15 679.222 
  L1939.62 668.261 L1937.92 657.327 L1936.03 646.423 L1933.97 635.55 L1931.74 624.712 L1929.32 613.913 L1926.73 603.154 L1923.97 592.438 L1921.03 581.769 L1917.92 571.149 
  L1914.64 560.581 L1911.18 550.069 L1907.56 539.613 L1903.76 529.219 L1899.8 518.887 L1895.66 508.621 L1891.36 498.424 L1886.9 488.299 L1882.27 478.247 L1877.48 468.272 
  L1872.53 458.377 L1867.41 448.563 L1862.14 438.834 L1856.71 429.193 L1851.12 419.641 L1845.38 410.181 L1839.48 400.816 L1833.44 391.548 L1827.24 382.38 L1820.89 373.314 
  L1814.4 364.352 L1807.76 355.498 L1800.98 346.753 L1794.06 338.119 L1787 329.599 L1779.8 321.195 L1772.46 312.91 L1764.99 304.745 L1757.39 296.703 L1749.66 288.786 
  L1741.8 280.996 L1267.37 767.502  Z
  " fill="#4477aa" fill-rule="evenodd" fill-opacity="1"/>
<polyline clip-path="url(#clip4702)" style="stroke:#000000; stroke-width:4.8; stroke-opacity:1; fill:none" points="
  1267.37,767.502 1946.91,767.502 1946.82,756.436 1946.55,745.373 1946.1,734.316 1945.47,723.268 1944.66,712.231 1943.67,701.21 1942.5,690.205 1941.15,679.222 
  1939.62,668.261 1937.92,657.327 1936.03,646.423 1933.97,635.55 1931.74,624.712 1929.32,613.913 1926.73,603.154 1923.97,592.438 1921.03,581.769 1917.92,571.149 
  1914.64,560.581 1911.18,550.069 1907.56,539.613 1903.76,529.219 1899.8,518.887 1895.66,508.621 1891.36,498.424 1886.9,488.299 1882.27,478.247 1877.48,468.272 
  1872.53,458.377 1867.41,448.563 1862.14,438.834 1856.71,429.193 1851.12,419.641 1845.38,410.181 1839.48,400.816 1833.44,391.548 1827.24,382.38 1820.89,373.314 
  1814.4,364.352 1807.76,355.498 1800.98,346.753 1794.06,338.119 1787,329.599 1779.8,321.195 1772.46,312.91 1764.99,304.745 1757.39,296.703 1749.66,288.786 
  1741.8,280.996 1267.37,767.502 
  "/>
<path clip-path="url(#clip4702)" d="
M1267.37 767.502 L1741.8 280.996 L1728.48 268.355 L1714.83 256.078 L1700.84 244.175 L1686.55 232.653 L1671.94 221.523 L1657.04 210.791 L1641.86 200.465 L1626.4 190.554 
  L1610.68 181.064 L1594.71 172.002 L1578.5 163.375 L1562.06 155.189 L1545.41 147.45 L1528.56 140.164 L1511.51 133.336 L1494.29 126.971 L1476.9 121.074 L1459.35 115.648 
  L1441.67 110.699 L1423.86 106.23 L1405.94 102.243 L1387.91 98.7417 L1369.8 95.7289 L1351.61 93.2067 L1333.36 91.1769 L1315.06 89.6409 L1296.73 88.5998 L1278.37 88.0545 
  L1260.01 88.0053 L1241.65 88.4523 L1223.32 89.3951 L1205.01 90.8331 L1186.75 92.7651 L1168.55 95.1899 L1150.42 98.1055 L1132.37 101.51 L1114.43 105.401 L1096.59 109.775 
  L1078.88 114.629 L1061.31 119.961 L1043.89 125.765 L1026.63 132.037 L1009.55 138.774 L992.659 145.969 L975.965 153.619 L959.485 161.717 L943.229 170.257 L927.21 179.233 
  L911.44 188.639 L1267.37 767.502  Z
  " fill="#ee6677" fill-rule="evenodd" fill-opacity="1"/>
<polyline clip-path="url(#clip4702)" style="stroke:#000000; stroke-width:4.8; stroke-opacity:1; fill:none" points="
  1267.37,767.502 1741.8,280.996 1728.48,268.355 1714.83,256.078 1700.84,244.175 1686.55,232.653 1671.94,221.523 1657.04,210.791 1641.86,200.465 1626.4,190.554 
  1610.68,181.064 1594.71,172.002 1578.5,163.375 1562.06,155.189 1545.41,147.45 1528.56,140.164 1511.51,133.336 1494.29,126.971 1476.9,121.074 1459.35,115.648 
  1441.67,110.699 1423.86,106.23 1405.94,102.243 1387.91,98.7417 1369.8,95.7289 1351.61,93.2067 1333.36,91.1769 1315.06,89.6409 1296.73,88.5998 1278.37,88.0545 
  1260.01,88.0053 1241.65,88.4523 1223.32,89.3951 1205.01,90.8331 1186.75,92.7651 1168.55,95.1899 1150.42,98.1055 1132.37,101.51 1114.43,105.401 1096.59,109.775 
  1078.88,114.629 1061.31,119.961 1043.89,125.765 1026.63,132.037 1009.55,138.774 992.659,145.969 975.965,153.619 959.485,161.717 943.229,170.257 927.21,179.233 
  911.44,188.639 1267.37,767.502 
  "/>
<path clip-path="url(#clip4702)" d="
M1267.37 767.502 L911.44 188.639 L902.636 194.145 L893.917 199.786 L885.286 205.559 L876.744 211.463 L868.293 217.497 L859.935 223.659 L851.672 229.948 L843.507 236.363 
  L835.44 242.902 L827.474 249.564 L819.611 256.346 L811.853 263.248 L804.201 270.267 L796.657 277.403 L789.223 284.653 L781.9 292.016 L774.691 299.489 L767.597 307.073 
  L760.62 314.763 L753.761 322.56 L747.022 330.46 L740.404 338.462 L733.91 346.565 L727.54 354.765 L721.296 363.062 L715.18 371.454 L709.192 379.938 L703.335 388.513 
  L697.61 397.176 L692.018 405.925 L686.56 414.759 L681.238 423.676 L676.052 432.672 L671.005 441.747 L666.097 450.898 L661.329 460.123 L656.703 469.419 L652.219 478.786 
  L647.879 488.219 L643.684 497.718 L639.634 507.28 L635.731 516.902 L631.976 526.584 L628.368 536.321 L624.911 546.112 L621.603 555.955 L618.445 565.848 L615.44 575.787 
  L612.586 585.772 L1267.37 767.502  Z
  " fill="#228833" fill-rule="evenodd" fill-opacity="1"/>
<polyline clip-path="url(#clip4702)" style="stroke:#000000; stroke-width:4.8; stroke-opacity:1; fill:none" points="
  1267.37,767.502 911.44,188.639 902.636,194.145 893.917,199.786 885.286,205.559 876.744,211.463 868.293,217.497 859.935,223.659 851.672,229.948 843.507,236.363 
  835.44,242.902 827.474,249.564 819.611,256.346 811.853,263.248 804.201,270.267 796.657,277.403 789.223,284.653 781.9,292.016 774.691,299.489 767.597,307.073 
  760.62,314.763 753.761,322.56 747.022,330.46 740.404,338.462 733.91,346.565 727.54,354.765 721.296,363.062 715.18,371.454 709.192,379.938 703.335,388.513 
  697.61,397.176 692.018,405.925 686.56,414.759 681.238,423.676 676.052,432.672 671.005,441.747 666.097,450.898 661.329,460.123 656.703,469.419 652.219,478.786 
  647.879,488.219 643.684,497.718 639.634,507.28 635.731,516.902 631.976,526.584 628.368,536.321 624.911,546.112 621.603,555.955 618.445,565.848 615.44,575.787 
  612.586,585.772 1267.37,767.502 
  "/>
<path clip-path="url(#clip4702)" d="
M1267.37 767.502 L612.586 585.772 L601.528 631.774 L593.698 678.434 L589.133 725.526 L587.856 772.822 L589.873 820.092 L595.175 867.106 L603.735 913.638 L615.512 959.462 
  L630.449 1004.36 L648.474 1048.1 L669.499 1090.48 L693.422 1131.3 L720.128 1170.36 L749.486 1207.46 L781.355 1242.43 L815.58 1275.1 L851.995 1305.3 L890.424 1332.9 
  L930.68 1357.76 L972.568 1379.76 L1015.89 1398.79 L1060.42 1414.76 L1105.96 1427.59 L1152.28 1437.22 L1199.16 1443.61 L1246.37 1446.71 L1293.69 1446.53 L1340.87 1443.05 
  L1387.7 1436.3 L1433.94 1426.31 L1479.38 1413.12 L1523.79 1396.8 L1566.96 1377.43 L1608.67 1355.11 L1648.73 1329.94 L1686.95 1302.04 L1723.12 1271.55 L1757.09 1238.61 
  L1788.69 1203.39 L1817.75 1166.06 L1844.15 1126.8 L1867.75 1085.79 L1888.45 1043.25 L1906.13 999.361 L1920.71 954.353 L1932.13 908.438 L1940.33 861.841 L1945.26 814.786 
  L1946.91 767.502 L1267.37 767.502  Z
  " fill="#ccbb44" fill-rule="evenodd" fill-opacity="1"/>
<polyline clip-path="url(#clip4702)" style="stroke:#000000; stroke-width:4.8; stroke-opacity:1; fill:none" points="
  1267.37,767.502 612.586,585.772 601.528,631.774 593.698,678.434 589.133,725.526 587.856,772.822 589.873,820.092 595.175,867.106 603.735,913.638 615.512,959.462 
  630.449,1004.36 648.474,1048.1 669.499,1090.48 693.422,1131.3 720.128,1170.36 749.486,1207.46 781.355,1242.43 815.58,1275.1 851.995,1305.3 890.424,1332.9 
  930.68,1357.76 972.568,1379.76 1015.89,1398.79 1060.42,1414.76 1105.96,1427.59 1152.28,1437.22 1199.16,1443.61 1246.37,1446.71 1293.69,1446.53 1340.87,1443.05 
  1387.7,1436.3 1433.94,1426.31 1479.38,1413.12 1523.79,1396.8 1566.96,1377.43 1608.67,1355.11 1648.73,1329.94 1686.95,1302.04 1723.12,1271.55 1757.09,1238.61 
  1788.69,1203.39 1817.75,1166.06 1844.15,1126.8 1867.75,1085.79 1888.45,1043.25 1906.13,999.361 1920.71,954.353 1932.13,908.438 1940.33,861.841 1945.26,814.786 
  1946.91,767.502 1267.37,767.502 
  "/>
<path clip-path="url(#clip4700)" d="
M254.008 433.164 L520.77 433.164 L520.77 130.764 L254.008 130.764  Z
  " fill="#ffffff" fill-rule="evenodd" fill-opacity="0.9"/>
<polyline clip-path="url(#clip4700)" style="stroke:#222255; stroke-width:4; stroke-opacity:0.1; fill:none" points="
  254.008,433.164 520.77,433.164 520.77,130.764 254.008,130.764 254.008,433.164 
  "/>
<path clip-path="url(#clip4700)" d="
M278.008 215.436 L422.008 215.436 L422.008 167.052 L278.008 167.052 L278.008 215.436  Z
  " fill="#4477aa" fill-rule="evenodd" fill-opacity="1"/>
<polyline clip-path="url(#clip4700)" style="stroke:#000000; stroke-width:4.8; stroke-opacity:1; fill:none" points="
  278.008,215.436 422.008,215.436 422.008,167.052 278.008,167.052 278.008,215.436 
  "/>
<g clip-path="url(#clip4700)">
<text style="fill:#000000; fill-opacity:1; font-family:Arial,Helvetica Neue,Helvetica,sans-serif; font-size:48px; text-anchor:start;" transform="rotate(0, 446.008, 208.744)" x="446.008" y="208.744">1</text>
</g>
<path clip-path="url(#clip4700)" d="
M278.008 275.916 L422.008 275.916 L422.008 227.532 L278.008 227.532 L278.008 275.916  Z
  " fill="#ee6677" fill-rule="evenodd" fill-opacity="1"/>
<polyline clip-path="url(#clip4700)" style="stroke:#000000; stroke-width:4.8; stroke-opacity:1; fill:none" points="
  278.008,275.916 422.008,275.916 422.008,227.532 278.008,227.532 278.008,275.916 
  "/>
<g clip-path="url(#clip4700)">
<text style="fill:#000000; fill-opacity:1; font-family:Arial,Helvetica Neue,Helvetica,sans-serif; font-size:48px; text-anchor:start;" transform="rotate(0, 446.008, 269.224)" x="446.008" y="269.224">2</text>
</g>
<path clip-path="url(#clip4700)" d="
M278.008 336.396 L422.008 336.396 L422.008 288.012 L278.008 288.012 L278.008 336.396  Z
  " fill="#228833" fill-rule="evenodd" fill-opacity="1"/>
<polyline clip-path="url(#clip4700)" style="stroke:#000000; stroke-width:4.8; stroke-opacity:1; fill:none" points="
  278.008,336.396 422.008,336.396 422.008,288.012 278.008,288.012 278.008,336.396 
  "/>
<g clip-path="url(#clip4700)">
<text style="fill:#000000; fill-opacity:1; font-family:Arial,Helvetica Neue,Helvetica,sans-serif; font-size:48px; text-anchor:start;" transform="rotate(0, 446.008, 329.704)" x="446.008" y="329.704">3</text>
</g>
<path clip-path="url(#clip4700)" d="
M278.008 396.876 L422.008 396.876 L422.008 348.492 L278.008 348.492 L278.008 396.876  Z
  " fill="#ccbb44" fill-rule="evenodd" fill-opacity="1"/>
<polyline clip-path="url(#clip4700)" style="stroke:#000000; stroke-width:4.8; stroke-opacity:1; fill:none" points="
  278.008,396.876 422.008,396.876 422.008,348.492 278.008,348.492 278.008,396.876 
  "/>
<g clip-path="url(#clip4700)">
<text style="fill:#000000; fill-opacity:1; font-family:Arial,Helvetica Neue,Helvetica,sans-serif; font-size:48px; text-anchor:start;" transform="rotate(0, 446.008, 390.184)" x="446.008" y="390.184">4</text>
</g>
</svg>
