<?xml version="1.0" encoding="utf-8"?>
<svg xmlns="http://www.w3.org/2000/svg" xmlns:xlink="http://www.w3.org/1999/xlink" width="600" height="400" viewBox="0 0 2400 1600">
<defs>
  <clipPath id="clip5100">
    <rect x="0" y="0" width="2400" height="1600"/>
  </clipPath>
</defs>
<path clip-path="url(#clip5100)" d="
M0 1600 L2400 1600 L2400 0 L0 0  Z
  " fill="#ffffff" fill-rule="evenodd" fill-opacity="1"/>
<defs>
  <clipPath id="clip5101">
    <rect x="480" y="0" width="1681" height="1600"/>
  </clipPath>
</defs>
<path clip-path="url(#clip5100)" d="
M182.008 1487.47 L2352.76 1487.47 L2352.76 47.2441 L182.008 47.2441  Z
  " fill="#ffffff" fill-rule="evenodd" fill-opacity="1"/>
<defs>
  <clipPath id="clip5102">
    <rect x="182" y="47" width="2172" height="1441"/>
  </clipPath>
</defs>
<path clip-path="url(#clip5102)" d="
M1267.38 767.436 L1946.82 767.436 L1945.49 724.907 L1941.5 682.545 L1934.86 640.515 L1925.61 598.983 L1913.77 558.112 L1899.4 518.062 L1882.55 478.989 L1863.29 441.049 
  L1841.69 404.388 L1817.84 369.151 L1791.83 335.476 L1763.76 303.495 L1733.75 273.334 L1701.91 245.11 L1668.36 218.936 L1633.24 194.912 L1596.69 173.134 L1558.84 153.686 
  L1519.85 136.646 L1479.87 122.08 L1439.06 110.044 L1397.57 100.587 L1355.58 93.7457 L1313.23 89.5462 L1270.71 88.0053 L1228.18 89.1292 L1185.79 92.9133 L1143.73 99.3429 
  L1102.16 108.393 L1061.23 120.027 L1021.11 134.201 L981.953 150.858 L943.918 169.934 L907.152 191.352 L871.798 215.03 L837.996 240.875 L805.878 268.785 L775.57 298.65 
  L747.191 330.354 L720.852 363.773 L696.657 398.774 L674.7 435.221 L655.067 472.972 L637.836 511.877 L623.073 551.784 L610.838 592.537 L601.178 633.976 L594.13 675.939 
  L589.723 718.26 L1267.38 767.436  Z
  " fill="#4477aa" fill-rule="evenodd" fill-opacity="1"/>
<polyline clip-path="url(#clip5102)" style="stroke:#000000; stroke-width:4.8; stroke-opacity:1; fill:none" points="
  1267.38,767.436 1946.82,767.436 1945.49,724.907 1941.5,682.545 1934.86,640.515 1925.61,598.983 1913.77,558.112 1899.4,518.062 1882.55,478.989 1863.29,441.049 
  1841.69,404.388 1817.84,369.151 1791.83,335.476 1763.76,303.495 1733.75,273.334 1701.91,245.11 1668.36,218.936 1633.24,194.912 1596.69,173.134 1558.84,153.686 
  1519.85,136.646 1479.87,122.08 1439.06,110.044 1397.57,100.587 1355.58,93.7457 1313.23,89.5462 1270.71,88.0053 1228.18,89.1292 1185.79,92.9133 1143.73,99.3429 
  1102.16,108.393 1061.23,120.027 1021.11,134.201 981.953,150.858 943.918,169.934 907.152,191.352 871.798,215.03 837.996,240.875 805.878,268.785 775.57,298.65 
  747.191,330.354 720.852,363.773 696.657,398.774 674.7,435.221 655.067,472.972 637.836,511.877 623.073,551.784 610.838,592.537 601.178,633.976 594.13,675.939 
  589.723,718.26 1267.38,767.436 
  "/>
<path clip-path="url(#clip5102)" d="
M1267.38 767.436 L589.723 718.26 L589.373 723.357 L589.061 728.455 L588.787 733.556 L588.551 738.659 L588.354 743.764 L588.195 748.869 L588.075 753.976 L587.993 759.084 
  L587.949 764.192 L587.944 769.3 L587.977 774.408 L588.049 779.516 L588.159 784.623 L588.307 789.729 L588.494 794.834 L588.719 799.938 L588.983 805.039 L589.285 810.138 
  L589.625 815.235 L590.003 820.33 L590.42 825.421 L590.875 830.509 L591.369 835.593 L591.9 840.674 L592.47 845.75 L593.078 850.822 L593.724 855.889 L594.408 860.952 
  L595.13 866.009 L595.89 871.06 L596.688 876.105 L597.524 881.145 L598.398 886.178 L599.309 891.204 L600.259 896.223 L601.246 901.235 L602.271 906.24 L603.333 911.236 
  L604.433 916.225 L605.57 921.205 L606.745 926.176 L607.957 931.139 L609.207 936.092 L610.493 941.035 L611.817 945.969 L613.178 950.893 L614.576 955.806 L616.01 960.709 
  L617.482 965.601 L1267.38 767.436  Z
  " fill="#ee6677" fill-rule="evenodd" fill-opacity="1"/>
<polyline clip-path="url(#clip5102)" style="stroke:#000000; stroke-width:4.8; stroke-opacity:1; fill:none" points="
  1267.38,767.436 589.723,718.26 589.373,723.357 589.061,728.455 588.787,733.556 588.551,738.659 588.354,743.764 588.195,748.869 588.075,753.976 587.993,759.084 
  587.949,764.192 587.944,769.3 587.977,774.408 588.049,779.516 588.159,784.623 588.307,789.729 588.494,794.834 588.719,799.938 588.983,805.039 589.285,810.138 
  589.625,815.235 590.003,820.33 590.42,825.421 590.875,830.509 591.369,835.593 591.9,840.674 592.47,845.75 593.078,850.822 593.724,855.889 594.408,860.952 
  595.13,866.009 595.89,871.06 596.688,876.105 597.524,881.145 598.398,886.178 599.309,891.204 600.259,896.223 601.246,901.235 602.271,906.24 603.333,911.236 
  604.433,916.225 605.57,921.205 606.745,926.176 607.957,931.139 609.207,936.092 610.493,941.035 611.817,945.969 613.178,950.893 614.576,955.806 616.01,960.709 
  617.482,965.601 1267.38,767.436 
  "/>
<path clip-path="url(#clip5102)" d="
M1267.38 767.436 L617.482 965.601 L627.744 996.572 L639.482 1027.01 L652.668 1056.86 L667.271 1086.04 L683.258 1114.48 L700.592 1142.12 L719.233 1168.9 L739.138 1194.75 
  L760.261 1219.62 L782.554 1243.44 L805.964 1266.17 L830.439 1287.74 L855.921 1308.12 L882.353 1327.25 L909.672 1345.09 L937.815 1361.6 L966.719 1376.73 L996.317 1390.46 
  L1026.54 1402.76 L1057.32 1413.59 L1088.58 1422.93 L1120.25 1430.75 L1152.27 1437.05 L1184.55 1441.81 L1217.02 1445.01 L1249.6 1446.64 L1282.23 1446.71 L1314.82 1445.22 
  L1347.31 1442.16 L1379.61 1437.54 L1411.65 1431.38 L1443.35 1423.69 L1474.66 1414.49 L1505.48 1403.79 L1535.76 1391.63 L1565.41 1378.02 L1594.38 1363.01 L1622.6 1346.63 
  L1649.99 1328.91 L1676.5 1309.89 L1702.07 1289.62 L1726.64 1268.15 L1750.15 1245.53 L1772.55 1221.8 L1793.78 1197.02 L1813.79 1171.26 L1832.55 1144.56 L1850 1116.99 
  L1866.11 1088.62 L1267.38 767.436  Z
  " fill="#228833" fill-rule="evenodd" fill-opacity="1"/>
<polyline clip-path="url(#clip5102)" style="stroke:#000000; stroke-width:4.8; stroke-opacity:1; fill:none" points="
  1267.38,767.436 617.482,965.601 627.744,996.572 639.482,1027.01 652.668,1056.86 667.271,1086.04 683.258,1114.48 700.592,1142.12 719.233,1168.9 739.138,1194.75 
  760.261,1219.62 782.554,1243.44 805.964,1266.17 830.439,1287.74 855.921,1308.12 882.353,1327.25 909.672,1345.09 937.815,1361.6 966.719,1376.73 996.317,1390.46 
  1026.54,1402.76 1057.32,1413.59 1088.58,1422.93 1120.25,1430.75 1152.27,1437.05 1184.55,1441.81 1217.02,1445.01 1249.6,1446.64 1282.23,1446.71 1314.82,1445.22 
  1347.31,1442.16 1379.61,1437.54 1411.65,1431.38 1443.35,1423.69 1474.66,1414.49 1505.48,1403.79 1535.76,1391.63 1565.41,1378.02 1594.38,1363.01 1622.6,1346.63 
  1649.99,1328.91 1676.5,1309.89 1702.07,1289.62 1726.64,1268.15 1750.15,1245.53 1772.55,1221.8 1793.78,1197.02 1813.79,1171.26 1832.55,1144.56 1850,1116.99 
  1866.11,1088.62 1267.38,767.436 
  "/>
<path clip-path="url(#clip5102)" d="
M1267.38 767.436 L1866.11 1088.62 L1869.31 1082.59 L1872.44 1076.52 L1875.52 1070.43 L1878.53 1064.3 L1881.49 1058.15 L1884.38 1051.96 L1887.2 1045.75 L1889.97 1039.51 
  L1892.67 1033.24 L1895.31 1026.94 L1897.89 1020.62 L1900.4 1014.27 L1902.85 1007.89 L1905.23 1001.5 L1907.55 995.076 L1909.81 988.632 L1912 982.165 L1914.12 975.677 
  L1916.18 969.168 L1918.18 962.639 L1920.1 956.089 L1921.97 949.521 L1923.76 942.934 L1925.49 936.33 L1927.16 929.709 L1928.75 923.071 L1930.29 916.417 L1931.75 909.749 
  L1933.15 903.066 L1934.47 896.369 L1935.74 889.659 L1936.93 882.937 L1938.06 876.204 L1939.12 869.459 L1940.11 862.704 L1941.03 855.94 L1941.89 849.166 L1942.67 842.384 
  L1943.39 835.595 L1944.04 828.799 L1944.63 821.996 L1945.14 815.188 L1945.59 808.376 L1945.96 801.559 L1946.27 794.738 L1946.51 787.915 L1946.68 781.09 L1946.79 774.264 
  L1946.82 767.436 L1267.38 767.436  Z
  " fill="#ccbb44" fill-rule="evenodd" fill-opacity="1"/>
<polyline clip-path="url(#clip5102)" style="stroke:#000000; stroke-width:4.8; stroke-opacity:1; fill:none" points="
  1267.38,767.436 1866.11,1088.62 1869.31,1082.59 1872.44,1076.52 1875.52,1070.43 1878.53,1064.3 1881.49,1058.15 1884.38,1051.96 1887.2,1045.75 1889.97,1039.51 
  1892.67,1033.24 1895.31,1026.94 1897.89,1020.62 1900.4,1014.27 1902.85,1007.89 1905.23,1001.5 1907.55,995.076 1909.81,988.632 1912,982.165 1914.12,975.677 
  1916.18,969.168 1918.18,962.639 1920.1,956.089 1921.97,949.521 1923.76,942.934 1925.49,936.33 1927.16,929.709 1928.75,923.071 1930.29,916.417 1931.75,909.749 
  1933.15,903.066 1934.47,896.369 1935.74,889.659 1936.93,882.937 1938.06,876.204 1939.12,869.459 1940.11,862.704 1941.03,855.94 1941.89,849.166 1942.67,842.384 
  1943.39,835.595 1944.04,828.799 1944.63,821.996 1945.14,815.188 1945.59,808.376 1945.96,801.559 1946.27,794.738 1946.51,787.915 1946.68,781.09 1946.79,774.264 
  1946.82,767.436 1267.38,767.436 
  "/>
<path clip-path="url(#clip5100)" d="
M254.008 433.164 L520.77 433.164 L520.77 130.764 L254.008 130.764  Z
  " fill="#ffffff" fill-rule="evenodd" fill-opacity="0.9"/>
<polyline clip-path="url(#clip5100)" style="stroke:#222255; stroke-width:4; stroke-opacity:0.1; fill:none" points="
  254.008,433.164 520.77,433.164 520.77,130.764 254.008,130.764 254.008,433.164 
  "/>
<path clip-path="url(#clip5100)" d="
M278.008 215.436 L422.008 215.436 L422.008 167.052 L278.008 167.052 L278.008 215.436  Z
  " fill="#4477aa" fill-rule="evenodd" fill-opacity="1"/>
<polyline clip-path="url(#clip5100)" style="stroke:#000000; stroke-width:4.8; stroke-opacity:1; fill:none" points="
  278.008,215.436 422.008,215.436 422.008,167.052 278.008,167.052 278.008,215.436 
  "/>
<g clip-path="url(#clip5100)">
<text style="fill:#000000; fill-opacity:1; font-family:Arial,Helvetica Neue,Helvetica,sans-serif; font-size:48px; text-anchor:start;" transform="rotate(0, 446.008, 208.744)" x="446.008" y="208.744">1</text>
</g>
<path clip-path="url(#clip5100)" d="
M278.008 275.916 L422.008 275.916 L422.008 227.532 L278.008 227.532 L278.008 275.916  Z
  " fill="#ee6677" fill-rule="evenodd" fill-opacity="1"/>
<polyline clip-path="url(#clip5100)" style="stroke:#000000; stroke-width:4.8; stroke-opacity:1; fill:none" points="
  278.008,275.916 422.008,275.916 422.008,227.532 278.008,227.532 278.008,275.916 
  "/>
<g clip-path="url(#clip5100)">
<text style="fill:#000000; fill-opacity:1; font-family:Arial,Helvetica Neue,Helvetica,sans-serif; font-size:48px; text-anchor:start;" transform="rotate(0, 446.008, 269.224)" x="446.008" y="269.224">2</text>
</g>
<path clip-path="url(#clip5100)" d="
M278.008 336.396 L422.008 336.396 L422.008 288.012 L278.008 288.012 L278.008 336.396  Z
  " fill="#228833" fill-rule="evenodd" fill-opacity="1"/>
<polyline clip-path="url(#clip5100)" style="stroke:#000000; stroke-width:4.8; stroke-opacity:1; fill:none" points="
  278.008,336.396 422.008,336.396 422.008,288.012 278.008,288.012 278.008,336.396 
  "/>
<g clip-path="url(#clip5100)">
<text style="fill:#000000; fill-opacity:1; font-family:Arial,Helvetica Neue,Helvetica,sans-serif; font-size:48px; text-anchor:start;" transform="rotate(0, 446.008, 329.704)" x="446.008" y="329.704">3</text>
</g>
<path clip-path="url(#clip5100)" d="
M278.008 396.876 L422.008 396.876 L422.008 348.492 L278.008 348.492 L278.008 396.876  Z
  " fill="#ccbb44" fill-rule="evenodd" fill-opacity="1"/>
<polyline clip-path="url(#clip5100)" style="stroke:#000000; stroke-width:4.8; stroke-opacity:1; fill:none" points="
  278.008,396.876 422.008,396.876 422.008,348.492 278.008,348.492 278.008,396.876 
  "/>
<g clip-path="url(#clip5100)">
<text style="fill:#000000; fill-opacity:1; font-family:Arial,Helvetica Neue,Helvetica,sans-serif; font-size:48px; text-anchor:start;" transform="rotate(0, 446.008, 390.184)" x="446.008" y="390.184">4</text>
</g>
</svg>
