<?xml version="1.0" encoding="utf-8"?>
<svg xmlns="http://www.w3.org/2000/svg" xmlns:xlink="http://www.w3.org/1999/xlink" width="600" height="400" viewBox="0 0 2400 1600">
<defs>
  <clipPath id="clip2700">
    <rect x="0" y="0" width="2400" height="1600"/>
  </clipPath>
</defs>
<path clip-path="url(#clip2700)" d="
M0 1600 L2400 1600 L2400 0 L0 0  Z
  " fill="#ffffff" fill-rule="evenodd" fill-opacity="1"/>
<defs>
  <clipPath id="clip2701">
    <rect x="480" y="0" width="1681" height="1600"/>
  </clipPath>
</defs>
<path clip-path="url(#clip2700)" d="
M113.754 1487.47 L2352.76 1487.47 L2352.76 47.2441 L113.754 47.2441  Z
  " fill="#ffffff" fill-rule="evenodd" fill-opacity="1"/>
<defs>
  <clipPath id="clip2702">
    <rect x="113" y="47" width="2240" height="1441"/>
  </clipPath>
</defs>
<polyline clip-path="url(#clip2702)" style="stroke:#000000; stroke-width:2; stroke-opacity:0.1; fill:none" points="
  489.466,1487.47 489.466,47.2441 
  "/>
<polyline clip-path="url(#clip2702)" style="stroke:#000000; stroke-width:2; stroke-opacity:0.1; fill:none" points="
  883.84,1487.47 883.84,47.2441 
  "/>
<polyline clip-path="url(#clip2702)" style="stroke:#000000; stroke-width:2; stroke-opacity:0.1; fill:none" points="
  1278.21,1487.47 1278.21,47.2441 
  "/>
<polyline clip-path="url(#clip2702)" style="stroke:#000000; stroke-width:2; stroke-opacity:0.1; fill:none" points="
  1672.59,1487.47 1672.59,47.2441 
  "/>
<polyline clip-path="url(#clip2702)" style="stroke:#000000; stroke-width:2; stroke-opacity:0.1; fill:none" points="
  2066.96,1487.47 2066.96,47.2441 
  "/>
<polyline clip-path="url(#clip2702)" style="stroke:#000000; stroke-width:2; stroke-opacity:0.1; fill:none" points="
  113.754,1446.71 2352.76,1446.71 
  "/>
<polyline clip-path="url(#clip2702)" style="stroke:#000000; stroke-width:2; stroke-opacity:0.1; fill:none" points="
  113.754,1019.19 2352.76,1019.19 
  "/>
<polyline clip-path="url(#clip2702)" style="stroke:#000000; stroke-width:2; stroke-opacity:0.1; fill:none" points="
  113.754,591.657 2352.76,591.657 
  "/>
<polyline clip-path="url(#clip2702)" style="stroke:#000000; stroke-width:2; stroke-opacity:0.1; fill:none" points="
  113.754,164.128 2352.76,164.128 
  "/>
<polyline clip-path="url(#clip2702)" style="stroke:#000000; stroke-width:2; stroke-opacity:0.05; fill:none" points="
  173.967,1487.47 173.967,47.2441 
  "/>
<polyline clip-path="url(#clip2702)" style="stroke:#000000; stroke-width:2; stroke-opacity:0.05; fill:none" points="
  252.842,1487.47 252.842,47.2441 
  "/>
<polyline clip-path="url(#clip2702)" style="stroke:#000000; stroke-width:2; stroke-opacity:0.05; fill:none" points="
  331.717,1487.47 331.717,47.2441 
  "/>
<polyline clip-path="url(#clip2702)" style="stroke:#000000; stroke-width:2; stroke-opacity:0.05; fill:none" points="
  410.592,1487.47 410.592,47.2441 
  "/>
<polyline clip-path="url(#clip2702)" style="stroke:#000000; stroke-width:2; stroke-opacity:0.05; fill:none" points="
  568.341,1487.47 568.341,47.2441 
  "/>
<polyline clip-path="url(#clip2702)" style="stroke:#000000; stroke-width:2; stroke-opacity:0.05; fill:none" points="
  647.216,1487.47 647.216,47.2441 
  "/>
<polyline clip-path="url(#clip2702)" style="stroke:#000000; stroke-width:2; stroke-opacity:0.05; fill:none" points="
  726.091,1487.47 726.091,47.2441 
  "/>
<polyline clip-path="url(#clip2702)" style="stroke:#000000; stroke-width:2; stroke-opacity:0.05; fill:none" points="
  804.965,1487.47 804.965,47.2441 
  "/>
<polyline clip-path="url(#clip2702)" style="stroke:#000000; stroke-width:2; stroke-opacity:0.05; fill:none" points="
  962.715,1487.47 962.715,47.2441 
  "/>
<polyline clip-path="url(#clip2702)" style="stroke:#000000; stroke-width:2; stroke-opacity:0.05; fill:none" points="
  1041.59,1487.47 1041.59,47.2441 
  "/>
<polyline clip-path="url(#clip2702)" style="stroke:#000000; stroke-width:2; stroke-opacity:0.05; fill:none" points="
  1120.46,1487.47 1120.46,47.2441 
  "/>
<polyline clip-path="url(#clip2702)" style="stroke:#000000; stroke-width:2; stroke-opacity:0.05; fill:none" points="
  1199.34,1487.47 1199.34,47.2441 
  "/>
<polyline clip-path="url(#clip2702)" style="stroke:#000000; stroke-width:2; stroke-opacity:0.05; fill:none" points="
  1357.09,1487.47 1357.09,47.2441 
  "/>
<polyline clip-path="url(#clip2702)" style="stroke:#000000; stroke-width:2; stroke-opacity:0.05; fill:none" points="
  1435.96,1487.47 1435.96,47.2441 
  "/>
<polyline clip-path="url(#clip2702)" style="stroke:#000000; stroke-width:2; stroke-opacity:0.05; fill:none" points="
  1514.84,1487.47 1514.84,47.2441 
  "/>
<polyline clip-path="url(#clip2702)" style="stroke:#000000; stroke-width:2; stroke-opacity:0.05; fill:none" points="
  1593.71,1487.47 1593.71,47.2441 
  "/>
<polyline clip-path="url(#clip2702)" style="stroke:#000000; stroke-width:2; stroke-opacity:0.05; fill:none" points="
  1751.46,1487.47 1751.46,47.2441 
  "/>
<polyline clip-path="url(#clip2702)" style="stroke:#000000; stroke-width:2; stroke-opacity:0.05; fill:none" points="
  1830.34,1487.47 1830.34,47.2441 
  "/>
<polyline clip-path="url(#clip2702)" style="stroke:#000000; stroke-width:2; stroke-opacity:0.05; fill:none" points="
  1909.21,1487.47 1909.21,47.2441 
  "/>
<polyline clip-path="url(#clip2702)" style="stroke:#000000; stroke-width:2; stroke-opacity:0.05; fill:none" points="
  1988.09,1487.47 1988.09,47.2441 
  "/>
<polyline clip-path="url(#clip2702)" style="stroke:#000000; stroke-width:2; stroke-opacity:0.05; fill:none" points="
  2145.84,1487.47 2145.84,47.2441 
  "/>
<polyline clip-path="url(#clip2702)" style="stroke:#000000; stroke-width:2; stroke-opacity:0.05; fill:none" points="
  2224.71,1487.47 2224.71,47.2441 
  "/>
<polyline clip-path="url(#clip2702)" style="stroke:#000000; stroke-width:2; stroke-opacity:0.05; fill:none" points="
  2303.59,1487.47 2303.59,47.2441 
  "/>
<polyline clip-path="url(#clip2702)" style="stroke:#000000; stroke-width:2; stroke-opacity:0.05; fill:none" points="
  113.754,1361.21 2352.76,1361.21 
  "/>
<polyline clip-path="url(#clip2702)" style="stroke:#000000; stroke-width:2; stroke-opacity:0.05; fill:none" points="
  113.754,1275.7 2352.76,1275.7 
  "/>
<polyline clip-path="url(#clip2702)" style="stroke:#000000; stroke-width:2; stroke-opacity:0.05; fill:none" points="
  113.754,1190.2 2352.76,1190.2 
  "/>
<polyline clip-path="url(#clip2702)" style="stroke:#000000; stroke-width:2; stroke-opacity:0.05; fill:none" points="
  113.754,1104.69 2352.76,1104.69 
  "/>
<polyline clip-path="url(#clip2702)" style="stroke:#000000; stroke-width:2; stroke-opacity:0.05; fill:none" points="
  113.754,933.679 2352.76,933.679 
  "/>
<polyline clip-path="url(#clip2702)" style="stroke:#000000; stroke-width:2; stroke-opacity:0.05; fill:none" points="
  113.754,848.174 2352.76,848.174 
  "/>
<polyline clip-path="url(#clip2702)" style="stroke:#000000; stroke-width:2; stroke-opacity:0.05; fill:none" points="
  113.754,762.668 2352.76,762.668 
  "/>
<polyline clip-path="url(#clip2702)" style="stroke:#000000; stroke-width:2; stroke-opacity:0.05; fill:none" points="
  113.754,677.162 2352.76,677.162 
  "/>
<polyline clip-path="url(#clip2702)" style="stroke:#000000; stroke-width:2; stroke-opacity:0.05; fill:none" points="
  113.754,506.151 2352.76,506.151 
  "/>
<polyline clip-path="url(#clip2702)" style="stroke:#000000; stroke-width:2; stroke-opacity:0.05; fill:none" points="
  113.754,420.645 2352.76,420.645 
  "/>
<polyline clip-path="url(#clip2702)" style="stroke:#000000; stroke-width:2; stroke-opacity:0.05; fill:none" points="
  113.754,335.14 2352.76,335.14 
  "/>
<polyline clip-path="url(#clip2702)" style="stroke:#000000; stroke-width:2; stroke-opacity:0.05; fill:none" points="
  113.754,249.634 2352.76,249.634 
  "/>
<polyline clip-path="url(#clip2702)" style="stroke:#000000; stroke-width:2; stroke-opacity:0.05; fill:none" points="
  113.754,78.6227 2352.76,78.6227 
  "/>
<polyline clip-path="url(#clip2700)" style="stroke:#000000; stroke-width:4; stroke-opacity:0; fill:none" points="
  489.466,1487.47 489.466,1470.19 
  "/>
<polyline clip-path="url(#clip2700)" style="stroke:#000000; stroke-width:4; stroke-opacity:0; fill:none" points="
  883.84,1487.47 883.84,1470.19 
  "/>
<polyline clip-path="url(#clip2700)" style="stroke:#000000; stroke-width:4; stroke-opacity:0; fill:none" points="
  1278.21,1487.47 1278.21,1470.19 
  "/>
<polyline clip-path="url(#clip2700)" style="stroke:#000000; stroke-width:4; stroke-opacity:0; fill:none" points="
  1672.59,1487.47 1672.59,1470.19 
  "/>
<polyline clip-path="url(#clip2700)" style="stroke:#000000; stroke-width:4; stroke-opacity:0; fill:none" points="
  2066.96,1487.47 2066.96,1470.19 
  "/>
<polyline clip-path="url(#clip2700)" style="stroke:#000000; stroke-width:4; stroke-opacity:0; fill:none" points="
  173.967,1487.47 173.967,1478.83 
  "/>
<polyline clip-path="url(#clip2700)" style="stroke:#000000; stroke-width:4; stroke-opacity:0; fill:none" points="
  252.842,1487.47 252.842,1478.83 
  "/>
<polyline clip-path="url(#clip2700)" style="stroke:#000000; stroke-width:4; stroke-opacity:0; fill:none" points="
  331.717,1487.47 331.717,1478.83 
  "/>
<polyline clip-path="url(#clip2700)" style="stroke:#000000; stroke-width:4; stroke-opacity:0; fill:none" points="
  410.592,1487.47 410.592,1478.83 
  "/>
<polyline clip-path="url(#clip2700)" style="stroke:#000000; stroke-width:4; stroke-opacity:0; fill:none" points="
  568.341,1487.47 568.341,1478.83 
  "/>
<polyline clip-path="url(#clip2700)" style="stroke:#000000; stroke-width:4; stroke-opacity:0; fill:none" points="
  647.216,1487.47 647.216,1478.83 
  "/>
<polyline clip-path="url(#clip2700)" style="stroke:#000000; stroke-width:4; stroke-opacity:0; fill:none" points="
  726.091,1487.47 726.091,1478.83 
  "/>
<polyline clip-path="url(#clip2700)" style="stroke:#000000; stroke-width:4; stroke-opacity:0; fill:none" points="
  804.965,1487.47 804.965,1478.83 
  "/>
<polyline clip-path="url(#clip2700)" style="stroke:#000000; stroke-width:4; stroke-opacity:0; fill:none" points="
  962.715,1487.47 962.715,1478.83 
  "/>
<polyline clip-path="url(#clip2700)" style="stroke:#000000; stroke-width:4; stroke-opacity:0; fill:none" points="
  1041.59,1487.47 1041.59,1478.83 
  "/>
<polyline clip-path="url(#clip2700)" style="stroke:#000000; stroke-width:4; stroke-opacity:0; fill:none" points="
  1120.46,1487.47 1120.46,1478.83 
  "/>
<polyline clip-path="url(#clip2700)" style="stroke:#000000; stroke-width:4; stroke-opacity:0; fill:none" points="
  1199.34,1487.47 1199.34,1478.83 
  "/>
<polyline clip-path="url(#clip2700)" style="stroke:#000000; stroke-width:4; stroke-opacity:0; fill:none" points="
  1357.09,1487.47 1357.09,1478.83 
  "/>
<polyline clip-path="url(#clip2700)" style="stroke:#000000; stroke-width:4; stroke-opacity:0; fill:none" points="
  1435.96,1487.47 1435.96,1478.83 
  "/>
<polyline clip-path="url(#clip2700)" style="stroke:#000000; stroke-width:4; stroke-opacity:0; fill:none" points="
  1514.84,1487.47 1514.84,1478.83 
  "/>
<polyline clip-path="url(#clip2700)" style="stroke:#000000; stroke-width:4; stroke-opacity:0; fill:none" points="
  1593.71,1487.47 1593.71,1478.83 
  "/>
<polyline clip-path="url(#clip2700)" style="stroke:#000000; stroke-width:4; stroke-opacity:0; fill:none" points="
  1751.46,1487.47 1751.46,1478.83 
  "/>
<polyline clip-path="url(#clip2700)" style="stroke:#000000; stroke-width:4; stroke-opacity:0; fill:none" points="
  1830.34,1487.47 1830.34,1478.83 
  "/>
<polyline clip-path="url(#clip2700)" style="stroke:#000000; stroke-width:4; stroke-opacity:0; fill:none" points="
  1909.21,1487.47 1909.21,1478.83 
  "/>
<polyline clip-path="url(#clip2700)" style="stroke:#000000; stroke-width:4; stroke-opacity:0; fill:none" points="
  1988.09,1487.47 1988.09,1478.83 
  "/>
<polyline clip-path="url(#clip2700)" style="stroke:#000000; stroke-width:4; stroke-opacity:0; fill:none" points="
  2145.84,1487.47 2145.84,1478.83 
  "/>
<polyline clip-path="url(#clip2700)" style="stroke:#000000; stroke-width:4; stroke-opacity:0; fill:none" points="
  2224.71,1487.47 2224.71,1478.83 
  "/>
<polyline clip-path="url(#clip2700)" style="stroke:#000000; stroke-width:4; stroke-opacity:0; fill:none" points="
  2303.59,1487.47 2303.59,1478.83 
  "/>
<polyline clip-path="url(#clip2700)" style="stroke:#000000; stroke-width:4; stroke-opacity:0; fill:none" points="
  113.754,1446.71 140.622,1446.71 
  "/>
<polyline clip-path="url(#clip2700)" style="stroke:#000000; stroke-width:4; stroke-opacity:0; fill:none" points="
  113.754,1019.19 140.622,1019.19 
  "/>
<polyline clip-path="url(#clip2700)" style="stroke:#000000; stroke-width:4; stroke-opacity:0; fill:none" points="
  113.754,591.657 140.622,591.657 
  "/>
<polyline clip-path="url(#clip2700)" style="stroke:#000000; stroke-width:4; stroke-opacity:0; fill:none" points="
  113.754,164.128 140.622,164.128 
  "/>
<polyline clip-path="url(#clip2700)" style="stroke:#000000; stroke-width:4; stroke-opacity:0; fill:none" points="
  113.754,1361.21 127.188,1361.21 
  "/>
<polyline clip-path="url(#clip2700)" style="stroke:#000000; stroke-width:4; stroke-opacity:0; fill:none" points="
  113.754,1275.7 127.188,1275.7 
  "/>
<polyline clip-path="url(#clip2700)" style="stroke:#000000; stroke-width:4; stroke-opacity:0; fill:none" points="
  113.754,1190.2 127.188,1190.2 
  "/>
<polyline clip-path="url(#clip2700)" style="stroke:#000000; stroke-width:4; stroke-opacity:0; fill:none" points="
  113.754,1104.69 127.188,1104.69 
  "/>
<polyline clip-path="url(#clip2700)" style="stroke:#000000; stroke-width:4; stroke-opacity:0; fill:none" points="
  113.754,933.679 127.188,933.679 
  "/>
<polyline clip-path="url(#clip2700)" style="stroke:#000000; stroke-width:4; stroke-opacity:0; fill:none" points="
  113.754,848.174 127.188,848.174 
  "/>
<polyline clip-path="url(#clip2700)" style="stroke:#000000; stroke-width:4; stroke-opacity:0; fill:none" points="
  113.754,762.668 127.188,762.668 
  "/>
<polyline clip-path="url(#clip2700)" style="stroke:#000000; stroke-width:4; stroke-opacity:0; fill:none" points="
  113.754,677.162 127.188,677.162 
  "/>
<polyline clip-path="url(#clip2700)" style="stroke:#000000; stroke-width:4; stroke-opacity:0; fill:none" points="
  113.754,506.151 127.188,506.151 
  "/>
<polyline clip-path="url(#clip2700)" style="stroke:#000000; stroke-width:4; stroke-opacity:0; fill:none" points="
  113.754,420.645 127.188,420.645 
  "/>
<polyline clip-path="url(#clip2700)" style="stroke:#000000; stroke-width:4; stroke-opacity:0; fill:none" points="
  113.754,335.14 127.188,335.14 
  "/>
<polyline clip-path="url(#clip2700)" style="stroke:#000000; stroke-width:4; stroke-opacity:0; fill:none" points="
  113.754,249.634 127.188,249.634 
  "/>
<polyline clip-path="url(#clip2700)" style="stroke:#000000; stroke-width:4; stroke-opacity:0; fill:none" points="
  113.754,78.6227 127.188,78.6227 
  "/>
<g clip-path="url(#clip2700)">
<text style="fill:#000000; fill-opacity:1; font-family:Arial,Helvetica Neue,Helvetica,sans-serif; font-size:48px; text-anchor:middle;" transform="rotate(0, 489.466, 1541.47)" x="489.466" y="1541.47">04:10</text>
</g>
<g clip-path="url(#clip2700)">
<text style="fill:#000000; fill-opacity:1; font-family:Arial,Helvetica Neue,Helvetica,sans-serif; font-size:48px; text-anchor:middle;" transform="rotate(0, 883.84, 1541.47)" x="883.84" y="1541.47">08:20</text>
</g>
<g clip-path="url(#clip2700)">
<text style="fill:#000000; fill-opacity:1; font-family:Arial,Helvetica Neue,Helvetica,sans-serif; font-size:48px; text-anchor:middle;" transform="rotate(0, 1278.21, 1541.47)" x="1278.21" y="1541.47">12:30</text>
</g>
<g clip-path="url(#clip2700)">
<text style="fill:#000000; fill-opacity:1; font-family:Arial,Helvetica Neue,Helvetica,sans-serif; font-size:48px; text-anchor:middle;" transform="rotate(0, 1672.59, 1541.47)" x="1672.59" y="1541.47">16:40</text>
</g>
<g clip-path="url(#clip2700)">
<text style="fill:#000000; fill-opacity:1; font-family:Arial,Helvetica Neue,Helvetica,sans-serif; font-size:48px; text-anchor:middle;" transform="rotate(0, 2066.96, 1541.47)" x="2066.96" y="1541.47">20:50</text>
</g>
<g clip-path="url(#clip2700)">
<text style="fill:#000000; fill-opacity:1; font-family:Arial,Helvetica Neue,Helvetica,sans-serif; font-size:48px; text-anchor:end;" transform="rotate(0, 89.7545, 1464.21)" x="89.7545" y="1464.21">0</text>
</g>
<g clip-path="url(#clip2700)">
<text style="fill:#000000; fill-opacity:1; font-family:Arial,Helvetica Neue,Helvetica,sans-serif; font-size:48px; text-anchor:end;" transform="rotate(0, 89.7545, 1036.69)" x="89.7545" y="1036.69">1</text>
</g>
<g clip-path="url(#clip2700)">
<text style="fill:#000000; fill-opacity:1; font-family:Arial,Helvetica Neue,Helvetica,sans-serif; font-size:48px; text-anchor:end;" transform="rotate(0, 89.7545, 609.157)" x="89.7545" y="609.157">2</text>
</g>
<g clip-path="url(#clip2700)">
<text style="fill:#000000; fill-opacity:1; font-family:Arial,Helvetica Neue,Helvetica,sans-serif; font-size:48px; text-anchor:end;" transform="rotate(0, 89.7545, 181.628)" x="89.7545" y="181.628">3</text>
</g>
<polyline clip-path="url(#clip2702)" style="stroke:#4477aa; stroke-width:4.8; stroke-opacity:1; fill:none" points="
  177.122,1446.71 271.772,1150.37 341.182,977.026 462.649,854.033 550.989,758.633 569.919,680.685 752.908,614.782 771.838,557.693 879.108,507.338 1027.39,462.293 
  1125.2,421.545 1148.86,384.345 1289.26,350.125 1346.05,318.442 1462.78,288.945 1598.45,261.353 1652.08,235.434 1749.88,210.998 1809.83,187.882 1902.9,165.953 
  1988.09,145.094 2106.4,125.205 2231.02,106.201 2289.39,88.0053 
  "/>
<path clip-path="url(#clip2700)" d="
M185.754 251.724 L476.584 251.724 L476.584 130.764 L185.754 130.764  Z
  " fill="#ffffff" fill-rule="evenodd" fill-opacity="0.9"/>
<polyline clip-path="url(#clip2700)" style="stroke:#222255; stroke-width:4; stroke-opacity:0.1; fill:none" points="
  185.754,251.724 476.584,251.724 476.584,130.764 185.754,130.764 185.754,251.724 
  "/>
<polyline clip-path="url(#clip2700)" style="stroke:#4477aa; stroke-width:4.8; stroke-opacity:1; fill:none" points="
  209.754,191.244 353.754,191.244 
  "/>
<g clip-path="url(#clip2700)">
<text style="fill:#000000; fill-opacity:1; font-family:Arial,Helvetica Neue,Helvetica,sans-serif; font-size:48px; text-anchor:start;" transform="rotate(0, 377.754, 208.744)" x="377.754" y="208.744">y1</text>
</g>
</svg>
