<?xml version="1.0" encoding="utf-8"?>
<svg xmlns="http://www.w3.org/2000/svg" xmlns:xlink="http://www.w3.org/1999/xlink" width="600" height="400" viewBox="0 0 2400 1600">
<defs>
  <clipPath id="clip4300">
    <rect x="0" y="0" width="2400" height="1600"/>
  </clipPath>
</defs>
<path clip-path="url(#clip4300)" d="
M0 1600 L2400 1600 L2400 0 L0 0  Z
  " fill="#ffffff" fill-rule="evenodd" fill-opacity="1"/>
<defs>
  <clipPath id="clip4301">
    <rect x="480" y="0" width="1681" height="1600"/>
  </clipPath>
</defs>
<path clip-path="url(#clip4300)" d="
M182.008 1487.47 L1152.76 1487.47 L1152.76 47.2441 L182.008 47.2441  Z
  " fill="#ffffff" fill-rule="evenodd" fill-opacity="1"/>
<defs>
  <clipPath id="clip4302">
    <rect x="182" y="47" width="972" height="1441"/>
  </clipPath>
</defs>
<path clip-path="url(#clip4302)" d="
M656.911 755.437 L1125.28 755.437 L1125.15 744.304 L1124.75 733.177 L1124.09 722.063 L1123.17 710.967 L1121.98 699.896 L1120.53 688.857 L1118.81 677.856 L1116.84 666.898 
  L1114.6 655.991 L1112.11 645.139 L1109.36 634.35 L1106.35 623.63 L1103.09 612.983 L1099.58 602.418 L1095.82 591.939 L1091.81 581.552 L1087.55 571.263 L1083.05 561.079 
  L1078.31 551.004 L1073.33 541.045 L1068.12 531.207 L1062.67 521.496 L1057 511.917 L1051.1 502.476 L1044.97 493.177 L1038.63 484.027 L1032.07 475.03 L1025.3 466.192 
  L1018.32 457.517 L1011.13 449.01 L1003.75 440.677 L996.17 432.521 L988.398 424.548 L980.439 416.762 L972.297 409.167 L963.977 401.768 L955.484 394.569 L946.821 387.574 
  L937.995 380.787 L929.01 374.211 L919.872 367.851 L910.584 361.71 L901.153 355.791 L891.585 350.098 L881.883 344.635 L872.055 339.403 L862.105 334.406 L852.039 329.648 
  L841.863 325.13 L656.911 755.437  Z
  " fill="#4477aa" fill-rule="evenodd" fill-opacity="1"/>
<polyline clip-path="url(#clip4302)" style="stroke:#000000; stroke-width:4.8; stroke-opacity:1; fill:none" points="
  656.911,755.437 1125.28,755.437 1125.15,744.304 1124.75,733.177 1124.09,722.063 1123.17,710.967 1121.98,699.896 1120.53,688.857 1118.81,677.856 1116.84,666.898 
  1114.6,655.991 1112.11,645.139 1109.36,634.35 1106.35,623.63 1103.09,612.983 1099.58,602.418 1095.82,591.939 1091.81,581.552 1087.55,571.263 1083.05,561.079 
  1078.31,551.004 1073.33,541.045 1068.12,531.207 1062.67,521.496 1057,511.917 1051.1,502.476 1044.97,493.177 1038.63,484.027 1032.07,475.03 1025.3,466.192 
  1018.32,457.517 1011.13,449.01 1003.75,440.677 996.17,432.521 988.398,424.548 980.439,416.762 972.297,409.167 963.977,401.768 955.484,394.569 946.821,387.574 
  937.995,380.787 929.01,374.211 919.872,367.851 910.584,361.71 901.153,355.791 891.585,350.098 881.883,344.635 872.055,339.403 862.105,334.406 852.039,329.648 
  841.863,325.13 656.911,755.437 
  "/>
<path clip-path="url(#clip4302)" d="
M656.911 755.437 L509.365 310.913 L500.774 313.857 L492.241 316.968 L483.77 320.243 L475.365 323.682 L467.027 327.283 L458.761 331.045 L450.57 334.967 L442.456 339.047 
  L434.422 343.284 L426.473 347.675 L418.61 352.22 L410.836 356.916 L403.155 361.762 L395.57 366.757 L388.083 371.897 L380.697 377.182 L373.414 382.608 L366.239 388.175 
  L359.172 393.88 L352.218 399.721 L345.378 405.696 L338.655 411.802 L332.052 418.038 L325.571 424.4 L319.214 430.887 L312.985 437.496 L306.885 444.224 L300.916 451.07 
  L295.082 458.029 L289.383 465.101 L283.823 472.282 L278.403 479.569 L273.125 486.96 L267.991 494.452 L263.004 502.042 L258.165 509.727 L253.476 517.505 L248.938 525.372 
  L244.554 533.326 L240.325 541.363 L236.252 549.481 L232.338 557.676 L228.583 565.945 L224.989 574.286 L221.558 582.695 L218.291 591.169 L215.188 599.704 L212.251 608.298 
  L209.482 616.948 L656.911 755.437  Z
  " fill="#ee6677" fill-rule="evenodd" fill-opacity="1"/>
<polyline clip-path="url(#clip4302)" style="stroke:#000000; stroke-width:4.8; stroke-opacity:1; fill:none" points="
  656.911,755.437 509.365,310.913 500.774,313.857 492.241,316.968 483.77,320.243 475.365,323.682 467.027,327.283 458.761,331.045 450.57,334.967 442.456,339.047 
  434.422,343.284 426.473,347.675 418.61,352.22 410.836,356.916 403.155,361.762 395.57,366.757 388.083,371.897 380.697,377.182 373.414,382.608 366.239,388.175 
  359.172,393.88 352.218,399.721 345.378,405.696 338.655,411.802 332.052,418.038 325.571,424.4 319.214,430.887 312.985,437.496 306.885,444.224 300.916,451.07 
  295.082,458.029 289.383,465.101 283.823,472.282 278.403,479.569 273.125,486.96 267.991,494.452 263.004,502.042 258.165,509.727 253.476,517.505 248.938,525.372 
  244.554,533.326 240.325,541.363 236.252,549.481 232.338,557.676 228.583,565.945 224.989,574.286 221.558,582.695 218.291,591.169 215.188,599.704 212.251,608.298 
  209.482,616.948 656.911,755.437 
  "/>
<path clip-path="url(#clip4302)" d="
M656.911 755.437 L333.065 1093.81 L338.512 1098.94 L344.04 1103.98 L349.647 1108.94 L355.334 1113.8 L361.097 1118.57 L366.936 1123.25 L372.848 1127.84 L378.834 1132.33 
  L384.89 1136.72 L391.015 1141.02 L397.209 1145.22 L403.468 1149.31 L409.793 1153.31 L416.18 1157.21 L422.629 1161 L429.138 1164.69 L435.705 1168.28 L442.328 1171.76 
  L449.006 1175.14 L455.737 1178.4 L462.52 1181.56 L469.352 1184.61 L476.232 1187.56 L483.158 1190.39 L490.128 1193.11 L497.141 1195.72 L504.195 1198.21 L511.288 1200.6 
  L518.418 1202.86 L525.583 1205.02 L532.781 1207.06 L540.012 1208.99 L547.272 1210.8 L554.56 1212.49 L561.875 1214.07 L569.213 1215.53 L576.574 1216.87 L583.956 1218.09 
  L591.356 1219.2 L598.773 1220.19 L606.204 1221.06 L613.649 1221.81 L621.105 1222.44 L628.569 1222.95 L636.041 1223.34 L643.519 1223.62 L651 1223.77 L658.482 1223.81 
  L665.964 1223.72 L656.911 755.437  Z
  " fill="#228833" fill-rule="evenodd" fill-opacity="1"/>
<polyline clip-path="url(#clip4302)" style="stroke:#000000; stroke-width:4.8; stroke-opacity:1; fill:none" points="
  656.911,755.437 333.065,1093.81 338.512,1098.94 344.04,1103.98 349.647,1108.94 355.334,1113.8 361.097,1118.57 366.936,1123.25 372.848,1127.84 378.834,1132.33 
  384.89,1136.72 391.015,1141.02 397.209,1145.22 403.468,1149.31 409.793,1153.31 416.18,1157.21 422.629,1161 429.138,1164.69 435.705,1168.28 442.328,1171.76 
  449.006,1175.14 455.737,1178.4 462.52,1181.56 469.352,1184.61 476.232,1187.56 483.158,1190.39 490.128,1193.11 497.141,1195.72 504.195,1198.21 511.288,1200.6 
  518.418,1202.86 525.583,1205.02 532.781,1207.06 540.012,1208.99 547.272,1210.8 554.56,1212.49 561.875,1214.07 569.213,1215.53 576.574,1216.87 583.956,1218.09 
  591.356,1219.2 598.773,1220.19 606.204,1221.06 613.649,1221.81 621.105,1222.44 628.569,1222.95 636.041,1223.34 643.519,1223.62 651,1223.77 658.482,1223.81 
  665.964,1223.72 656.911,755.437 
  "/>
<path clip-path="url(#clip4302)" d="
M656.911 755.437 L735.27 1217.21 L738.663 1216.62 L742.051 1216.01 L745.434 1215.37 L748.813 1214.7 L752.187 1214.02 L755.555 1213.3 L758.919 1212.57 L762.276 1211.8 
  L765.628 1211.02 L768.975 1210.2 L772.315 1209.37 L775.649 1208.51 L778.976 1207.62 L782.297 1206.71 L785.611 1205.78 L788.918 1204.82 L792.218 1203.84 L795.511 1202.83 
  L798.796 1201.8 L802.074 1200.75 L805.343 1199.67 L808.605 1198.56 L811.858 1197.44 L815.103 1196.29 L818.34 1195.11 L821.568 1193.91 L824.787 1192.69 L827.997 1191.44 
  L831.197 1190.17 L834.388 1188.88 L837.57 1187.56 L840.742 1186.22 L843.904 1184.86 L847.055 1183.48 L850.197 1182.07 L853.328 1180.63 L856.448 1179.18 L859.558 1177.7 
  L862.657 1176.2 L865.744 1174.67 L868.821 1173.13 L871.886 1171.56 L874.939 1169.97 L877.98 1168.35 L881.01 1166.72 L884.027 1165.06 L887.032 1163.38 L890.025 1161.68 
  L893.005 1159.95 L656.911 755.437  Z
  " fill="#ccbb44" fill-rule="evenodd" fill-opacity="1"/>
<polyline clip-path="url(#clip4302)" style="stroke:#000000; stroke-width:4.8; stroke-opacity:1; fill:none" points="
  656.911,755.437 735.27,1217.21 738.663,1216.62 742.051,1216.01 745.434,1215.37 748.813,1214.7 752.187,1214.02 755.555,1213.3 758.919,1212.57 762.276,1211.8 
  765.628,1211.02 768.975,1210.2 772.315,1209.37 775.649,1208.51 778.976,1207.62 782.297,1206.71 785.611,1205.78 788.918,1204.82 792.218,1203.84 795.511,1202.83 
  798.796,1201.8 802.074,1200.75 805.343,1199.67 808.605,1198.56 811.858,1197.44 815.103,1196.29 818.34,1195.11 821.568,1193.91 824.787,1192.69 827.997,1191.44 
  831.197,1190.17 834.388,1188.88 837.57,1187.56 840.742,1186.22 843.904,1184.86 847.055,1183.48 850.197,1182.07 853.328,1180.63 856.448,1179.18 859.558,1177.7 
  862.657,1176.2 865.744,1174.67 868.821,1173.13 871.886,1171.56 874.939,1169.97 877.98,1168.35 881.01,1166.72 884.027,1165.06 887.032,1163.38 890.025,1161.68 
  893.005,1159.95 656.911,755.437 
  "/>
<path clip-path="url(#clip4300)" d="
M254.008 433.164 L520.77 433.164 L520.77 130.764 L254.008 130.764  Z
  " fill="#ffffff" fill-rule="evenodd" fill-opacity="0.9"/>
<polyline clip-path="url(#clip4300)" style="stroke:#222255; stroke-width:4; stroke-opacity:0.1; fill:none" points="
  254.008,433.164 520.77,433.164 520.77,130.764 254.008,130.764 254.008,433.164 
  "/>
<path clip-path="url(#clip4300)" d="
M278.008 215.436 L422.008 215.436 L422.008 167.052 L278.008 167.052 L278.008 215.436  Z
  " fill="#4477aa" fill-rule="evenodd" fill-opacity="1"/>
<polyline clip-path="url(#clip4300)" style="stroke:#000000; stroke-width:4.8; stroke-opacity:1; fill:none" points="
  278.008,215.436 422.008,215.436 422.008,167.052 278.008,167.052 278.008,215.436 
  "/>
<g clip-path="url(#clip4300)">
<text style="fill:#000000; fill-opacity:1; font-family:Arial,Helvetica Neue,Helvetica,sans-serif; font-size:48px; text-anchor:start;" transform="rotate(0, 446.008, 208.744)" x="446.008" y="208.744">1</text>
</g>
<path clip-path="url(#clip4300)" d="
M278.008 275.916 L422.008 275.916 L422.008 227.532 L278.008 227.532 L278.008 275.916  Z
  " fill="#ee6677" fill-rule="evenodd" fill-opacity="1"/>
<polyline clip-path="url(#clip4300)" style="stroke:#000000; stroke-width:4.8; stroke-opacity:1; fill:none" points="
  278.008,275.916 422.008,275.916 422.008,227.532 278.008,227.532 278.008,275.916 
  "/>
<g clip-path="url(#clip4300)">
<text style="fill:#000000; fill-opacity:1; font-family:Arial,Helvetica Neue,Helvetica,sans-serif; font-size:48px; text-anchor:start;" transform="rotate(0, 446.008, 269.224)" x="446.008" y="269.224">3</text>
</g>
<path clip-path="url(#clip4300)" d="
M278.008 336.396 L422.008 336.396 L422.008 288.012 L278.008 288.012 L278.008 336.396  Z
  " fill="#228833" fill-rule="evenodd" fill-opacity="1"/>
<polyline clip-path="url(#clip4300)" style="stroke:#000000; stroke-width:4.8; stroke-opacity:1; fill:none" points="
  278.008,336.396 422.008,336.396 422.008,288.012 278.008,288.012 278.008,336.396 
  "/>
<g clip-path="url(#clip4300)">
<text style="fill:#000000; fill-opacity:1; font-family:Arial,Helvetica Neue,Helvetica,sans-serif; font-size:48px; text-anchor:start;" transform="rotate(0, 446.008, 329.704)" x="446.008" y="329.704">5</text>
</g>
<path clip-path="url(#clip4300)" d="
M278.008 396.876 L422.008 396.876 L422.008 348.492 L278.008 348.492 L278.008 396.876  Z
  " fill="#ccbb44" fill-rule="evenodd" fill-opacity="1"/>
<polyline clip-path="url(#clip4300)" style="stroke:#000000; stroke-width:4.8; stroke-opacity:1; fill:none" points="
  278.008,396.876 422.008,396.876 422.008,348.492 278.008,348.492 278.008,396.876 
  "/>
<g clip-path="url(#clip4300)">
<text style="fill:#000000; fill-opacity:1; font-family:Arial,Helvetica Neue,Helvetica,sans-serif; font-size:48px; text-anchor:start;" transform="rotate(0, 446.008, 390.184)" x="446.008" y="390.184">7</text>
</g>
<path clip-path="url(#clip4300)" d="
M1382.01 1487.47 L2352.76 1487.47 L2352.76 47.2441 L1382.01 47.2441  Z
  " fill="#ffffff" fill-rule="evenodd" fill-opacity="1"/>
<defs>
  <clipPath id="clip4303">
    <rect x="1382" y="47" width="972" height="1441"/>
  </clipPath>
</defs>
<path clip-path="url(#clip4303)" d="
M1867.38 767.399 L2048.2 346.707 L2041.94 344.073 L2035.65 341.532 L2029.31 339.084 L2022.95 336.731 L2016.54 334.472 L2010.11 332.308 L2003.65 330.24 L1997.15 328.268 
  L1990.63 326.392 L1984.07 324.614 L1977.5 322.932 L1970.9 321.349 L1964.27 319.863 L1957.63 318.476 L1950.96 317.187 L1944.28 315.998 L1937.58 314.907 L1930.86 313.916 
  L1924.13 313.025 L1917.39 312.234 L1910.64 311.542 L1903.88 310.951 L1897.11 310.46 L1890.33 310.07 L1883.55 309.78 L1876.76 309.59 L1869.97 309.501 L1863.19 309.513 
  L1856.4 309.626 L1849.61 309.839 L1842.83 310.152 L1836.06 310.566 L1829.29 311.081 L1822.53 311.696 L1815.78 312.411 L1809.04 313.226 L1802.31 314.14 L1795.6 315.155 
  L1788.9 316.268 L1782.22 317.481 L1775.56 318.793 L1768.92 320.203 L1762.31 321.712 L1755.71 323.319 L1749.14 325.023 L1742.59 326.824 L1736.08 328.723 L1729.59 330.717 
  L1723.13 332.808 L1867.38 767.399  Z
  " fill="#4477aa" fill-rule="evenodd" fill-opacity="1"/>
<polyline clip-path="url(#clip4303)" style="stroke:#000000; stroke-width:4.8; stroke-opacity:1; fill:none" points="
  1867.38,767.399 2048.2,346.707 2041.94,344.073 2035.65,341.532 2029.31,339.084 2022.95,336.731 2016.54,334.472 2010.11,332.308 2003.65,330.24 1997.15,328.268 
  1990.63,326.392 1984.07,324.614 1977.5,322.932 1970.9,321.349 1964.27,319.863 1957.63,318.476 1950.96,317.187 1944.28,315.998 1937.58,314.907 1930.86,313.916 
  1924.13,313.025 1917.39,312.234 1910.64,311.542 1903.88,310.951 1897.11,310.46 1890.33,310.07 1883.55,309.78 1876.76,309.59 1869.97,309.501 1863.19,309.513 
  1856.4,309.626 1849.61,309.839 1842.83,310.152 1836.06,310.566 1829.29,311.081 1822.53,311.696 1815.78,312.411 1809.04,313.226 1802.31,314.14 1795.6,315.155 
  1788.9,316.268 1782.22,317.481 1775.56,318.793 1768.92,320.203 1762.31,321.712 1755.71,323.319 1749.14,325.023 1742.59,326.824 1736.08,328.723 1729.59,330.717 
  1723.13,332.808 1867.38,767.399 
  "/>
<path clip-path="url(#clip4303)" d="
M1867.38 767.399 L1429.95 632.004 L1427 641.924 L1424.28 651.909 L1421.78 661.953 L1419.51 672.05 L1417.47 682.196 L1415.66 692.386 L1414.08 702.614 L1412.73 712.875 
  L1411.61 723.164 L1410.73 733.476 L1410.08 743.805 L1409.66 754.146 L1409.48 764.494 L1409.53 774.843 L1409.82 785.188 L1410.34 795.525 L1411.09 805.847 L1412.08 816.149 
  L1413.29 826.426 L1414.74 836.674 L1416.42 846.886 L1418.34 857.057 L1420.48 867.182 L1422.85 877.257 L1425.44 887.275 L1428.26 897.232 L1431.31 907.123 L1434.58 916.943 
  L1438.07 926.686 L1441.78 936.348 L1445.71 945.923 L1449.85 955.407 L1454.21 964.795 L1458.77 974.083 L1463.55 983.264 L1468.53 992.336 L1473.71 1001.29 L1479.1 1010.13 
  L1484.69 1018.84 L1490.47 1027.43 L1496.44 1035.88 L1502.6 1044.19 L1508.95 1052.37 L1515.48 1060.39 L1522.19 1068.27 L1529.08 1076 L1536.14 1083.56 L1543.37 1090.97 
  L1550.77 1098.21 L1867.38 767.399  Z
  " fill="#ee6677" fill-rule="evenodd" fill-opacity="1"/>
<polyline clip-path="url(#clip4303)" style="stroke:#000000; stroke-width:4.8; stroke-opacity:1; fill:none" points="
  1867.38,767.399 1429.95,632.004 1427,641.924 1424.28,651.909 1421.78,661.953 1419.51,672.05 1417.47,682.196 1415.66,692.386 1414.08,702.614 1412.73,712.875 
  1411.61,723.164 1410.73,733.476 1410.08,743.805 1409.66,754.146 1409.48,764.494 1409.53,774.843 1409.82,785.188 1410.34,795.525 1411.09,805.847 1412.08,816.149 
  1413.29,826.426 1414.74,836.674 1416.42,846.886 1418.34,857.057 1420.48,867.182 1422.85,877.257 1425.44,887.275 1428.26,897.232 1431.31,907.123 1434.58,916.943 
  1438.07,926.686 1441.78,936.348 1445.71,945.923 1449.85,955.407 1454.21,964.795 1458.77,974.083 1463.55,983.264 1468.53,992.336 1473.71,1001.29 1479.1,1010.13 
  1484.69,1018.84 1490.47,1027.43 1496.44,1035.88 1502.6,1044.19 1508.95,1052.37 1515.48,1060.39 1522.19,1068.27 1529.08,1076 1536.14,1083.56 1543.37,1090.97 
  1550.77,1098.21 1867.38,767.399 
  "/>
<path clip-path="url(#clip4303)" d="
M1867.38 767.399 L1876.23 1225.22 L1877.62 1225.19 L1879.01 1225.16 L1880.4 1225.12 L1881.79 1225.08 L1883.18 1225.03 L1884.57 1224.98 L1885.95 1224.93 L1887.34 1224.87 
  L1888.73 1224.8 L1890.12 1224.74 L1891.51 1224.67 L1892.9 1224.59 L1894.29 1224.51 L1895.67 1224.43 L1897.06 1224.34 L1898.45 1224.25 L1899.83 1224.15 L1901.22 1224.05 
  L1902.61 1223.95 L1903.99 1223.84 L1905.38 1223.72 L1906.76 1223.61 L1908.15 1223.48 L1909.53 1223.36 L1910.92 1223.23 L1912.3 1223.09 L1913.68 1222.96 L1915.07 1222.81 
  L1916.45 1222.67 L1917.83 1222.51 L1919.21 1222.36 L1920.59 1222.2 L1921.97 1222.04 L1923.35 1221.87 L1924.73 1221.7 L1926.11 1221.52 L1927.49 1221.34 L1928.87 1221.16 
  L1930.25 1220.97 L1931.62 1220.77 L1933 1220.58 L1934.38 1220.38 L1935.75 1220.17 L1937.12 1219.96 L1938.5 1219.75 L1939.87 1219.53 L1941.24 1219.31 L1942.62 1219.08 
  L1943.99 1218.85 L1867.38 767.399  Z
  " fill="#228833" fill-rule="evenodd" fill-opacity="1"/>
<polyline clip-path="url(#clip4303)" style="stroke:#000000; stroke-width:4.8; stroke-opacity:1; fill:none" points="
  1867.38,767.399 1876.23,1225.22 1877.62,1225.19 1879.01,1225.16 1880.4,1225.12 1881.79,1225.08 1883.18,1225.03 1884.57,1224.98 1885.95,1224.93 1887.34,1224.87 
  1888.73,1224.8 1890.12,1224.74 1891.51,1224.67 1892.9,1224.59 1894.29,1224.51 1895.67,1224.43 1897.06,1224.34 1898.45,1224.25 1899.83,1224.15 1901.22,1224.05 
  1902.61,1223.95 1903.99,1223.84 1905.38,1223.72 1906.76,1223.61 1908.15,1223.48 1909.53,1223.36 1910.92,1223.23 1912.3,1223.09 1913.68,1222.96 1915.07,1222.81 
  1916.45,1222.67 1917.83,1222.51 1919.21,1222.36 1920.59,1222.2 1921.97,1222.04 1923.35,1221.87 1924.73,1221.7 1926.11,1221.52 1927.49,1221.34 1928.87,1221.16 
  1930.25,1220.97 1931.62,1220.77 1933,1220.58 1934.38,1220.38 1935.75,1220.17 1937.12,1219.96 1938.5,1219.75 1939.87,1219.53 1941.24,1219.31 1942.62,1219.08 
  1943.99,1218.85 1867.38,767.399 
  "/>
<path clip-path="url(#clip4303)" d="
M1867.38 767.399 L2098.2 1162.87 L2106.56 1157.87 L2114.81 1152.7 L2122.95 1147.34 L2130.97 1141.82 L2138.88 1136.13 L2146.66 1130.27 L2154.32 1124.25 L2161.85 1118.06 
  L2169.24 1111.72 L2176.5 1105.22 L2183.61 1098.57 L2190.59 1091.76 L2197.41 1084.81 L2204.09 1077.72 L2210.62 1070.49 L2216.99 1063.12 L2223.2 1055.61 L2229.25 1047.98 
  L2235.14 1040.22 L2240.86 1032.33 L2246.41 1024.33 L2251.79 1016.2 L2257 1007.97 L2262.02 999.627 L2266.88 991.179 L2271.55 982.629 L2276.03 973.983 L2280.34 965.242 
  L2284.45 956.412 L2288.38 947.497 L2292.11 938.5 L2295.66 929.426 L2299.01 920.278 L2302.16 911.061 L2305.12 901.779 L2307.88 892.436 L2310.44 883.037 L2312.8 873.585 
  L2314.96 864.085 L2316.91 854.542 L2318.67 844.959 L2320.21 835.341 L2321.56 825.692 L2322.69 816.017 L2323.62 806.32 L2324.35 796.605 L2324.87 786.877 L2325.18 777.14 
  L2325.28 767.399 L1867.38 767.399  Z
  " fill="#ccbb44" fill-rule="evenodd" fill-opacity="1"/>
<polyline clip-path="url(#clip4303)" style="stroke:#000000; stroke-width:4.8; stroke-opacity:1; fill:none" points="
  1867.38,767.399 2098.2,1162.87 2106.56,1157.87 2114.81,1152.7 2122.95,1147.34 2130.97,1141.82 2138.88,1136.13 2146.66,1130.27 2154.32,1124.25 2161.85,1118.06 
  2169.24,1111.72 2176.5,1105.22 2183.61,1098.57 2190.59,1091.76 2197.41,1084.81 2204.09,1077.72 2210.62,1070.49 2216.99,1063.12 2223.2,1055.61 2229.25,1047.98 
  2235.14,1040.22 2240.86,1032.33 2246.41,1024.33 2251.79,1016.2 2257,1007.97 2262.02,999.627 2266.88,991.179 2271.55,982.629 2276.03,973.983 2280.34,965.242 
  2284.45,956.412 2288.38,947.497 2292.11,938.5 2295.66,929.426 2299.01,920.278 2302.16,911.061 2305.12,901.779 2307.88,892.436 2310.44,883.037 2312.8,873.585 
  2314.96,864.085 2316.91,854.542 2318.67,844.959 2320.21,835.341 2321.56,825.692 2322.69,816.017 2323.62,806.32 2324.35,796.605 2324.87,786.877 2325.18,777.14 
  2325.28,767.399 1867.38,767.399 
  "/>
<path clip-path="url(#clip4300)" d="
M1454.01 433.164 L1720.77 433.164 L1720.77 130.764 L1454.01 130.764  Z
  " fill="#ffffff" fill-rule="evenodd" fill-opacity="0.9"/>
<polyline clip-path="url(#clip4300)" style="stroke:#222255; stroke-width:4; stroke-opacity:0.1; fill:none" points="
  1454.01,433.164 1720.77,433.164 1720.77,130.764 1454.01,130.764 1454.01,433.164 
  "/>
<path clip-path="url(#clip4300)" d="
M1478.01 215.436 L1622.01 215.436 L1622.01 167.052 L1478.01 167.052 L1478.01 215.436  Z
  " fill="#4477aa" fill-rule="evenodd" fill-opacity="1"/>
<polyline clip-path="url(#clip4300)" style="stroke:#000000; stroke-width:4.8; stroke-opacity:1; fill:none" points="
  1478.01,215.436 1622.01,215.436 1622.01,167.052 1478.01,167.052 1478.01,215.436 
  "/>
<g clip-path="url(#clip4300)">
<text style="fill:#000000; fill-opacity:1; font-family:Arial,Helvetica Neue,Helvetica,sans-serif; font-size:48px; text-anchor:start;" transform="rotate(0, 1646.01, 208.744)" x="1646.01" y="208.744">2</text>
</g>
<path clip-path="url(#clip4300)" d="
M1478.01 275.916 L1622.01 275.916 L1622.01 227.532 L1478.01 227.532 L1478.01 275.916  Z
  " fill="#ee6677" fill-rule="evenodd" fill-opacity="1"/>
<polyline clip-path="url(#clip4300)" style="stroke:#000000; stroke-width:4.8; stroke-opacity:1; fill:none" points="
  1478.01,275.916 1622.01,275.916 1622.01,227.532 1478.01,227.532 1478.01,275.916 
  "/>
<g clip-path="url(#clip4300)">
<text style="fill:#000000; fill-opacity:1; font-family:Arial,Helvetica Neue,Helvetica,sans-serif; font-size:48px; text-anchor:start;" transform="rotate(0, 1646.01, 269.224)" x="1646.01" y="269.224">4</text>
</g>
<path clip-path="url(#clip4300)" d="
M1478.01 336.396 L1622.01 336.396 L1622.01 288.012 L1478.01 288.012 L1478.01 336.396  Z
  " fill="#228833" fill-rule="evenodd" fill-opacity="1"/>
<polyline clip-path="url(#clip4300)" style="stroke:#000000; stroke-width:4.8; stroke-opacity:1; fill:none" points="
  1478.01,336.396 1622.01,336.396 1622.01,288.012 1478.01,288.012 1478.01,336.396 
  "/>
<g clip-path="url(#clip4300)">
<text style="fill:#000000; fill-opacity:1; font-family:Arial,Helvetica Neue,Helvetica,sans-serif; font-size:48px; text-anchor:start;" transform="rotate(0, 1646.01, 329.704)" x="1646.01" y="329.704">6</text>
</g>
<path clip-path="url(#clip4300)" d="
M1478.01 396.876 L1622.01 396.876 L1622.01 348.492 L1478.01 348.492 L1478.01 396.876  Z
  " fill="#ccbb44" fill-rule="evenodd" fill-opacity="1"/>
<polyline clip-path="url(#clip4300)" style="stroke:#000000; stroke-width:4.8; stroke-opacity:1; fill:none" points="
  1478.01,396.876 1622.01,396.876 1622.01,348.492 1478.01,348.492 1478.01,396.876 
  "/>
<g clip-path="url(#clip4300)">
<text style="fill:#000000; fill-opacity:1; font-family:Arial,Helvetica Neue,Helvetica,sans-serif; font-size:48px; text-anchor:start;" transform="rotate(0, 1646.01, 390.184)" x="1646.01" y="390.184">8</text>
</g>
</svg>
